# Object Export From Tinkercad Server 2015

mtllib obj.mtl

o obj_0
v -81 		54 		3
v -81 		54 		0
v -81 		-110 		0
v -81 		-110 		3
v 116.56 		35.95 		10
v 115.601 		35.798 		10
v 117.425 		36.391 		10
v 118.111 		37.077 		10
v 65.6 		-30.344 		5
v 118.552 		37.942 		10
v 118.704 		38.9 		10
v 66.528 		-30.197 		5
v 118.552 		39.859 		10
v 67.365 		-29.771 		5
v 118.111 		40.724 		10
v 68.029 		-29.106 		5
v 135.565 		-44.1 		0
v 68.456 		-28.269 		5
v 114.643 		41.851 		10
v 115.601 		42.003 		10
v 113.778 		41.41 		10
v 117.425 		36.391 		0
v 118.111 		37.077 		0
v 135.7 		-43.25 		0
v 135.565 		-42.4 		0
v 118.552 		37.942 		0
v 118.704 		38.9 		0
v 68.603 		-27.342 		5
v 143 		54 		0
v 143 		54 		3
v 135.8004 		40.7 		10
v 135.8004 		36.7 		10
v 68.456 		-26.414 		5
v 141.003 		52.003 		3
v 118.552 		39.859 		0
v 68.029 		-25.577 		5
v 118.111 		40.724 		0
v 67.365 		-24.912 		5
v 141.003 		3 		2
v 141.003 		5 		2
v 141.003 		3 		0
v 115.601 		42.003 		0
v 66.528 		-24.486 		5
v 114.643 		41.851 		0
v 141.003 		38.05 		1
v 141.003 		39.55 		1
v 113.778 		41.41 		0
v 141.003 		18.3 		1
v 141.003 		19.8 		1
v 65.6 		-24.339 		5
v 117.425 		41.41 		10
v 116.56 		41.851 		10
v 43.5506 		20.85 		0
v 66.5 		-6 		5
v 45.6235 		38.25 		1
v 45.7365 		38.25 		0.005
v 45.7365 		36.8 		0.005
v 50.5 		38.25 		0.005
v 64.643 		35.898 		10
v 62.133 		40.824 		10
v 43.6641 		19.75 		1
v 43.5506 		19.75 		0
v 36 		19.75 		0
v 36 		19.75 		1
v 105.995 		-27.11 		5
v 103.218 		-23.366 		5
v 61.692 		39.959 		10
v 100.088 		-19.912 		5
v 96.634 		-16.782 		5
v 92.89 		-14.005 		5
v 88.891 		-11.609 		5
v 43.6641 		18.25 		1
v 84.677 		-9.616 		5
v 43.5506 		18.25 		0
v 80.289 		-8.045 		5
v 43.5506 		16.85 		0
v 75.767 		-6.913 		5
v 71.156 		-6.229 		5
v 61.54 		39 		10
v 61.692 		38.042 		10
v 62.133 		37.177 		10
v 108.391 		-31.109 		5
v 36 		18.25 		1
v 36 		18.25 		0
v 62.819 		36.491 		10
v 36 		38.25 		1
v 36 		38.25 		0
v 63.684 		36.05 		10
v 50.5 		38.25 		0
v 87.856 		-53.4 		5
v 65.602 		36.05 		10
v 36 		52.003 		2
v 88.003 		-54.328 		5
v 36 		5 		2
v 66.467 		36.491 		10
v 67.153 		37.177 		10
v 88.429 		-55.165 		5
v 36 		23.75 		2
v 67.594 		38.042 		10
v 89.094 		-55.829 		5
v 67.745 		39 		10
v 67.594 		39.959 		10
v 89.931 		-56.256 		5
v 67.153 		40.824 		10
v 36 		39.75 		1
v 90.858 		-56.403 		5
v 11 		-52.5 		1
v 11 		-52.5 		0
v 11 		3 		0
v 91.786 		-56.256 		5
v 11 		-54 		0
v 11 		-54 		1
v 66.467 		41.51 		10
v 92.623 		-55.829 		5
v 65.602 		41.951 		10
v 64.643 		42.103 		10
v 93.288 		-55.165 		5
v 63.684 		41.951 		10
v 62.819 		41.51 		10
v 93.714 		-54.328 		5
v 93.861 		-53.4 		5
v -1 		-83.5 		1
v -1 		-82 		1
v 85.098 		43.9 		10
v 89.931 		-50.544 		5
v 90.858 		-50.398 		5
v -1 		-23.5 		1
v 85.098 		33.9 		10
v -1 		-22 		1
v 89.094 		-50.971 		5
v 88.429 		-51.635 		5
v 95.503 		43.9 		10
v 95.503 		33.9 		10
v 112.499 		38.9 		10
v 88.003 		-52.472 		5
v -11 		-82 		1
v -11 		-83.5 		1
v 44.6016 		40.8 		10
v 44.6016 		36.8 		10
v 54.9095 		40.8 		10
v 54.9095 		36.8 		10
v 54.9095 		43.9 		10
v 93.714 		-52.472 		5
v 54.9095 		33.9 		10
v -11 		-22 		1
v -11 		-23.5 		1
v 93.288 		-51.635 		5
v 125.7145 		40.7 		10
v 125.7145 		36.7 		10
v 92.623 		-50.971 		5
v 125.7145 		43.9 		10
v 125.7145 		33.9 		10
v 91.786 		-50.544 		5
v 114 		-53.5 		5
v 113.771 		-48.844 		5
v 113.087 		-44.233 		5
v 111.955 		-39.711 		5
v 110.384 		-35.323 		5
v 113.087 		-62.767 		5
v 113.771 		-58.156 		5
v 62.744 		-28.269 		5
v 62.598 		-27.342 		5
v 63.171 		-29.106 		5
v -21 		-83.5 		1
v 63.835 		-29.771 		5
v -21 		-82 		1
v 64.672 		-30.197 		5
v -21 		-23.5 		1
v -21 		-22 		1
v 63.835 		-24.912 		5
v 63.171 		-25.577 		5
v -31 		-82 		1
v -31 		-83.5 		1
v 62.744 		-26.414 		5
v 141.003 		39.55 		0
v 141.003 		38.05 		0
v 141.003 		19.8 		0
v 64.672 		-24.486 		5
v 141.003 		18.3 		0
v 141.003 		5 		0
v 141.003 		52.003 		0
v 62.598 		-32.768 		5
v 61.844 		-6.229 		5
v 57.233 		-6.913 		5
v 52.711 		-8.045 		5
v 48.323 		-9.616 		5
v 44.109 		-11.609 		5
v 40.11 		-14.005 		5
v 36.366 		-16.782 		5
v 32.912 		-19.912 		5
v 29.782 		-23.366 		5
v 40.828 		-56.156 		5
v 39.9 		-56.303 		5
v 41.665 		-55.729 		5
v 42.329 		-55.065 		5
v 42.756 		-54.228 		5
v 42.903 		-53.3 		5
v 36.898 		-53.3 		5
v 37.044 		-54.228 		5
v 37.471 		-55.065 		5
v 38.135 		-55.729 		5
v 38.972 		-56.156 		5
v 42.756 		-52.372 		5
v 42.329 		-51.535 		5
v 135.7 		-23.05 		13
v 41.665 		-50.871 		5
v 135.565 		-22.2 		13
v 135.565 		-23.9 		13
v 40.828 		-50.444 		5
v 113.091 		40.724 		10
v 39.9 		-50.298 		5
v 112.651 		39.859 		10
v 38.972 		-50.444 		5
v 38.135 		-50.871 		5
v 112.651 		37.942 		10
v 37.471 		-51.535 		5
v 113.091 		37.077 		10
v 37.044 		-52.372 		5
v 113.778 		36.391 		10
v 114.643 		35.95 		10
v 135.565 		-23.9 		0
v 135.7 		-23.05 		0
v 135.565 		-22.2 		0
v 68.503 		-78.3 		5
v 66.428 		-81.156 		5
v 67.265 		-80.729 		5
v 67.929 		-80.065 		5
v 68.356 		-79.228 		5
v 85.098 		43.9 		4.798
v 85.098 		33.9 		4.798
v 68.356 		-77.372 		5
v 67.929 		-76.535 		5
v 67.265 		-75.871 		5
v 66.428 		-75.444 		5
v 105.995 		-79.89 		5
v 108.391 		-75.891 		5
v 110.384 		-71.677 		5
v 111.955 		-67.289 		5
v 66.5 		-101 		5
v 71.156 		-100.771 		5
v 75.767 		-100.087 		5
v 80.289 		-98.955 		5
v 84.677 		-97.384 		5
v 88.891 		-95.391 		5
v 92.89 		-92.995 		5
v 96.634 		-90.218 		5
v 100.088 		-87.088 		5
v 103.218 		-83.634 		5
v 62.498 		-78.3 		5
v 62.644 		-79.228 		5
v 63.071 		-80.065 		5
v 63.735 		-80.729 		5
v 64.572 		-81.156 		5
v 65.5 		-81.303 		5
v 132.95 		-46 		1
v 132.75 		-60.5 		1
v 65.5 		-75.298 		5
v 64.572 		-75.444 		5
v 63.735 		-75.871 		5
v 63.071 		-76.535 		5
v 132.95 		-25.8 		1
v 132.95 		-40.5 		1
v 62.644 		-77.372 		5
v 132.95 		-40.5 		13
v 132.1 		-40.635 		13
v 133.8 		-40.635 		13
v 135.175 		-41.634 		13
v 134.566 		-41.025 		13
v 131.334 		-41.025 		13
v 131.334 		-45.475 		13
v 132.1 		-45.865 		13
v 132.95 		-46 		13
v 133.8 		-45.865 		13
v 134.566 		-45.475 		13
v 135.175 		-44.866 		13
v 130.335 		-44.1 		13
v 130.725 		-44.866 		13
v 130.725 		-41.634 		13
v 130.335 		-42.4 		13
v 130.2 		-43.25 		13
v 29.782 		-83.634 		5
v 32.912 		-87.088 		5
v 36.366 		-90.218 		5
v 40.11 		-92.995 		5
v 44.109 		-95.391 		5
v 48.323 		-97.384 		5
v 52.711 		-98.955 		5
v 57.233 		-100.087 		5
v 61.844 		-100.771 		5
v 95.503 		43.9 		4.798
v 95.503 		33.9 		4.798
v 36 		52.003 		0
v 36 		39.75 		0
v 36 		5 		0
v 118.964 		23.75 		10
v 118.964 		23.75 		9.995
v 28.8947 		38.25 		1
v 28.8947 		39.75 		1
v -70.0539 		19.75 		1
v -70.0539 		18.25 		1
v 114.351 		15.847 		10
v 133.8 		-40.635 		1
v 115.31 		15.999 		10
v 133.8 		-40.635 		0
v 114.351 		22.052 		10
v 115.31 		21.9 		10
v 132.3 		-40.6032 		1
v 116.175 		21.459 		10
v 132.3 		-40.6032 		0
v 116.861 		20.773 		10
v 117.302 		19.908 		10
v 132.1 		-40.635 		0
v 117.453 		18.95 		10
v 133.8 		-45.865 		1
v 117.302 		17.991 		10
v 133.8 		-45.865 		0
v 116.861 		17.126 		10
v 116.175 		16.44 		10
v 134.566 		-45.475 		0
v 135.175 		-44.866 		0
v 135.175 		-41.634 		0
v 134.566 		-41.025 		0
v 131.334 		-41.025 		0
v -70.8947 		39.75 		1
v -70.8947 		38.25 		1
v 131.334 		-45.475 		0
v 117.425 		41.41 		0
v 132.1 		-45.865 		0
v 116.56 		41.851 		0
v 132.3 		-45.8968 		1
v 132.3 		-45.8968 		0
v 120.015 		43.9 		0
v 115.601 		35.798 		0
v 120.015 		33.9 		0
v 130.725 		-41.634 		0
v 64.643 		35.898 		0
v 28.0539 		18.25 		1
v 28.0539 		19.75 		1
v 130.335 		-42.4 		0
v 62.133 		40.824 		0
v 130.2 		-43.25 		0
v 61.692 		39.959 		0
v 61.54 		39 		0
v 130.335 		-44.1 		0
v 61.692 		38.042 		0
v 130.725 		-44.866 		0
v 62.133 		37.177 		0
v 62.819 		36.491 		0
v 133.6144 		20.95 		9.995
v 133.6144 		16.95 		9.995
v 63.684 		36.05 		0
v -31 		-22 		1
v -31 		-23.5 		1
v 65.602 		36.05 		0
v 66.467 		36.491 		0
v 67.153 		37.177 		0
v 67.594 		38.042 		0
v 67.745 		39 		0
v 67.594 		39.959 		0
v 67.153 		40.824 		0
v 133.8 		3 		1
v 132.3 		3 		1
v 132.95 		-20.3 		1
v 133.8 		3 		0
v 132.3 		3 		0
v -41.001 		-83.5 		1
v -41.001 		-82 		1
v 134.6359 		18.3 		1
v 134.6359 		19.8 		1
v -41.001 		-23.5 		1
v -41.001 		-22 		1
v -51.001 		-82 		1
v -51.001 		-83.5 		1
v 134.7784 		38.05 		1
v 134.7784 		39.55 		1
v -51.001 		-22 		1
v -51.001 		-23.5 		1
v 134.6654 		39.55 		0.005
v 134.6654 		40.7 		0.005
v 134.7494 		20.95 		0
v 134.7494 		19.8 		0
v 134.6654 		36.7 		0.005
v 134.6654 		38.05 		0.005
v 65.416 		16.34 		10
v 64.551 		15.899 		10
v 63.592 		15.747 		10
v 62.634 		15.899 		10
v 134.7494 		18.3 		0
v 134.7494 		16.95 		0
v 61.769 		16.34 		10
v -61.001 		-83.5 		1
v -61.001 		-82 		1
v 63.592 		21.952 		10
v 64.551 		21.8 		10
v 65.416 		21.359 		10
v -61.001 		-23.5 		1
v -61.001 		-22 		1
v 61.082 		17.026 		10
v 60.642 		17.891 		10
v 60.49 		18.85 		10
v -71 		-82 		1
v -71 		-83.5 		1
v 60.642 		19.808 		10
v 61.082 		20.673 		10
v 61.769 		21.359 		10
v 62.634 		21.8 		10
v -71 		-22 		1
v -71 		-23.5 		1
v 132.95 		-20.3 		13
v 132.1 		-20.435 		13
v 66.102 		20.673 		10
v 131.334 		-20.825 		13
v 130.725 		-21.434 		13
v 130.335 		-22.2 		13
v 130.2 		-23.05 		13
v 130.335 		-23.9 		13
v 135.175 		-21.434 		13
v 134.566 		-20.825 		13
v 66.543 		19.808 		10
v 133.8 		-20.435 		13
v 66.695 		18.85 		10
v 66.543 		17.891 		10
v 134.566 		-25.275 		13
v 135.175 		-24.666 		13
v 130.725 		-24.666 		13
v 131.334 		-25.275 		13
v 132.1 		-25.665 		13
v 132.95 		-25.8 		13
v 66.102 		17.026 		10
v 133.8 		-25.665 		13
v 84.047 		23.75 		10
v 113.392 		15.999 		10
v 112.527 		16.44 		10
v 111.841 		17.126 		10
v 111.4 		17.991 		10
v 111.248 		18.95 		10
v 111.4 		19.908 		10
v 111.841 		20.773 		10
v 112.527 		21.459 		10
v 113.392 		21.9 		10
v 94.452 		23.75 		10
v 58.964 		23.75 		10
v 34 		18.25 		1
v 34 		19.75 		1
v -79.003 		18.25 		1
v -79.003 		19.75 		1
v 34 		38.25 		1
v 34 		39.75 		1
v -79.003 		38.25 		1
v -79.003 		39.75 		1
v 28.9995 		39.75 		0.003
v 28.9995 		41 		0.003
v -61 		44 		0
v -61 		44 		0.4826
v -70.9995 		41 		0.003
v -70.9995 		39.75 		0.003
v -61 		41 		0.4826
v -61 		41 		0.003
v -61 		39.75 		0.003
v 54.909 		23.75 		9.995
v 58.964 		23.75 		9.995
v 84.047 		23.75 		4.998
v 94.452 		23.75 		4.998
v 44.6856 		16.85 		9.995
v 44.6856 		20.85 		9.995
v 54.909 		16.85 		9.995
v 54.909 		20.85 		9.995
v 135.175 		-21.434 		0
v 134.566 		-20.825 		0
v 133.8 		-20.435 		1
v 133.8 		-20.435 		0
v 132.3 		-20.4032 		1
v 132.3 		-20.4032 		0
v 132.1 		-20.435 		0
v 131.334 		-20.825 		0
v 130.725 		-21.434 		0
v 130.335 		-22.2 		0
v 130.2 		-23.05 		0
v 130.335 		-23.9 		0
v 133.8 		-25.665 		1
v 133.8 		-25.665 		0
v 134.566 		-25.275 		0
v 135.175 		-24.666 		0
v 130.725 		-24.666 		0
v 131.334 		-25.275 		0
v 66.467 		41.51 		0
v 65.602 		41.951 		0
v 64.643 		42.103 		0
v 63.684 		41.951 		0
v 132.1 		-25.665 		0
v 62.819 		41.51 		0
v 132.3 		-25.6968 		1
v 132.3 		-25.6968 		0
v 67.745 		43.9 		0
v 112.499 		38.9 		0
v 132.75 		-60.5 		13
v 131.9 		-60.635 		13
v 131.134 		-61.025 		13
v 131.134 		-65.475 		13
v 134.366 		-65.475 		13
v 134.975 		-64.866 		13
v 135.365 		-64.1 		13
v 135.5 		-63.25 		13
v 135.365 		-62.4 		13
v 134.975 		-61.634 		13
v 134.366 		-61.025 		13
v 133.6 		-60.635 		13
v 60.015 		33.9 		0
v 60.015 		43.9 		0
v 130.525 		-61.634 		13
v 130.135 		-62.4 		13
v 130 		-63.25 		13
v 130.135 		-64.1 		13
v 130.525 		-64.866 		13
v 133.6 		-65.865 		13
v 122 		19.8 		0
v 131.9 		-65.865 		13
v 122 		18.3 		0
v 132.75 		-66 		13
v 121.75 		39.55 		0
v 121.75 		38.05 		0
v 124.6645 		23.75 		0
v 124.6645 		20.95 		0
v 123.614 		16.95 		9.995
v 123.614 		23.75 		9.995
v 123.614 		20.95 		9.995
v 28.9996 		21 		9.998
v 28.9996 		17 		9.998
v 27.949 		41 		9.998
v 27.949 		37 		9.998
v -26.203 		44 		10
v -26.203 		44 		4.998
v -60.001 		44 		10
v -15.798 		44 		4.998
v -15.798 		44 		10
v -71 		-4.9999 		10
v -71 		-99.355 		10
v -70.9996 		17 		9.998
v -70.9996 		21 		9.998
v -8.352 		-59.5275 		10
v -8.352 		-48.7124 		10
v -3.747 		-48.7124 		10
v -3.747 		-59.5275 		10
v 11 		-108.003 		2
v 9 		-108.003 		2
v 9 		3 		2
v 11 		3 		2
v -11 		-99.355 		10
v -1 		-99.355 		10
v -8.152 		-15.4366 		10
v -8.152 		-4.9999 		10
v -11 		-4.9999 		10
v -3.847 		-4.9999 		10
v -3.847 		-15.4366 		10
v -1 		-4.9999 		10
v -28.453 		-59.5275 		10
v -28.453 		-48.7124 		10
v -23.848 		-48.7124 		10
v -23.848 		-59.5275 		10
v -31 		-99.355 		10
v -21 		-99.355 		10
v -28.153 		-15.4366 		10
v -28.153 		-4.9999 		10
v -31 		-4.9999 		10
v -23.848 		-4.9999 		10
v -23.848 		-15.4366 		10
v -21 		-4.9999 		10
v -51.001 		-59.3455 		10
v -48.453 		-59.3455 		10
v -48.453 		-48.5304 		10
v -43.848 		-48.5304 		10
v -43.848 		-59.3455 		10
v -51.001 		-99.355 		10
v -41.001 		-99.355 		10
v -48.153 		-15.4366 		10
v -48.153 		-4.9999 		10
v -51.001 		-4.9999 		10
v -43.848 		-4.9999 		10
v -43.848 		-15.4366 		10
v -41.001 		-4.9999 		10
v 124.6645 		16.95 		0
v 124.6645 		13.75 		0
v 50.5 		19.75 		0
v 50.5 		18.25 		0
v 50.5 		39.75 		0
v -61 		39.75 		0
v 19 		44 		0
v 19 		39.75 		0
v 18.001 		24 		0
v 18.001 		19.75 		0
v -60.001 		24 		0
v 19 		44 		0.4826
v -60.001 		19.75 		0
v 19 		41 		0.4826
v 19 		41 		0.003
v -61 		34 		0
v -61 		38.25 		0
v 19 		34 		0
v 19 		38.25 		0
v 18.001 		18.25 		0
v 18.001 		14 		0
v 19 		39.75 		0.003
v -60.001 		14 		0
v -60.001 		18.25 		0
v 34 		39.75 		0
v -79.003 		19.75 		0
v -79.003 		39.75 		0
v 34 		19.75 		0
v 34 		18.25 		0
v -79.003 		18.25 		0
v 34 		38.25 		0
v -79.003 		38.25 		0
v 28.9995 		37 		0.003
v 28.9995 		38.25 		0.003
v 34 		5 		0
v -69.9491 		21 		0.003
v 34 		52.003 		0
v -69.9491 		19.75 		0.003
v 124 		3 		0
v 122 		3 		0
v 66.5 		3 		0
v 65 		3 		0
v 9 		3 		0
v -79.003 		3 		0
v -79.003 		5 		0
v 18.0013 		21 		0.003
v -79.003 		52.003 		0
v 18.0013 		19.75 		0.003
v -79.003 		-108.003 		0
v 9 		-108.003 		0
v 11 		-108.003 		0
v 65 		-108.003 		0
v 66.5 		-108.003 		0
v -79.003 		-22 		0
v -79.003 		-23.5 		0
v -79.003 		-82 		0
v -79.003 		-83.5 		0
v -60.0013 		21 		0.003
v -60.0013 		19.75 		0.003
v -61 		34 		0.4826
v -70.9995 		38.25 		0.003
v -70.9995 		37 		0.003
v -61 		37 		0.003
v -61 		37 		0.4826
v -61 		38.25 		0.003
v 27.9491 		19.75 		0.003
v 27.9491 		21 		0.003
v 19 		34 		0.4826
v 19 		37 		0.4826
v 19 		37 		0.003
v 19 		38.25 		0.003
v -69.9491 		18.25 		0.003
v -69.9491 		17 		0.003
v 27.9491 		17 		0.003
v 27.9491 		18.25 		0.003
v 18.0013 		17 		0.003
v 18.0013 		18.25 		0.003
v -60.0013 		17 		0.003
v -60.0013 		18.25 		0.003
v 34 		52.003 		2
v 34 		5 		2
v -79.003 		5 		2
v -79.003 		52.003 		3
v 28.6845 		-108.003 		3
v 124.3492 		-108.003 		3
v -79.003 		-108.003 		3
v 66.5 		-108.003 		1
v 65 		-108.003 		1
v -79.003 		-1.365 		3
v -79.003 		3 		2
v -79.003 		-83.5 		1
v -79.003 		-82 		1
v -79.003 		-23.5 		1
v -79.003 		-22 		1
v 143 		-110 		3
v 143 		-110 		0
v 141.003 		-108.003 		3
v 133.8 		-108.003 		0
v 132.3 		-108.003 		0
v 133.25 		-86 		0
v 141.003 		-108.003 		0
v 122 		3 		2
v 122 		-108 		2
v 124 		-108 		2
v 124 		3 		2
v 134.366 		-65.475 		0
v 134.975 		-64.866 		0
v 135.365 		-64.1 		0
v 135.5 		-63.25 		0
v 135.365 		-62.4 		0
v 134.975 		-61.634 		0
v 134.366 		-61.025 		0
v 133.6 		-60.635 		1
v 133.8 		-60.7368 		1
v 133.8 		-60.7368 		0
v 132.3 		-60.5715 		1
v 132.3 		-60.5715 		0
v 124 		-108 		0
v 122 		-108 		0
v 131.9 		-60.635 		0
v 131.134 		-61.025 		0
v 66.5 		-6 		1
v 131.134 		-65.475 		0
v 130.525 		-61.634 		0
v 130.135 		-62.4 		0
v 130 		-63.25 		0
v 130.135 		-64.1 		0
v 130.525 		-64.866 		0
v 133.6 		-65.865 		1
v 132.75 		-66 		1
v 133.8 		-65.7632 		1
v 133.8 		-65.7632 		0
v 131.9 		-65.865 		0
v 132.3 		-65.9285 		1
v 132.3 		-65.9285 		0
v 65.6 		-30.344 		1.893
v 66.528 		-30.197 		1.893
v 67.365 		-29.771 		1.893
v 68.029 		-29.106 		1.893
v 68.456 		-28.269 		1.893
v 68.603 		-27.342 		1.893
v 68.456 		-26.414 		1.893
v 68.029 		-25.577 		1.893
v 67.365 		-24.912 		1.893
v 66.528 		-24.486 		1.893
v 65.6 		-24.339 		1.893
v -26.203 		14 		4.998
v -26.203 		14 		10
v -15.798 		14 		10
v -15.798 		14 		4.998
v -26.203 		24 		10
v -26.203 		24 		4.998
v -15.798 		24 		4.998
v -15.798 		24 		10
v -68.353 		-59.3455 		10
v -68.353 		-48.5304 		10
v -63.747 		-48.5304 		10
v -63.747 		-59.3455 		10
v -61.001 		-99.355 		10
v -68.153 		-15.4366 		10
v -68.153 		-4.9999 		10
v -63.848 		-4.9999 		10
v -63.848 		-15.4366 		10
v -61.001 		-4.9999 		10
v 114 		-53.5 		1
v 113.9508 		-52.5 		1
v 113.9754 		-54 		1
v 87.856 		-53.4 		1.893
v 88.003 		-54.328 		1.893
v 88.429 		-55.165 		1.893
v 89.094 		-55.829 		1.893
v 89.931 		-56.256 		1.893
v -61 		14 		10
v -61 		14 		9.5174
v 90.858 		-56.403 		1.893
v -61 		17 		9.998
v -61 		17 		9.5174
v 91.786 		-56.256 		1.893
v 92.623 		-55.829 		1.893
v -61 		24 		9.5174
v -61 		24 		10
v 93.288 		-55.165 		1.893
v -61 		21 		9.5174
v -61 		21 		9.998
v 93.714 		-54.328 		1.893
v 93.861 		-53.4 		1.893
v -26.203 		34 		4.998
v -26.203 		34 		10
v -60.001 		34 		10
v 90.858 		-50.398 		1.893
v 89.931 		-50.544 		1.893
v -15.798 		34 		10
v -15.798 		34 		4.998
v 89.094 		-50.971 		1.893
v 88.429 		-51.635 		1.893
v 88.003 		-52.472 		1.893
v -69.949 		37 		9.998
v -69.949 		41 		9.998
v -60.0012 		41 		9.998
v 93.714 		-52.472 		1.893
v -60.0012 		37 		9.998
v 93.288 		-51.635 		1.893
v 92.623 		-50.971 		1.893
v 91.786 		-50.544 		1.893
v 18.001 		44 		10
v 18.0012 		41 		9.998
v 27.005 		-27.11 		5
v 24.609 		-31.109 		5
v 22.616 		-35.323 		5
v 21.045 		-39.711 		5
v 19.913 		-44.233 		5
v 19.229 		-48.844 		5
v 19 		-53.5 		5
v 19.229 		-58.156 		5
v 19.913 		-62.767 		5
v 21.045 		-67.289 		5
v 22.616 		-71.677 		5
v 24.609 		-75.891 		5
v 27.005 		-79.89 		5
v 65 		-6.0738 		1
v 62.744 		-28.269 		1.893
v 19 		14 		9.5174
v 62.598 		-27.342 		1.893
v 19 		14 		10
v 58.964 		13.75 		9.995
v 54.909 		13.75 		9.995
v 19 		24 		10
v 19 		24 		9.5174
v 84.047 		13.75 		4.998
v 84.047 		13.75 		10
v 63.171 		-29.106 		1.893
v 94.452 		13.75 		10
v 94.452 		13.75 		4.998
v 63.835 		-29.771 		1.893
v 19 		17 		9.998
v 19 		17 		9.5174
v 64.672 		-30.197 		1.893
v 19 		21 		9.5174
v 19 		21 		9.998
v 58.964 		13.75 		10
v 63.835 		-24.912 		1.893
v 63.171 		-25.577 		1.893
v 62.744 		-26.414 		1.893
v 18.001 		34 		10
v 118.964 		13.75 		9.995
v 118.964 		13.75 		10
v 18.0012 		37 		9.998
v 64.672 		-24.486 		1.893
v 123.614 		13.75 		9.995
v 19 		-53.5 		1
v 19.0246 		-54 		1
v 19.0492 		-52.5 		1
v 132.3 		-108.003 		1
v 133.8 		-108.003 		1
v 133.25 		-86 		1
v 133.25 		-80.5 		0
v 132.75 		-66 		0
v 40.828 		-56.156 		1.893
v 39.9 		-56.303 		1.893
v 133.8 		-80.5874 		0
v 132.4 		-80.635 		0
v 132.3 		-80.6859 		0
v 41.665 		-55.729 		1.893
v 131.025 		-81.634 		0
v 131.634 		-81.025 		0
v 42.329 		-55.065 		1.893
v 134.1 		-80.635 		0
v 134.866 		-81.025 		0
v 135.475 		-81.634 		0
v 133.8 		-85.9126 		0
v 42.756 		-54.228 		1.893
v 132.3 		-85.8141 		0
v 132.4 		-85.865 		0
v 42.903 		-53.3 		1.893
v 131.634 		-85.475 		0
v 131.025 		-84.866 		0
v 130.635 		-84.1 		0
v 130.5 		-83.25 		0
v 130.635 		-82.4 		0
v 135.865 		-82.4 		0
v 136 		-83.25 		0
v 135.865 		-84.1 		0
v 135.475 		-84.866 		0
v 134.866 		-85.475 		0
v 134.1 		-85.865 		0
v 36.898 		-53.3 		1.893
v 133.25 		-80.5 		1
v 37.044 		-54.228 		1.893
v 133.25 		-80.5 		13
v 132.4 		-80.635 		13
v 131.634 		-81.025 		13
v 131.025 		-81.634 		13
v 135.475 		-81.634 		13
v 134.866 		-81.025 		13
v 134.1 		-80.635 		13
v 37.471 		-55.065 		1.893
v 136 		-83.25 		13
v 135.865 		-82.4 		13
v 130.635 		-82.4 		13
v 130.5 		-83.25 		13
v 130.635 		-84.1 		13
v 131.025 		-84.866 		13
v 131.634 		-85.475 		13
v 132.4 		-85.865 		13
v 133.25 		-86 		13
v 134.1 		-85.865 		13
v 134.866 		-85.475 		13
v 135.475 		-84.866 		13
v 135.865 		-84.1 		13
v 38.135 		-55.729 		1.893
v 38.972 		-56.156 		1.893
v 42.756 		-52.372 		1.893
v 42.329 		-51.535 		1.893
v 41.665 		-50.871 		1.893
v 40.828 		-50.444 		1.893
v 39.9 		-50.298 		1.893
v 38.972 		-50.444 		1.893
v 38.135 		-50.871 		1.893
v 37.471 		-51.535 		1.893
v 37.044 		-52.372 		1.893
v 65.536 		-100.9526 		1
v 66.5 		-101 		1
v 133.8 		-80.5874 		1
v 132.4 		-80.635 		1
v 132.3 		-80.6859 		1
v 133.8 		-85.9126 		1
v 132.4 		-85.865 		1
v 132.3 		-85.8141 		1
v 132.95 		-46 		0
v 132.75 		-60.5 		0
v 68.503 		-78.3 		1.893
v 132.95 		-25.8 		0
v 132.95 		-40.5 		0
v 66.428 		-81.156 		1.893
v 67.265 		-80.729 		1.893
v 67.929 		-80.065 		1.893
v 68.356 		-79.228 		1.893
v 132.95 		-20.3 		0
v 68.356 		-77.372 		1.893
v 67.929 		-76.535 		1.893
v 67.265 		-75.871 		1.893
v 66.428 		-75.444 		1.893
v 133.6 		-60.635 		0
v 133.6 		-65.865 		0
v 65 		-100.9262 		1
v 135.7 		-43.25 		13
v 135.565 		-42.4 		13
v 135.565 		-44.1 		13
v 66.5 		-6 		0
v 71.156 		-6.229 		0
v 75.767 		-6.913 		0
v 80.289 		-8.045 		0
v 84.677 		-9.616 		0
v 88.891 		-11.609 		0
v 92.89 		-14.005 		0
v 96.634 		-16.782 		0
v 100.088 		-19.912 		0
v 103.218 		-23.366 		0
v 105.995 		-27.11 		0
v 108.391 		-31.109 		0
v 110.384 		-35.323 		0
v 111.955 		-39.711 		0
v 113.087 		-44.233 		0
v 113.771 		-48.844 		0
v 113.9508 		-52.5 		0
v 66.5 		-52.5 		0
v 66.5 		-54 		0
v 113.9754 		-54 		0
v 113.771 		-58.156 		0
v 113.087 		-62.767 		0
v 111.955 		-67.289 		0
v 110.384 		-71.677 		0
v 108.391 		-75.891 		0
v 105.995 		-79.89 		0
v 103.218 		-83.634 		0
v 100.088 		-87.088 		0
v 96.634 		-90.218 		0
v 92.89 		-92.995 		0
v 88.891 		-95.391 		0
v 84.677 		-97.384 		0
v 80.289 		-98.955 		0
v 75.767 		-100.087 		0
v 71.156 		-100.771 		0
v 66.5 		-101 		0
v 122 		-52.5 		0
v 122 		-54 		0
v 24.609 		-31.109 		0
v 27.005 		-27.11 		0
v 29.782 		-23.366 		0
v 32.912 		-19.912 		0
v 36.366 		-16.782 		0
v 40.11 		-14.005 		0
v 44.109 		-11.609 		0
v 48.323 		-9.616 		0
v 52.711 		-8.045 		0
v 57.233 		-6.913 		0
v 61.844 		-6.229 		0
v 65 		-6.0738 		0
v 19.0492 		-52.5 		0
v 19.229 		-48.844 		0
v 19.913 		-44.233 		0
v 21.045 		-39.711 		0
v 22.616 		-35.323 		0
v 65 		-52.5 		0
v 19.913 		-62.767 		0
v 19.229 		-58.156 		0
v 19.0246 		-54 		0
v 65 		-54 		0
v 62.498 		-78.3 		1.893
v 62.644 		-79.228 		1.893
v 65 		-100.9262 		0
v 61.844 		-100.771 		0
v 57.233 		-100.087 		0
v 52.711 		-98.955 		0
v 48.323 		-97.384 		0
v 44.109 		-95.391 		0
v 40.11 		-92.995 		0
v 36.366 		-90.218 		0
v 32.912 		-87.088 		0
v 29.782 		-83.634 		0
v 27.005 		-79.89 		0
v 24.609 		-75.891 		0
v 22.616 		-71.677 		0
v 21.045 		-67.289 		0
v 63.071 		-80.065 		1.893
v 63.735 		-80.729 		1.893
v -8.152 		-5.8751 		0
v -8.152 		-16.3118 		0
v -11 		-5.8751 		0
v 64.572 		-81.156 		1.893
v -3.847 		-16.3118 		0
v -3.847 		-5.8751 		0
v -1 		-5.8751 		0
v -11 		-22 		0
v -1 		-22 		0
v 65.5 		-81.303 		1.893
v -28.153 		-5.8751 		0
v -28.153 		-16.3118 		0
v -31 		-5.8751 		0
v -23.848 		-16.3118 		0
v -23.848 		-5.8751 		0
v -21 		-5.8751 		0
v -31 		-22 		0
v -21 		-22 		0
v -48.153 		-5.8751 		0
v -48.153 		-16.3118 		0
v -51.001 		-5.8751 		0
v -43.848 		-16.3118 		0
v -43.848 		-5.8751 		0
v -41.001 		-5.8751 		0
v -51.001 		-22 		0
v -41.001 		-22 		0
v -68.153 		-5.8751 		0
v -68.153 		-16.3118 		0
v -71 		-5.8751 		0
v 65.5 		-75.298 		1.893
v -63.848 		-16.3118 		0
v -63.848 		-5.8751 		0
v -61.001 		-5.8751 		0
v -71 		-22 		0
v -61.001 		-22 		0
v -8.352 		-49.6101 		0
v -8.352 		-60.4252 		0
v 64.572 		-75.444 		1.893
v -3.747 		-60.4252 		0
v -3.747 		-49.6101 		0
v -11 		-82 		0
v 63.735 		-75.871 		1.893
v -1 		-82 		0
v -11 		-23.5 		0
v -1 		-23.5 		0
v 63.071 		-76.535 		1.893
v -28.453 		-49.6101 		0
v -28.453 		-60.4252 		0
v -23.848 		-60.4252 		0
v -23.848 		-49.6101 		0
v 62.644 		-77.372 		1.893
v -31 		-82 		0
v -21 		-82 		0
v -31 		-23.5 		0
v -21 		-23.5 		0
v -48.453 		-49.4281 		0
v -48.453 		-60.2432 		0
v -43.848 		-60.2432 		0
v -43.848 		-49.4281 		0
v -51.001 		-82 		0
v -41.001 		-82 		0
v -51.001 		-23.5 		0
v -41.001 		-23.5 		0
v -68.353 		-49.4281 		0
v -68.353 		-60.2432 		0
v -71 		-49.4281 		0
v -63.747 		-60.2432 		0
v -63.747 		-49.4281 		0
v 122 		-52.5 		1
v 122 		-54 		1
v -71 		-82 		0
v -61.001 		-82 		0
v -71 		-23.5 		0
v -61.001 		-23.5 		0
v 9 		-22 		0
v 9 		-23.5 		0
v -1 		-100.2297 		0
v -11 		-100.2297 		0
v -11 		-83.5 		0
v -1 		-83.5 		0
v -21 		-100.2297 		0
v -31 		-100.2297 		0
v -31 		-83.5 		0
v 65 		3 		1
v -21 		-83.5 		0
v 66.5 		3 		1
v -41.001 		-100.2297 		0
v -51.001 		-100.2297 		0
v -51.001 		-83.5 		0
v -41.001 		-83.5 		0
v -61.001 		-100.2297 		0
v -71 		-100.2297 		0
v -71 		-83.5 		0
v -61.001 		-83.5 		0
v 9 		-82 		0
v 9 		-83.5 		0
v 53.8585 		20.85 		0
v 53.8585 		16.85 		0
v 53.8585 		13.75 		0
v 53.8585 		23.75 		0
v 65.416 		16.34 		0
v 64.551 		15.899 		0
v 63.592 		15.747 		0
v 62.634 		15.899 		0
v 61.769 		16.34 		0
v 64.551 		21.8 		0
v 63.592 		21.952 		0
v 65.416 		21.359 		0
v 61.082 		17.026 		0
v 60.642 		17.891 		0
v 60.49 		18.85 		0
v 60.642 		19.808 		0
v 61.082 		20.673 		0
v 61.769 		21.359 		0
v 62.634 		21.8 		0
v 66.102 		20.673 		0
v 66.543 		19.808 		0
v 66.695 		18.85 		0
v 66.543 		17.891 		0
v 66.102 		17.026 		0
v 113.392 		15.999 		0
v 114.351 		15.847 		0
v 112.527 		16.44 		0
v 111.841 		17.126 		0
v 111.4 		17.991 		0
v 111.248 		18.95 		0
v 111.4 		19.908 		0
v 111.841 		20.773 		0
v 112.527 		21.459 		0
v 113.392 		21.9 		0
v 114.351 		22.052 		0
v 111.248 		23.75 		0
v 115.31 		15.999 		0
v 115.31 		21.9 		0
v 116.175 		21.459 		0
v 116.861 		20.773 		0
v 117.302 		19.908 		0
v 117.453 		18.95 		0
v 117.302 		17.991 		0
v 116.861 		17.126 		0
v 116.175 		16.44 		0
v 113.091 		40.724 		0
v 112.651 		39.859 		0
v 112.651 		37.942 		0
v 113.091 		37.077 		0
v 113.778 		36.391 		0
v 114.643 		35.95 		0
v 116.56 		35.95 		0
v 9 		-22 		1
v 9 		-23.5 		1
v 9 		-82 		1
v 9 		-83.5 		1
v 60.015 		43.9 		0.005
v 55.9599 		43.9 		0.005
v 120.015 		43.9 		0.005
v 55.9599 		33.9 		0.005
v 60.015 		33.9 		0.005
v 120.015 		33.9 		0.005
v 55.9599 		40.8 		0.005
v 55.9599 		36.8 		0.005
v 50.5 		39.75 		0.005
v 121.75 		39.55 		0.005
v 121.75 		38.05 		0.005
v 124.664 		43.9 		0.005
v 124.664 		40.7 		0.005
v 124.664 		33.9 		0.005
v 124.664 		36.7 		0.005
v 45.6235 		39.75 		1
v 45.7365 		40.8 		0.005
v 45.7365 		39.75 		0.005
# 1176 vertices

g group_0_14093196

usemtl color_14093196
s 0

f 538 	539 	300
f 299 	300 	539
f 733 	591 	732
f 527 	528 	338
f 763 	760 	638
f 616 	539 	763
f 616 	763 	638
f 815 	816 	528
f 527 	815 	528
f 337 	338 	528
f 591 	589 	590
f 593 	591 	590
f 604 	600 	603
f 601 	603 	600
f 616 	618 	299
f 616 	299 	539
f 589 	626 	590
f 590 	626 	628
f 760 	732 	591
f 589 	591 	733
f 591 	638 	760
f 593 	639 	638
f 593 	638 	591
f 638 	618 	616
f 618 	638 	639
f 527 	338 	647
f 646 	647 	338
f 628 	626 	646
f 647 	646 	626
f 538 	300 	653
f 652 	653 	300
f 654 	655 	337
f 654 	337 	528
f 655 	654 	656
f 528 	816 	654
f 657 	655 	656
f 600 	657 	656
f 600 	656 	601
f 601 	730 	603
f 604 	603 	658
f 754 	658 	603
f 658 	757 	653
f 658 	659 	604
f 653 	652 	659
f 653 	659 	658
f 601 	802 	730
f 727 	603 	730
f 754 	603 	727
f 807 	808 	734
f 734 	808 	733
f 808 	589 	733
f 729 	804 	734
f 816 	802 	656
f 818 	626 	808
f 728 	727 	732
f 728 	732 	731
f 734 	733 	730
f 734 	730 	729
f 730 	733 	732
f 730 	732 	727
f 728 	753 	754
f 728 	754 	727
f 731 	753 	728
f 757 	754 	756
f 754 	753 	756
f 757 	658 	754
f 756 	538 	757
f 653 	757 	538
f 761 	731 	760
f 731 	732 	760
f 763 	764 	760
f 761 	760 	764
f 539 	764 	763
f 753 	731 	761
f 756 	753 	764
f 761 	764 	753
f 539 	538 	756
f 539 	756 	764
f 804 	729 	802
f 729 	730 	802
f 807 	734 	804
f 626 	818 	647
f 819 	527 	818
f 819 	815 	527
f 816 	815 	802
f 804 	802 	815
f 818 	808 	819
f 808 	807 	819
f 804 	819 	807
f 804 	815 	819
f 656 	654 	816
f 527 	647 	818
f 601 	656 	802
f 589 	808 	626
# 94 faces

g group_0_15277357

usemtl color_15277357
s 0

f 1 	2 	3
f 1 	3 	4
f 152 	7 	5
f 8 	7 	152
f 27 	334 	26
f 26 	334 	23
f 677 	675 	34
f 35 	37 	332
f 210 	21 	132
f 51 	15 	151
f 47 	1148 	494
f 148 	151 	13
f 52 	51 	151
f 132 	21 	19
f 151 	132 	20
f 52 	151 	20
f 19 	20 	132
f 11 	10 	149
f 152 	149 	10
f 11 	148 	13
f 55 	56 	57
f 10 	8 	152
f 133 	152 	6
f 5 	6 	152
f 56 	58 	57
f 63 	64 	62
f 61 	62 	64
f 83 	84 	74
f 83 	74 	72
f 80 	79 	141
f 56 	55 	87
f 86 	87 	55
f 85 	81 	144
f 88 	85 	144
f 87 	89 	56
f 58 	56 	89
f 95 	128 	96
f 96 	128 	99
f 64 	98 	83
f 94 	83 	98
f 101 	124 	102
f 105 	92 	86
f 98 	86 	92
f 109 	107 	108
f 124 	115 	113
f 118 	142 	119
f 60 	142 	67
f 60 	119 	142
f 142 	118 	116
f 142 	116 	124
f 115 	124 	116
f 113 	104 	124
f 104 	102 	124
f 99 	128 	101
f 144 	128 	59
f 91 	59 	128
f 59 	88 	144
f 95 	91 	128
f 124 	101 	128
f 140 	141 	79
f 79 	67 	140
f 142 	140 	67
f 215 	134 	133
f 132 	133 	134
f 134 	212 	132
f 1084 	548 	137
f 42 	329 	20
f 677 	34 	39
f 41 	681 	39
f 40 	39 	34
f 40 	34 	49
f 48 	40 	49
f 46 	45 	34
f 45 	49 	34
f 34 	181 	46
f 175 	46 	181
f 177 	49 	45
f 177 	45 	176
f 180 	40 	48
f 180 	48 	179
f 5 	1154 	6
f 1154 	5 	7
f 49 	368 	48
f 375 	46 	175
f 49 	177 	381
f 368 	388 	48
f 13 	35 	11
f 35 	13 	15
f 1148 	21 	210
f 124 	230 	229
f 128 	230 	124
f 255 	330 	256
f 256 	693 	255
f 261 	492 	262
f 480 	261 	262
f 578 	1029 	579
f 579 	1028 	575
f 132 	290 	291
f 132 	291 	133
f 290 	229 	291
f 230 	291 	229
f 92 	105 	292
f 293 	292 	105
f 64 	63 	98
f 63 	87 	98
f 86 	98 	87
f 94 	294 	83
f 84 	83 	294
f 302 	480 	262
f 302 	304 	480
f 42 	332 	329
f 696 	256 	330
f 327 	329 	332
f 494 	332 	44
f 44 	47 	494
f 42 	44 	332
f 696 	330 	697
f 331 	697 	330
f 35 	332 	27
f 37 	327 	332
f 334 	27 	332
f 22 	23 	334
f 508 	1153 	334
f 343 	509 	342
f 1088 	560 	173
f 348 	508 	347
f 336 	508 	351
f 351 	508 	348
f 31 	149 	32
f 375 	31 	374
f 382 	374 	32
f 357 	1150 	356
f 1171 	148 	379
f 358 	495 	357
f 32 	149 	382
f 1 	30 	2
f 491 	119 	340
f 60 	340 	119
f 472 	363 	362
f 361 	362 	363
f 362 	365 	472
f 343 	67 	79
f 367 	574 	366
f 685 	619 	362
f 685 	362 	39
f 364 	41 	361
f 361 	39 	362
f 345 	343 	80
f 39 	361 	41
f 1030 	580 	371
f 88 	351 	85
f 59 	336 	88
f 32 	374 	31
f 379 	31 	375
f 373 	573 	372
f 1094 	573 	373
f 356 	95 	96
f 374 	45 	375
f 46 	375 	45
f 99 	357 	356
f 99 	356 	96
f 49 	369 	368
f 101 	358 	99
f 378 	379 	375
f 578 	1030 	1029
f 1093 	573 	1094
f 104 	360 	102
f 378 	375 	175
f 104 	113 	360
f 486 	360 	113
f 571 	1065 	572
f 1064 	572 	1065
f 486 	113 	115
f 382 	383 	374
f 491 	489 	119
f 1026 	1025 	575
f 521 	176 	383
f 45 	374 	176
f 383 	176 	374
f 1028 	579 	1029
f 49 	381 	369
f 392 	739 	391
f 179 	48 	388
f 1039 	744 	397
f 1098 	537 	402
f 1079 	1072 	408
f 739 	537 	1097
f 443 	444 	338
f 445 	300 	299
f 445 	299 	446
f 338 	337 	443
f 297 	447 	448
f 297 	448 	298
f 449 	325 	324
f 449 	324 	450
f 1071 	1070 	735
f 363 	470 	361
f 470 	471 	364
f 470 	364 	361
f 1071 	735 	738
f 472 	365 	473
f 480 	304 	481
f 493 	309 	307
f 488 	494 	487
f 307 	262 	492
f 509 	491 	340
f 342 	509 	340
f 307 	492 	493
f 489 	509 	488
f 489 	491 	509
f 494 	488 	509
f 355 	356 	1151
f 359 	495 	358
f 360 	495 	359
f 486 	494 	360
f 487 	494 	486
f 494 	495 	360
f 1150 	357 	495
f 1151 	356 	1150
f 336 	354 	508
f 355 	1152 	354
f 1151 	1152 	355
f 508 	509 	343
f 508 	343 	345
f 345 	347 	508
f 175 	521 	520
f 536 	537 	736
f 536 	736 	740
f 548 	540 	541
f 542 	543 	549
f 548 	549 	543
f 548 	543 	540
f 552 	550 	551
f 553 	554 	555
f 555 	554 	542
f 549 	555 	542
f 554 	550 	542
f 541 	542 	550
f 550 	552 	541
f 548 	541 	552
f 560 	556 	557
f 558 	559 	561
f 560 	561 	559
f 560 	559 	556
f 564 	562 	563
f 565 	566 	567
f 567 	566 	558
f 561 	567 	558
f 566 	562 	558
f 557 	558 	562
f 562 	564 	557
f 560 	557 	564
f 568 	569 	570
f 571 	572 	574
f 573 	574 	572
f 573 	572 	569
f 573 	569 	568
f 576 	577 	575
f 568 	570 	577
f 579 	571 	580
f 578 	579 	580
f 574 	580 	571
f 579 	575 	571
f 570 	571 	575
f 575 	577 	570
f 549 	127 	555
f 549 	548 	1084
f 583 	584 	62
f 584 	74 	62
f 63 	62 	74
f 63 	74 	84
f 293 	585 	89
f 293 	89 	87
f 448 	605 	451
f 448 	451 	298
f 607 	450 	456
f 324 	456 	450
f 609 	600 	590
f 608 	609 	590
f 593 	590 	600
f 600 	604 	593
f 606 	593 	604
f 606 	604 	610
f 456 	459 	586
f 456 	586 	607
f 588 	602 	451
f 588 	451 	605
f 611 	599 	588
f 605 	611 	588
f 586 	588 	599
f 599 	597 	586
f 607 	586 	597
f 607 	597 	612
f 609 	608 	63
f 63 	84 	609
f 615 	609 	84
f 294 	615 	84
f 87 	63 	608
f 608 	611 	87
f 293 	87 	611
f 611 	605 	293
f 292 	293 	605
f 292 	605 	617
f 622 	109 	294
f 615 	294 	109
f 109 	623 	615
f 625 	615 	623
f 624 	625 	623
f 621 	622 	294
f 294 	180 	621
f 620 	621 	180
f 365 	619 	180
f 2 	29 	617
f 627 	2 	617
f 629 	630 	3
f 630 	631 	3
f 632 	676 	631
f 633 	676 	632
f 2 	627 	607
f 2 	607 	612
f 2 	612 	606
f 2 	606 	610
f 2 	610 	625
f 2 	625 	624
f 634 	635 	2
f 3 	2 	635
f 636 	3 	635
f 637 	3 	636
f 629 	3 	637
f 624 	634 	2
f 29 	2 	30
f 444 	608 	338
f 299 	618 	606
f 299 	606 	446
f 639 	593 	618
f 606 	618 	593
f 338 	608 	646
f 608 	590 	646
f 628 	646 	590
f 604 	652 	610
f 652 	300 	610
f 445 	610 	300
f 337 	655 	609
f 337 	609 	443
f 600 	609 	655
f 655 	657 	600
f 652 	604 	659
f 614 	611 	447
f 297 	614 	447
f 449 	612 	641
f 449 	641 	325
f 612 	597 	641
f 645 	641 	597
f 614 	651 	599
f 614 	599 	611
f 660 	448 	447
f 661 	660 	444
f 444 	443 	661
f 447 	444 	660
f 660 	617 	448
f 605 	448 	617
f 608 	444 	447
f 608 	447 	611
f 609 	615 	443
f 661 	443 	615
f 180 	294 	40
f 40 	294 	94
f 625 	661 	615
f 661 	625 	662
f 92 	34 	660
f 663 	660 	34
f 34 	92 	181
f 292 	181 	92
f 617 	660 	627
f 663 	627 	660
f 668 	632 	664
f 664 	544 	545
f 664 	545 	666
f 665 	667 	664
f 668 	664 	667
f 679 	633 	665
f 677 	833 	665
f 667 	665 	633
f 544 	664 	631
f 631 	664 	632
f 630 	629 	545
f 666 	545 	629
f 669 	670 	662
f 662 	445 	669
f 637 	671 	629
f 669 	624 	670
f 671 	672 	666
f 673 	669 	672
f 674 	669 	673
f 674 	634 	669
f 666 	672 	669
f 624 	669 	634
f 635 	673 	672
f 635 	672 	636
f 666 	629 	671
f 669 	446 	663
f 449 	663 	446
f 445 	446 	669
f 450 	663 	449
f 607 	627 	450
f 663 	450 	627
f 446 	606 	449
f 612 	449 	606
f 662 	625 	445
f 610 	445 	625
f 677 	665 	675
f 3 	631 	676
f 4 	3 	676
f 4 	676 	675
f 545 	544 	547
f 853 	680 	679
f 678 	679 	680
f 546 	545 	547
f 678 	676 	679
f 681 	676 	678
f 633 	679 	676
f 685 	683 	684
f 661 	98 	660
f 661 	94 	98
f 92 	660 	98
f 40 	94 	682
f 547 	682 	94
f 547 	94 	661
f 683 	685 	682
f 685 	39 	40
f 40 	682 	685
f 694 	314 	693
f 314 	255 	693
f 547 	661 	546
f 694 	695 	316
f 694 	316 	314
f 661 	662 	546
f 670 	546 	662
f 667 	633 	964
f 668 	991 	632
f 111 	112 	631
f 544 	631 	112
f 684 	683 	699
f 698 	684 	699
f 698 	619 	684
f 619 	685 	684
f 710 	867 	709
f 840 	712 	711
f 561 	168 	567
f 561 	560 	1088
f 1018 	1017 	562
f 565 	1021 	566
f 1020 	566 	1021
f 566 	1020 	562
f 1018 	562 	1020
f 370 	574 	367
f 1093 	366 	574
f 574 	370 	580
f 371 	580 	370
f 573 	568 	372
f 1027 	376 	577
f 568 	577 	377
f 376 	377 	577
f 1027 	577 	576
f 578 	580 	1030
f 574 	573 	1093
f 570 	569 	1062
f 1064 	569 	572
f 571 	570 	1062
f 737 	738 	739
f 537 	739 	738
f 537 	738 	735
f 537 	735 	736
f 740 	741 	536
f 743 	737 	744
f 742 	743 	744
f 739 	744 	737
f 743 	740 	737
f 736 	737 	740
f 1097 	391 	739
f 739 	396 	744
f 397 	744 	396
f 742 	744 	1039
f 1098 	1097 	537
f 1074 	738 	737
f 1074 	737 	736
f 1034 	1033 	740
f 1034 	740 	743
f 34 	30 	663
f 1 	663 	30
f 1159 	1160 	142
f 4 	675 	664
f 665 	664 	675
f 664 	666 	4
f 290 	132 	1161
f 229 	494 	124
f 290 	494 	229
f 151 	1161 	132
f 834 	835 	833
f 906 	835 	834
f 834 	678 	906
f 144 	1163 	128
f 677 	681 	834
f 833 	677 	834
f 678 	834 	681
f 665 	833 	679
f 508 	334 	230
f 140 	138 	139
f 140 	139 	141
f 836 	841 	837
f 837 	924 	836
f 81 	80 	144
f 141 	144 	80
f 31 	148 	149
f 715 	837 	841
f 148 	11 	149
f 15 	13 	151
f 842 	715 	841
f 212 	210 	132
f 680 	850 	678
f 679 	852 	853
f 215 	133 	217
f 219 	217 	133
f 219 	133 	220
f 6 	220 	133
f 714 	904 	710
f 867 	903 	709
f 711 	709 	903
f 903 	840 	711
f 714 	905 	904
f 867 	710 	904
f 715 	842 	714
f 905 	714 	842
f 906 	678 	850
f 908 	833 	907
f 835 	907 	833
f 679 	833 	852
f 908 	852 	833
f 681 	41 	676
f 180 	29 	41
f 179 	29 	180
f 177 	29 	179
f 176 	29 	177
f 175 	29 	176
f 181 	29 	175
f 676 	41 	29
f 381 	177 	179
f 516 	381 	518
f 619 	620 	180
f 292 	617 	29
f 316 	923 	909
f 697 	331 	910
f 912 	913 	493
f 304 	913 	912
f 309 	493 	913
f 909 	910 	331
f 364 	918 	365
f 176 	521 	175
f 179 	388 	381
f 388 	518 	381
f 41 	364 	180
f 365 	180 	364
f 181 	292 	29
f 364 	471 	918
f 473 	365 	918
f 912 	481 	304
f 316 	695 	923
f 910 	909 	923
f 840 	836 	924
f 924 	712 	840
f 30 	675 	29
f 676 	29 	675
f 30 	34 	675
f 677 	39 	681
f 4 	669 	1
f 663 	1 	669
f 4 	666 	669
f 991 	964 	632
f 633 	632 	964
f 630 	1102 	631
f 966 	948 	965
f 945 	965 	948
f 948 	947 	945
f 946 	945 	947
f 988 	987 	979
f 984 	988 	979
f 108 	979 	987
f 108 	987 	111
f 946 	947 	988
f 964 	991 	947
f 991 	988 	947
f 988 	984 	946
f 984 	978 	946
f 929 	946 	978
f 978 	622 	929
f 621 	929 	622
f 1007 	1008 	1009
f 1013 	1011 	1012
f 1014 	1009 	1008
f 1011 	1015 	1008
f 1013 	1015 	1011
f 1014 	1008 	1015
f 1023 	1019 	1018
f 1017 	1018 	1019
f 1022 	1020 	1021
f 1023 	1018 	1020
f 1022 	1024 	1020
f 1023 	1020 	1024
f 1025 	1026 	1027
f 1029 	1030 	1028
f 1032 	1028 	1030
f 1031 	1027 	1026
f 1028 	1032 	1026
f 1031 	1026 	1032
f 1040 	1035 	1034
f 1033 	1034 	1035
f 1038 	1039 	1037
f 1041 	1037 	1039
f 1040 	1034 	1037
f 1040 	1037 	1041
f 1042 	1043 	1047
f 1051 	1049 	1046
f 1047 	1043 	1045
f 1045 	1046 	1049
f 1047 	1045 	1049
f 1042 	1050 	1046
f 1047 	1050 	1042
f 1050 	1051 	1046
f 1053 	1054 	1058
f 1061 	1059 	1056
f 1058 	1054 	1055
f 1055 	1056 	1059
f 1058 	1055 	1059
f 1053 	1060 	1056
f 1058 	1060 	1053
f 1060 	1061 	1056
f 1062 	1063 	1066
f 1067 	1064 	1065
f 1067 	1065 	1069
f 1066 	1063 	1064
f 1066 	1064 	1067
f 1062 	1068 	1065
f 1066 	1068 	1062
f 1069 	1065 	1068
f 1070 	1071 	1072
f 1078 	1073 	1074
f 1078 	1074 	1080
f 1075 	745 	1076
f 1077 	1072 	1071
f 1077 	1071 	1073
f 1077 	1073 	1078
f 1075 	746 	745
f 1070 	1079 	1074
f 1072 	1079 	1070
f 1080 	1074 	1079
f 745 	747 	1076
f 112 	831 	830
f 832 	107 	830
f 112 	830 	107
f 1061 	1060 	1023
f 1023 	1024 	1061
f 1050 	1061 	1024
f 1024 	1014 	1050
f 1051 	1050 	1014
f 1014 	1015 	1051
f 1082 	1051 	1015
f 1081 	1082 	1015
f 1032 	1023 	1060
f 1060 	1069 	1032
f 1031 	1032 	1069
f 1069 	1068 	1031
f 1041 	1031 	1068
f 1068 	1080 	1041
f 1040 	1041 	1080
f 1080 	1079 	1040
f 634 	1040 	1079
f 634 	1079 	635
f 1083 	1084 	1085
f 1083 	1085 	1086
f 902 	901 	668
f 667 	902 	668
f 1087 	1088 	1089
f 1087 	1089 	1091
f 702 	1092 	1090
f 1093 	1094 	1095
f 1093 	1095 	1096
f 1097 	1098 	1099
f 1097 	1099 	1100
f 702 	1090 	800
f 1091 	1089 	1058
f 1058 	1059 	1091
f 1085 	1091 	1059
f 1059 	1047 	1085
f 1086 	1085 	1047
f 1047 	1049 	1086
f 1102 	1086 	1049
f 1101 	1102 	1049
f 1067 	1058 	1089
f 1089 	1096 	1067
f 1066 	1067 	1096
f 1096 	1095 	1066
f 1078 	1066 	1095
f 1095 	1100 	1078
f 1077 	1078 	1100
f 1100 	1099 	1077
f 636 	1077 	1099
f 636 	1099 	637
f 925 	668 	901
f 1102 	1101 	631
f 111 	631 	1101
f 108 	111 	1101
f 1101 	1082 	108
f 109 	108 	1082
f 109 	1082 	1081
f 109 	1081 	623
f 699 	966 	698
f 966 	965 	698
f 619 	698 	965
f 619 	965 	620
f 945 	1075 	965
f 1075 	945 	746
f 747 	948 	966
f 747 	966 	1076
f 702 	929 	621
f 702 	621 	1092
f 667 	964 	902
f 832 	108 	107
f 108 	832 	979
f 1149 	494 	1148
f 495 	494 	1149
f 333 	334 	1153
f 1152 	1153 	354
f 508 	354 	1153
f 333 	1154 	334
f 22 	334 	1154
f 112 	111 	987
f 112 	987 	831
f 742 	1038 	743
f 978 	800 	622
f 1090 	622 	800
f 743 	1037 	1034
f 668 	925 	991
f 1155 	129 	127
f 1155 	127 	1156
f 145 	169 	168
f 145 	168 	146
f 544 	112 	107
f 109 	547 	107
f 544 	107 	547
f 352 	371 	370
f 352 	370 	353
f 376 	397 	396
f 376 	396 	377
f 673 	408 	407
f 673 	407 	674
f 1157 	123 	122
f 1157 	122 	1158
f 136 	166 	164
f 136 	164 	137
f 172 	367 	366
f 172 	366 	173
f 372 	392 	391
f 372 	391 	373
f 671 	402 	401
f 671 	401 	672
f 1013 	129 	1015
f 1014 	145 	1009
f 552 	1009 	145
f 567 	169 	1022
f 1022 	169 	1024
f 1023 	352 	1019
f 564 	563 	1019
f 567 	1022 	1021
f 563 	562 	1017
f 1032 	1030 	371
f 376 	1027 	1031
f 1027 	576 	1025
f 576 	575 	1025
f 1026 	575 	1028
f 1041 	1039 	397
f 1040 	407 	1035
f 536 	1035 	407
f 1033 	1035 	741
f 536 	741 	1035
f 742 	1039 	1038
f 741 	740 	1033
f 1037 	743 	1038
f 1155 	1081 	1015
f 1155 	1015 	129
f 145 	1014 	1024
f 145 	1024 	169
f 352 	1023 	1032
f 352 	1032 	371
f 376 	1031 	1041
f 376 	1041 	397
f 407 	1040 	634
f 407 	634 	674
f 549 	123 	127
f 1051 	123 	1049
f 1050 	1047 	136
f 543 	1046 	1045
f 1043 	543 	1045
f 561 	166 	168
f 1061 	166 	1059
f 353 	1060 	172
f 370 	367 	1069
f 1067 	1069 	367
f 372 	568 	1066
f 1066 	568 	1068
f 377 	1068 	568
f 569 	1063 	1062
f 1063 	569 	1064
f 571 	1062 	1065
f 396 	739 	392
f 1080 	396 	1078
f 1078 	396 	392
f 537 	536 	1072
f 1077 	401 	1072
f 537 	1072 	401
f 736 	735 	1070
f 738 	1074 	1073
f 1071 	738 	1073
f 736 	1070 	1074
f 127 	1051 	1082
f 127 	1082 	1156
f 168 	1061 	1050
f 168 	1050 	146
f 370 	1069 	1060
f 370 	1060 	353
f 396 	1080 	1068
f 396 	1068 	377
f 673 	635 	1079
f 673 	1079 	408
f 1157 	1101 	1049
f 1157 	1049 	123
f 136 	1047 	1059
f 136 	1059 	166
f 172 	1058 	1067
f 172 	1067 	367
f 372 	1066 	1078
f 372 	1078 	392
f 401 	1077 	636
f 401 	636 	672
f 549 	1083 	122
f 1086 	122 	1083
f 137 	1085 	1084
f 549 	1084 	1083
f 561 	1087 	164
f 1091 	164 	1087
f 173 	1089 	1088
f 561 	1088 	1087
f 1096 	366 	1093
f 373 	1095 	1094
f 1100 	391 	1097
f 1099 	1098 	402
f 122 	1086 	1102
f 122 	1102 	1158
f 164 	1091 	1085
f 164 	1085 	137
f 366 	1096 	1089
f 366 	1089 	173
f 391 	1100 	1095
f 391 	1095 	373
f 671 	637 	1099
f 671 	1099 	402
f 1081 	1155 	623
f 546 	623 	1155
f 546 	1155 	1156
f 1157 	545 	1156
f 1158 	545 	1157
f 546 	1156 	545
f 1101 	1157 	1156
f 1101 	1156 	1082
f 545 	1158 	630
f 1102 	630 	1158
f 683 	1076 	699
f 1076 	683 	1075
f 966 	699 	1076
f 682 	1075 	683
f 682 	620 	1075
f 965 	1075 	620
f 365 	362 	619
f 621 	620 	1092
f 682 	547 	1092
f 1090 	1092 	547
f 682 	1092 	620
f 622 	1090 	109
f 547 	109 	1090
f 624 	623 	546
f 546 	670 	624
f 1161 	332 	290
f 494 	290 	332
f 509 	1159 	494
f 124 	494 	142
f 1159 	142 	494
f 230 	128 	1163
f 138 	55 	139
f 140 	142 	1165
f 1160 	1165 	142
f 1173 	382 	149
f 1171 	1170 	148
f 212 	1149 	210
f 1148 	210 	1149
f 212 	134 	1149
f 495 	1149 	134
f 215 	1150 	134
f 495 	134 	1150
f 215 	217 	1150
f 219 	1152 	217
f 1153 	1152 	220
f 219 	220 	1152
f 333 	1153 	6
f 333 	6 	1154
f 7 	22 	1154
f 23 	22 	8
f 7 	8 	22
f 10 	26 	8
f 27 	10 	11
f 11 	35 	27
f 15 	37 	35
f 37 	15 	327
f 44 	42 	19
f 44 	19 	21
f 15 	51 	327
f 329 	327 	51
f 329 	51 	52
f 67 	340 	60
f 79 	80 	343
f 345 	80 	81
f 351 	88 	336
f 336 	59 	91
f 1163 	144 	1162
f 291 	1164 	133
f 359 	358 	102
f 334 	1164 	291
f 359 	102 	360
f 291 	230 	334
f 508 	230 	1163
f 139 	57 	141
f 1166 	141 	57
f 487 	486 	115
f 57 	58 	1166
f 1165 	1166 	58
f 1165 	58 	1167
f 116 	488 	115
f 144 	141 	1162
f 1166 	1162 	141
f 1162 	1166 	1163
f 1166 	1165 	1163
f 1159 	1163 	1165
f 1159 	1165 	1160
f 1163 	1159 	509
f 1163 	509 	508
f 1168 	1169 	1164
f 1161 	1168 	1164
f 334 	332 	1164
f 1161 	1164 	332
f 47 	21 	1148
f 408 	1072 	536
f 407 	408 	536
f 401 	402 	537
f 1150 	217 	1151
f 1051 	127 	123
f 1151 	217 	1152
f 122 	123 	549
f 1013 	555 	129
f 220 	6 	1153
f 129 	555 	127
f 1050 	136 	146
f 136 	137 	548
f 548 	146 	136
f 145 	146 	552
f 548 	552 	146
f 23 	8 	26
f 1007 	1009 	551
f 552 	551 	1009
f 10 	27 	26
f 555 	1013 	553
f 1012 	553 	1013
f 1043 	1042 	540
f 541 	540 	1042
f 1046 	543 	542
f 20 	19 	42
f 1043 	540 	543
f 44 	21 	47
f 541 	1042 	542
f 1046 	542 	1042
f 551 	550 	1007
f 1008 	1007 	550
f 1012 	1011 	554
f 1012 	554 	553
f 554 	1011 	550
f 1008 	550 	1011
f 52 	20 	329
f 1061 	168 	166
f 164 	166 	561
f 340 	67 	342
f 169 	567 	168
f 342 	67 	343
f 564 	353 	560
f 1058 	172 	1060
f 172 	173 	560
f 345 	81 	347
f 1019 	352 	564
f 85 	348 	81
f 347 	81 	348
f 172 	560 	353
f 352 	353 	564
f 85 	351 	348
f 1017 	1019 	563
f 1021 	565 	567
f 91 	354 	336
f 354 	91 	95
f 354 	95 	355
f 1054 	1053 	556
f 557 	556 	1053
f 355 	95 	356
f 558 	1056 	559
f 1055 	559 	1056
f 559 	1055 	556
f 1054 	556 	1055
f 357 	99 	358
f 1053 	1056 	557
f 558 	557 	1056
f 101 	102 	358
f 487 	115 	488
f 489 	488 	118
f 116 	118 	488
f 118 	119 	489
f 521 	1169 	1168
f 521 	1168 	520
f 1170 	1171 	1161
f 1169 	1173 	1164
f 1170 	1161 	151
f 31 	379 	148
f 151 	148 	1170
f 379 	378 	1171
f 1168 	1171 	378
f 1168 	1161 	1171
f 1168 	378 	520
f 175 	520 	378
f 152 	133 	1164
f 1172 	152 	1164
f 382 	1173 	383
f 149 	152 	1173
f 1172 	1173 	152
f 1169 	383 	1173
f 1173 	1172 	1164
f 383 	1169 	521
f 585 	1167 	58
f 585 	58 	89
f 55 	138 	1174
f 57 	139 	55
f 1165 	1175 	140
f 83 	72 	61
f 83 	61 	64
f 86 	55 	1174
f 86 	1174 	105
f 1176 	1174 	1175
f 138 	1175 	1174
f 138 	140 	1175
f 1176 	1175 	1167
f 1165 	1167 	1175
f 585 	293 	1176
f 1174 	1176 	293
f 1174 	293 	105
f 1176 	1167 	585
# 1067 faces

g group_0_16089887

usemtl color_16089887
s 0

f 12 	131 	14
f 14 	130 	16
f 70 	71 	33
f 38 	77 	43
f 50 	43 	78
f 78 	54 	50
f 28 	18 	68
f 18 	125 	68
f 16 	125 	18
f 66 	68 	126
f 68 	69 	28
f 69 	70 	28
f 33 	28 	70
f 71 	73 	33
f 36 	33 	73
f 73 	75 	36
f 38 	36 	75
f 77 	38 	75
f 78 	43 	77
f 126 	153 	66
f 126 	68 	125
f 257 	234 	93
f 114 	238 	117
f 158 	82 	150
f 131 	12 	135
f 160 	154 	121
f 150 	147 	157
f 65 	66 	153
f 157 	158 	150
f 125 	16 	130
f 9 	135 	12
f 156 	157 	147
f 154 	155 	121
f 120 	160 	121
f 143 	121 	155
f 155 	156 	143
f 147 	143 	156
f 153 	150 	82
f 82 	65 	153
f 160 	120 	159
f 120 	117 	159
f 235 	236 	110
f 106 	235 	110
f 100 	97 	232
f 114 	110 	236
f 97 	93 	233
f 197 	257 	93
f 182 	203 	135
f 9 	182 	135
f 130 	14 	131
f 93 	90 	197
f 174 	171 	187
f 161 	189 	163
f 165 	163 	182
f 170 	178 	184
f 184 	185 	170
f 171 	170 	185
f 54 	183 	50
f 183 	184 	178
f 178 	50 	183
f 182 	9 	167
f 167 	165 	182
f 185 	186 	171
f 186 	187 	171
f 187 	188 	174
f 162 	174 	188
f 188 	189 	162
f 161 	162 	189
f 182 	163 	189
f 182 	189 	190
f 182 	190 	191
f 182 	191 	787
f 195 	259 	196
f 200 	796 	201
f 207 	420 	205
f 787 	788 	213
f 223 	207 	205
f 214 	213 	789
f 216 	791 	218
f 788 	789 	213
f 211 	787 	213
f 209 	787 	211
f 208 	221 	205
f 222 	205 	221
f 787 	209 	182
f 209 	206 	182
f 206 	204 	182
f 204 	203 	182
f 90 	135 	197
f 203 	197 	135
f 196 	258 	197
f 234 	233 	93
f 205 	222 	223
f 194 	260 	195
f 281 	263 	192
f 193 	281 	192
f 202 	799 	193
f 192 	263 	194
f 257 	197 	258
f 201 	797 	202
f 199 	795 	200
f 198 	794 	199
f 218 	792 	198
f 796 	797 	201
f 225 	254 	240
f 225 	241 	226
f 226 	242 	227
f 248 	106 	247
f 103 	100 	231
f 231 	247 	103
f 224 	247 	231
f 228 	245 	224
f 106 	103 	247
f 237 	114 	236
f 238 	114 	237
f 159 	117 	238
f 241 	225 	240
f 242 	226 	241
f 243 	227 	242
f 244 	227 	243
f 245 	228 	244
f 246 	224 	245
f 247 	224 	246
f 235 	106 	248
f 227 	244 	228
f 249 	263 	282
f 252 	288 	253
f 254 	253 	289
f 239 	240 	254
f 259 	195 	260
f 264 	265 	266
f 258 	196 	259
f 232 	231 	100
f 233 	232 	97
f 266 	265 	268
f 267 	268 	265
f 267 	265 	269
f 269 	278 	267
f 270 	927 	277
f 271 	927 	270
f 272 	927 	271
f 273 	927 	272
f 274 	927 	273
f 275 	927 	274
f 239 	254 	289
f 277 	927 	276
f 278 	279 	267
f 279 	280 	267
f 276 	267 	280
f 284 	285 	250
f 251 	250 	285
f 285 	286 	251
f 252 	251 	286
f 287 	252 	286
f 288 	252 	287
f 289 	253 	288
f 283 	284 	250
f 250 	249 	283
f 282 	283 	249
f 260 	194 	263
f 281 	282 	263
f 798 	202 	797
f 319 	275 	274
f 262 	264 	302
f 312 	269 	265
f 273 	314 	274
f 321 	322 	267
f 302 	266 	268
f 271 	330 	272
f 278 	269 	335
f 297 	298 	529
f 278 	335 	279
f 339 	279 	335
f 339 	280 	279
f 280 	341 	276
f 277 	276 	346
f 344 	346 	276
f 277 	346 	270
f 266 	302 	264
f 312 	265 	307
f 262 	307 	264
f 265 	264 	307
f 307 	309 	312
f 314 	273 	255
f 272 	255 	273
f 319 	274 	314
f 316 	319 	314
f 319 	320 	275
f 321 	267 	25
f 268 	267 	322
f 322 	304 	302
f 302 	268 	322
f 312 	323 	269
f 777 	778 	324
f 325 	777 	324
f 323 	335 	269
f 270 	326 	271
f 328 	271 	326
f 255 	272 	330
f 271 	328 	330
f 331 	330 	328
f 280 	339 	341
f 344 	276 	341
f 270 	346 	326
f 413 	414 	208
f 424 	208 	414
f 412 	413 	208
f 415 	424 	414
f 416 	424 	415
f 410 	412 	208
f 409 	410 	208
f 205 	420 	208
f 417 	418 	207
f 420 	207 	418
f 409 	208 	420
f 416 	425 	424
f 423 	424 	425
f 423 	425 	426
f 423 	426 	427
f 428 	430 	427
f 423 	427 	430
f 208 	424 	483
f 468 	417 	207
f 418 	417 	468
f 930 	702 	78
f 529 	298 	452
f 451 	452 	298
f 456 	324 	455
f 458 	455 	457
f 458 	459 	456
f 458 	456 	455
f 483 	424 	423
f 221 	208 	483
f 207 	223 	468
f 409 	472 	410
f 410 	474 	412
f 475 	412 	474
f 412 	475 	413
f 476 	413 	475
f 476 	414 	413
f 479 	416 	415
f 479 	425 	416
f 480 	430 	428
f 430 	480 	423
f 482 	423 	480
f 423 	482 	483
f 485 	426 	425
f 426 	485 	427
f 490 	492 	427
f 418 	468 	469
f 469 	470 	418
f 420 	418 	470
f 469 	471 	470
f 420 	470 	409
f 363 	409 	470
f 474 	410 	472
f 409 	363 	472
f 472 	473 	474
f 414 	476 	477
f 414 	477 	415
f 478 	415 	477
f 415 	478 	479
f 428 	261 	480
f 481 	482 	480
f 484 	425 	479
f 484 	485 	425
f 490 	427 	485
f 261 	428 	492
f 428 	427 	492
f 493 	492 	490
f 498 	513 	497
f 514 	499 	497
f 496 	497 	517
f 517 	519 	496
f 496 	500 	501
f 496 	501 	502
f 503 	507 	502
f 504 	507 	503
f 505 	506 	504
f 507 	504 	506
f 496 	502 	507
f 498 	510 	511
f 498 	511 	512
f 498 	512 	513
f 514 	497 	513
f 499 	517 	497
f 500 	496 	515
f 515 	496 	519
f 687 	688 	501
f 691 	506 	505
f 531 	532 	533
f 535 	785 	534
f 709 	711 	515
f 534 	453 	532
f 687 	501 	500
f 502 	501 	688
f 688 	503 	502
f 691 	505 	504
f 507 	693 	496
f 497 	496 	696
f 498 	497 	701
f 510 	498 	701
f 499 	703 	517
f 701 	704 	510
f 510 	704 	511
f 705 	511 	704
f 790 	982 	981
f 705 	706 	511
f 707 	513 	512
f 707 	708 	514
f 707 	514 	513
f 499 	514 	703
f 709 	515 	710
f 519 	710 	515
f 827 	649 	530
f 613 	530 	649
f 716 	167 	9
f 12 	716 	9
f 14 	718 	12
f 14 	16 	718
f 719 	718 	16
f 18 	720 	16
f 38 	724 	36
f 43 	725 	38
f 457 	454 	458
f 454 	453 	458
f 453 	587 	586
f 586 	459 	458
f 586 	458 	453
f 586 	587 	588
f 455 	778 	457
f 43 	50 	726
f 457 	779 	454
f 453 	534 	587
f 454 	532 	453
f 592 	587 	534
f 592 	594 	595
f 592 	595 	587
f 596 	599 	598
f 596 	597 	599
f 452 	595 	594
f 594 	529 	452
f 595 	602 	588
f 595 	588 	587
f 452 	451 	602
f 452 	602 	595
f 613 	614 	297
f 93 	749 	748
f 596 	598 	773
f 648 	773 	598
f 596 	767 	640
f 325 	641 	642
f 325 	642 	777
f 642 	643 	644
f 641 	645 	643
f 641 	643 	642
f 640 	644 	643
f 597 	596 	643
f 640 	643 	596
f 597 	643 	645
f 769 	781 	640
f 933 	932 	73
f 598 	650 	648
f 649 	648 	650
f 827 	648 	649
f 68 	66 	938
f 613 	649 	650
f 66 	65 	938
f 599 	651 	650
f 599 	650 	598
f 650 	651 	614
f 650 	614 	613
f 12 	717 	716
f 717 	12 	718
f 719 	16 	720
f 93 	748 	90
f 720 	18 	28
f 720 	28 	721
f 749 	93 	97
f 722 	721 	33
f 28 	33 	721
f 752 	100 	103
f 36 	723 	33
f 114 	759 	110
f 117 	762 	759
f 117 	759 	114
f 724 	38 	725
f 762 	117 	120
f 43 	726 	725
f 941 	940 	158
f 125 	771 	126
f 157 	942 	158
f 771 	125 	774
f 130 	774 	125
f 774 	130 	131
f 944 	156 	155
f 745 	746 	154
f 154 	746 	155
f 160 	747 	154
f 766 	121 	143
f 745 	154 	747
f 782 	143 	147
f 782 	147 	150
f 135 	90 	748
f 969 	968 	191
f 97 	750 	749
f 100 	751 	97
f 750 	97 	751
f 751 	100 	752
f 752 	103 	106
f 758 	106 	110
f 110 	759 	758
f 54 	800 	183
f 120 	765 	762
f 765 	120 	121
f 765 	121 	766
f 126 	771 	770
f 814 	165 	167
f 775 	774 	131
f 135 	775 	131
f 726 	50 	178
f 783 	782 	150
f 150 	153 	783
f 784 	783 	153
f 811 	161 	163
f 811 	163 	814
f 165 	814 	163
f 784 	153 	770
f 126 	770 	153
f 969 	191 	190
f 971 	190 	189
f 974 	187 	186
f 974 	186 	185
f 814 	167 	817
f 500 	515 	711
f 517 	714 	519
f 500 	711 	686
f 686 	687 	500
f 503 	688 	689
f 504 	503 	690
f 689 	690 	503
f 690 	691 	504
f 506 	691 	692
f 506 	694 	507
f 693 	507 	694
f 692 	694 	506
f 692 	695 	694
f 256 	496 	693
f 700 	497 	696
f 256 	696 	496
f 696 	697 	700
f 497 	700 	701
f 192 	838 	193
f 838 	192 	194
f 929 	702 	930
f 196 	851 	195
f 512 	511 	706
f 931 	930 	77
f 197 	851 	196
f 512 	706 	707
f 78 	77 	930
f 703 	514 	708
f 75 	932 	77
f 77 	932 	931
f 75 	73 	932
f 712 	686 	711
f 200 	876 	199
f 201 	876 	200
f 517 	703 	713
f 933 	73 	71
f 202 	891 	201
f 710 	519 	714
f 713 	714 	517
f 891 	202 	193
f 715 	714 	713
f 935 	71 	70
f 70 	69 	935
f 936 	935 	69
f 209 	895 	206
f 936 	69 	68
f 211 	895 	209
f 65 	939 	938
f 939 	65 	940
f 722 	33 	723
f 36 	724 	723
f 718 	719 	717
f 716 	717 	719
f 716 	719 	720
f 716 	720 	721
f 716 	721 	722
f 716 	722 	723
f 716 	723 	724
f 716 	724 	725
f 822 	823 	725
f 822 	725 	726
f 82 	158 	940
f 941 	158 	942
f 943 	942 	156
f 157 	156 	942
f 156 	944 	943
f 944 	155 	746
f 919 	224 	231
f 949 	948 	747
f 160 	949 	747
f 949 	160 	950
f 159 	950 	160
f 159 	238 	950
f 919 	231 	232
f 921 	232 	233
f 921 	233 	234
f 755 	752 	106
f 755 	106 	758
f 766 	143 	780
f 767 	768 	769
f 769 	640 	767
f 773 	767 	596
f 769 	768 	533
f 768 	531 	533
f 775 	135 	776
f 455 	324 	778
f 776 	135 	748
f 781 	779 	777
f 778 	777 	779
f 779 	457 	778
f 777 	642 	644
f 781 	777 	644
f 780 	143 	782
f 644 	640 	781
f 533 	781 	769
f 533 	779 	781
f 454 	779 	533
f 768 	767 	532
f 768 	532 	531
f 535 	534 	773
f 535 	773 	772
f 532 	767 	773
f 532 	773 	534
f 785 	592 	534
f 772 	785 	535
f 225 	914 	254
f 785 	786 	592
f 594 	592 	786
f 529 	594 	786
f 750 	751 	749
f 748 	749 	751
f 748 	751 	752
f 748 	752 	755
f 748 	755 	758
f 748 	758 	759
f 748 	759 	762
f 748 	762 	765
f 748 	765 	766
f 748 	766 	780
f 791 	216 	790
f 792 	218 	791
f 216 	214 	790
f 793 	198 	792
f 789 	790 	214
f 794 	198 	793
f 795 	199 	794
f 796 	200 	795
f 782 	783 	780
f 780 	783 	784
f 780 	784 	770
f 780 	770 	771
f 780 	771 	774
f 780 	774 	775
f 780 	775 	776
f 780 	776 	748
f 798 	799 	202
f 281 	193 	799
f 967 	788 	968
f 787 	968 	788
f 787 	191 	968
f 190 	970 	969
f 971 	970 	190
f 971 	189 	188
f 252 	1006 	251
f 1006 	252 	253
f 791 	981 	792
f 981 	791 	790
f 184 	976 	185
f 257 	1036 	234
f 184 	183 	976
f 1036 	257 	258
f 1001 	799 	798
f 977 	183 	800
f 259 	1048 	258
f 702 	800 	54
f 1048 	259 	260
f 263 	1057 	260
f 249 	989 	263
f 801 	803 	161
f 162 	161 	803
f 801 	161 	811
f 772 	773 	824
f 648 	824 	773
f 824 	785 	772
f 823 	174 	803
f 785 	824 	827
f 648 	827 	824
f 726 	178 	828
f 827 	786 	785
f 529 	827 	530
f 786 	827 	529
f 822 	828 	821
f 803 	725 	823
f 801 	725 	803
f 811 	725 	801
f 814 	725 	811
f 817 	725 	814
f 716 	725 	817
f 822 	726 	828
f 795 	985 	796
f 986 	985 	794
f 795 	794 	985
f 830 	831 	793
f 794 	793 	831
f 794 	831 	986
f 792 	980 	832
f 830 	793 	832
f 793 	792 	832
f 792 	981 	980
f 982 	790 	789
f 844 	845 	842
f 841 	836 	842
f 844 	842 	836
f 844 	836 	840
f 844 	840 	847
f 844 	847 	848
f 844 	848 	849
f 852 	855 	849
f 857 	849 	856
f 855 	856 	849
f 849 	860 	852
f 858 	849 	857
f 859 	849 	858
f 844 	849 	859
f 853 	852 	860
f 680 	853 	860
f 861 	865 	860
f 862 	865 	861
f 863 	864 	862
f 865 	862 	864
f 865 	850 	860
f 680 	860 	850
f 872 	873 	871
f 870 	871 	873
f 869 	870 	873
f 874 	875 	873
f 869 	873 	875
f 873 	872 	878
f 872 	879 	878
f 877 	878 	879
f 877 	879 	880
f 877 	880 	881
f 877 	881 	882
f 877 	882 	883
f 877 	883 	884
f 877 	884 	885
f 877 	885 	886
f 887 	889 	886
f 888 	889 	887
f 877 	886 	889
f 863 	862 	888
f 848 	874 	873
f 848 	875 	874
f 875 	903 	869
f 904 	870 	867
f 869 	867 	870
f 904 	905 	870
f 844 	872 	871
f 844 	859 	872
f 835 	906 	885
f 863 	888 	887
f 889 	888 	862
f 889 	862 	877
f 877 	861 	878
f 873 	878 	860
f 879 	872 	859
f 859 	880 	879
f 880 	858 	881
f 843 	846 	866
f 900 	866 	846
f 851 	898 	846
f 854 	898 	851
f 838 	843 	866
f 839 	838 	866
f 839 	866 	868
f 839 	868 	876
f 839 	876 	890
f 839 	890 	891
f 882 	881 	856
f 857 	856 	881
f 856 	883 	882
f 855 	908 	883
f 835 	885 	884
f 854 	892 	893
f 854 	893 	894
f 854 	894 	895
f 854 	895 	896
f 854 	896 	897
f 854 	897 	898
f 899 	846 	898
f 900 	846 	899
f 849 	848 	873
f 875 	848 	847
f 867 	869 	903
f 847 	903 	875
f 847 	840 	903
f 871 	870 	905
f 905 	842 	845
f 905 	845 	871
f 845 	844 	871
f 886 	885 	906
f 865 	886 	906
f 865 	906 	850
f 887 	886 	864
f 865 	864 	886
f 864 	863 	887
f 877 	862 	861
f 860 	878 	861
f 873 	860 	849
f 880 	859 	858
f 857 	881 	858
f 954 	235 	248
f 883 	856 	855
f 907 	884 	908
f 884 	883 	908
f 852 	908 	855
f 907 	835 	884
f 17 	316 	24
f 25 	24 	316
f 221 	484 	222
f 223 	222 	484
f 483 	484 	221
f 909 	331 	309
f 304 	909 	913
f 309 	913 	909
f 326 	323 	328
f 323 	312 	328
f 331 	328 	312
f 312 	309 	331
f 909 	304 	322
f 909 	322 	321
f 909 	321 	25
f 316 	909 	25
f 320 	319 	17
f 316 	17 	319
f 326 	346 	344
f 326 	344 	341
f 326 	341 	339
f 326 	339 	335
f 326 	335 	323
f 478 	477 	479
f 484 	479 	477
f 484 	477 	476
f 484 	476 	475
f 484 	475 	474
f 484 	474 	473
f 484 	473 	918
f 484 	918 	471
f 484 	471 	469
f 484 	469 	468
f 484 	468 	223
f 484 	483 	485
f 490 	485 	483
f 493 	490 	483
f 912 	493 	483
f 482 	481 	483
f 912 	483 	481
f 917 	911 	916
f 911 	919 	916
f 919 	920 	916
f 704 	701 	708
f 700 	703 	701
f 708 	701 	703
f 703 	700 	697
f 703 	697 	910
f 703 	910 	923
f 703 	923 	695
f 703 	695 	692
f 703 	692 	691
f 703 	691 	690
f 703 	690 	689
f 703 	689 	688
f 703 	688 	687
f 703 	687 	686
f 706 	705 	707
f 708 	707 	705
f 708 	705 	704
f 713 	703 	715
f 703 	712 	715
f 686 	712 	703
f 712 	924 	715
f 837 	715 	924
f 915 	916 	920
f 920 	921 	915
f 914 	915 	921
f 914 	921 	922
f 925 	901 	239
f 902 	239 	901
f 267 	276 	927
f 275 	928 	927
f 926 	927 	928
f 275 	320 	928
f 17 	928 	320
f 928 	17 	926
f 24 	926 	17
f 25 	927 	926
f 25 	926 	24
f 25 	267 	927
f 931 	946 	930
f 932 	946 	931
f 933 	946 	932
f 934 	946 	933
f 935 	946 	934
f 936 	946 	935
f 937 	946 	936
f 938 	946 	937
f 939 	946 	938
f 940 	946 	939
f 941 	946 	940
f 942 	946 	941
f 943 	946 	942
f 944 	946 	943
f 945 	946 	944
f 929 	930 	946
f 947 	948 	949
f 947 	949 	950
f 950 	951 	947
f 798 	1002 	1001
f 951 	952 	947
f 952 	953 	947
f 953 	954 	947
f 954 	955 	947
f 955 	956 	947
f 956 	957 	947
f 957 	958 	947
f 958 	959 	947
f 959 	960 	947
f 960 	961 	947
f 961 	962 	947
f 962 	963 	947
f 964 	947 	963
f 797 	1003 	1002
f 797 	1002 	798
f 797 	796 	1003
f 1004 	1003 	796
f 969 	984 	968
f 970 	984 	969
f 971 	984 	970
f 972 	984 	971
f 973 	984 	972
f 974 	984 	973
f 975 	984 	974
f 976 	984 	975
f 978 	984 	977
f 977 	984 	976
f 981 	982 	984
f 982 	983 	984
f 983 	967 	984
f 967 	968 	984
f 980 	981 	984
f 979 	980 	984
f 986 	988 	985
f 987 	988 	986
f 993 	988 	992
f 994 	988 	993
f 995 	988 	994
f 996 	988 	995
f 997 	988 	996
f 998 	988 	997
f 999 	988 	998
f 1000 	988 	999
f 1001 	988 	1000
f 1002 	988 	1001
f 1003 	988 	1002
f 1004 	988 	1003
f 985 	988 	1004
f 991 	992 	988
f 1016 	1010 	254
f 1016 	254 	914
f 817 	167 	716
f 178 	170 	828
f 170 	171 	821
f 822 	821 	171
f 171 	174 	822
f 823 	822 	174
f 914 	989 	990
f 914 	990 	1005
f 914 	1005 	1006
f 1010 	1016 	1006
f 914 	1006 	1016
f 162 	803 	174
f 1048 	914 	1044
f 1052 	914 	1048
f 1036 	1044 	914
f 1057 	914 	1052
f 989 	914 	1057
f 922 	1036 	914
f 821 	828 	170
f 193 	838 	839
f 194 	843 	838
f 195 	846 	194
f 843 	194 	846
f 195 	851 	846
f 54 	78 	702
f 197 	854 	851
f 197 	203 	854
f 71 	934 	933
f 198 	866 	218
f 935 	934 	71
f 199 	868 	198
f 866 	198 	868
f 68 	937 	936
f 68 	938 	937
f 199 	876 	868
f 82 	940 	65
f 201 	890 	876
f 201 	891 	890
f 193 	839 	891
f 944 	746 	945
f 892 	854 	203
f 204 	893 	203
f 892 	203 	893
f 894 	893 	206
f 204 	206 	893
f 951 	950 	238
f 206 	895 	894
f 238 	952 	951
f 896 	895 	211
f 211 	213 	896
f 897 	896 	213
f 248 	955 	954
f 248 	956 	955
f 213 	214 	897
f 898 	897 	214
f 214 	216 	898
f 899 	898 	216
f 216 	218 	899
f 900 	899 	218
f 959 	243 	960
f 243 	961 	960
f 900 	218 	866
f 962 	240 	963
f 964 	963 	902
f 239 	902 	240
f 952 	238 	237
f 952 	237 	953
f 236 	953 	237
f 236 	235 	953
f 954 	953 	235
f 188 	972 	971
f 187 	973 	972
f 187 	972 	188
f 974 	973 	187
f 956 	248 	247
f 185 	975 	974
f 247 	246 	957
f 247 	957 	956
f 976 	975 	185
f 183 	977 	976
f 957 	246 	958
f 245 	958 	246
f 977 	800 	978
f 980 	979 	832
f 959 	958 	244
f 245 	244 	958
f 959 	244 	243
f 789 	983 	982
f 789 	788 	983
f 788 	967 	983
f 961 	243 	242
f 961 	242 	962
f 241 	962 	242
f 241 	240 	962
f 986 	831 	987
f 963 	240 	902
f 991 	925 	992
f 224 	919 	911
f 996 	284 	997
f 284 	998 	997
f 915 	914 	226
f 225 	226 	914
f 915 	226 	227
f 915 	227 	916
f 799 	1001 	1000
f 228 	917 	227
f 916 	227 	917
f 911 	917 	224
f 228 	224 	917
f 1004 	796 	985
f 232 	920 	919
f 920 	232 	921
f 922 	921 	234
f 1036 	922 	234
f 925 	239 	289
f 925 	289 	992
f 993 	992 	288
f 289 	288 	992
f 288 	287 	994
f 288 	994 	993
f 994 	287 	995
f 286 	995 	287
f 996 	995 	285
f 286 	285 	995
f 996 	285 	284
f 998 	284 	283
f 998 	283 	999
f 282 	999 	283
f 1000 	999 	281
f 282 	281 	999
f 281 	799 	1000
f 250 	990 	249
f 989 	249 	990
f 251 	1005 	250
f 990 	250 	1005
f 1005 	251 	1006
f 253 	1010 	1006
f 254 	1010 	253
f 258 	1044 	1036
f 258 	1048 	1044
f 260 	1052 	1048
f 260 	1057 	1052
f 1057 	263 	989
f 529 	530 	297
f 613 	297 	530
f 533 	532 	454
# 1029 faces

g group_0_16768282

usemtl color_16768282
s 0

f 72 	74 	76
f 826 	296 	295
f 524 	526 	296
f 350 	581 	389
f 369 	349 	368
f 350 	389 	368
f 380 	349 	369
f 350 	368 	349
f 380 	369 	381
f 385 	810 	384
f 388 	368 	389
f 398 	820 	390
f 820 	398 	399
f 442 	820 	400
f 405 	442 	404
f 406 	442 	405
f 431 	442 	393
f 419 	431 	411
f 421 	431 	419
f 384 	810 	429
f 394 	431 	393
f 395 	411 	431
f 394 	395 	431
f 406 	393 	442
f 422 	810 	421
f 429 	810 	422
f 385 	386 	810
f 432 	433 	812
f 434 	812 	433
f 435 	812 	434
f 441 	812 	436
f 438 	441 	437
f 439 	441 	438
f 440 	441 	439
f 436 	437 	441
f 435 	436 	812
f 820 	810 	386
f 387 	820 	386
f 390 	820 	387
f 431 	421 	810
f 826 	301 	812
f 403 	442 	400
f 404 	442 	403
f 399 	400 	820
f 301 	826 	303
f 305 	441 	440
f 308 	295 	306
f 311 	295 	310
f 313 	295 	311
f 308 	310 	295
f 306 	295 	305
f 295 	441 	305
f 826 	313 	315
f 317 	826 	315
f 318 	826 	317
f 295 	313 	826
f 318 	303 	826
f 432 	812 	301
f 295 	296 	441
f 463 	1138 	462
f 462 	461 	431
f 465 	464 	466
f 465 	466 	467
f 466 	461 	467
f 460 	467 	461
f 1141 	308 	306
f 308 	1141 	310
f 315 	1145 	1146
f 1111 	398 	390
f 582 	1145 	518
f 518 	1144 	516
f 522 	523 	516
f 315 	1146 	317
f 318 	317 	1147
f 1146 	1147 	317
f 318 	1147 	303
f 296 	825 	524
f 525 	296 	526
f 380 	523 	349
f 349 	526 	350
f 524 	350 	526
f 1107 	384 	429
f 1107 	1108 	384
f 387 	1110 	1111
f 387 	1111 	390
f 399 	1117 	400
f 403 	400 	1117
f 411 	395 	1122
f 411 	1122 	419
f 419 	1123 	421
f 1124 	422 	421
f 441 	463 	812
f 1128 	1127 	301
f 432 	1127 	433
f 1131 	435 	434
f 436 	435 	1132
f 1131 	1132 	435
f 436 	1132 	437
f 1133 	437 	1132
f 1133 	438 	437
f 582 	518 	581
f 388 	581 	518
f 62 	53 	583
f 74 	584 	76
f 1104 	76 	584
f 820 	805 	810
f 809 	810 	805
f 806 	805 	466
f 461 	466 	805
f 805 	820 	461
f 442 	461 	820
f 431 	810 	462
f 809 	462 	810
f 463 	813 	812
f 463 	462 	813
f 809 	813 	462
f 826 	812 	825
f 812 	813 	825
f 296 	826 	825
f 829 	524 	825
f 380 	381 	523
f 516 	523 	381
f 388 	389 	581
f 1104 	584 	1103
f 584 	583 	1103
f 53 	1103 	583
f 1106 	1118 	1103
f 1131 	1130 	1125
f 1110 	1105 	1111
f 1115 	1105 	1116
f 1106 	1119 	1118
f 1120 	1119 	1106
f 1121 	1120 	1106
f 1125 	1124 	1131
f 1114 	1138 	1122
f 1138 	1114 	1112
f 1138 	1112 	1113
f 1121 	1106 	1113
f 1138 	1113 	1106
f 1129 	1127 	1107
f 1107 	1126 	1129
f 1126 	1125 	1130
f 1134 	1138 	1135
f 1137 	1136 	1138
f 1108 	1107 	1127
f 1136 	1135 	1138
f 1130 	1129 	1126
f 1105 	1109 	1127
f 1133 	1132 	1124
f 1132 	1131 	1124
f 1134 	1133 	1124
f 1138 	1134 	1124
f 1138 	1124 	1123
f 1123 	1122 	1138
f 1105 	1110 	1109
f 1108 	1127 	1109
f 582 	1105 	1128
f 1104 	1103 	1117
f 1117 	1103 	1118
f 1117 	1116 	1104
f 1105 	1104 	1116
f 1111 	1105 	1115
f 1147 	582 	1139
f 1142 	516 	1143
f 1147 	1146 	582
f 522 	1142 	1141
f 1140 	1137 	522
f 1141 	1140 	522
f 1138 	522 	1137
f 1146 	1145 	582
f 1144 	518 	1145
f 1143 	516 	1144
f 1142 	522 	516
f 1127 	1128 	1105
f 1128 	1139 	582
f 806 	1105 	805
f 1138 	1106 	462
f 463 	441 	1138
f 442 	431 	461
f 53 	61 	465
f 76 	1104 	464
f 467 	1103 	465
f 1106 	467 	460
f 385 	384 	1108
f 1109 	386 	1108
f 385 	1108 	386
f 1109 	1110 	386
f 394 	393 	1112
f 394 	1112 	395
f 395 	1114 	1122
f 1116 	399 	398
f 1117 	1118 	403
f 403 	1118 	404
f 405 	404 	1120
f 1121 	406 	1120
f 419 	1122 	1123
f 1124 	421 	1123
f 1125 	422 	1124
f 422 	1125 	429
f 429 	1126 	1107
f 432 	301 	1127
f 434 	433 	1130
f 1129 	1130 	433
f 434 	1130 	1131
f 522 	1138 	296
f 303 	1139 	301
f 1128 	301 	1139
f 1137 	1140 	305
f 310 	1141 	1142
f 311 	310 	1143
f 1142 	1143 	310
f 582 	813 	1105
f 809 	805 	1105
f 1144 	313 	1143
f 311 	1143 	313
f 1144 	1145 	313
f 460 	461 	1106
f 441 	296 	1138
f 461 	462 	1106
f 303 	1147 	1139
f 466 	1104 	1105
f 466 	1105 	806
f 467 	1106 	1103
f 387 	386 	1110
f 393 	1113 	1112
f 1114 	395 	1112
f 398 	1111 	1115
f 1116 	398 	1115
f 399 	1116 	1117
f 1119 	404 	1118
f 1120 	404 	1119
f 405 	1120 	406
f 1121 	1113 	406
f 393 	406 	1113
f 1125 	1126 	429
f 433 	1127 	1129
f 1134 	438 	1133
f 438 	1134 	439
f 1135 	439 	1134
f 439 	1135 	440
f 1136 	440 	1135
f 1137 	305 	1136
f 440 	1136 	305
f 825 	813 	582
f 809 	1105 	813
f 306 	305 	1140
f 1141 	306 	1140
f 315 	313 	1145
f 582 	581 	829
f 524 	581 	350
f 522 	525 	526
f 526 	349 	523
f 522 	296 	525
f 522 	526 	523
f 829 	825 	582
f 524 	829 	581
f 72 	465 	61
f 76 	464 	72
f 464 	465 	72
f 466 	464 	1104
f 53 	465 	1103
f 53 	62 	61
# 262 faces

 #end of obj_0

