# Object Export From Tinkercad Server 2015

mtllib obj.mtl

o obj_0
v 33.003 		69.002 		10
v 33.003 		69.002 		0
v 33.002 		69.002 		10
v 23.002 		69.002 		0
v 33.002 		71.002 		10
v 31 		71.002 		7.998
v 33.002 		69.998 		10
v 31 		69.998 		7.998
v 33.003 		64.897 		0
v 33.003 		64.897 		10
v 23 		64.897 		10
v 23 		64.897 		0
v 33.002 		84 		10
v 35 		84 		1
v 36 		84 		1
v 35 		84 		0
v 23.002 		84 		0
v 36 		84 		0
v 35 		106 		1
v 35 		96 		1
v 36 		96 		1
v 36 		106 		1
v 35 		106 		0
v 35 		96 		0
v 36 		96 		0
v 36 		106 		0
v 23 		96 		10
v 23 		96 		0
v 23 		94 		1
v -20.003 		94 		1
v -20.003 		93 		1
v 23 		93 		1
v -20.003 		93 		0
v 23 		93 		0
v 23 		94 		0
v -20.003 		94 		0
v 23 		92.103 		10
v 23 		92.103 		0
v 33.002 		85.998 		10
v 31 		85.998 		7.998
v 33.002 		87.998 		10
v 31 		87.003 		7.998
v 33.002 		87.003 		10
v 23.002 		87.998 		0
v 33.003 		87.998 		0
v 33.003 		87.998 		10
v 33.003 		92.103 		10
v 33.003 		92.103 		0
v 42.935 		52 		4.998
v 45.998 		52 		4.998
v 45.998 		52 		0
v 42.935 		52 		10
v -12.999 		52 		10
v 36 		52 		1
v 35 		52 		1
v -12.999 		52 		0
v 35 		52 		0
v 36 		52 		0
v -22 		31 		0
v -22 		31 		2
v 45.998 		32.998 		2
v -20.003 		32.998 		2
v 36 		32.998 		1
v 35 		32.998 		1
v 35 		32.998 		0
v 36 		32.998 		0
v -20.003 		32.998 		0
v -20.003 		48 		1
v -20.003 		47 		1
v -20.003 		47 		0
v -20.003 		48 		0
v 42.998 		47 		5
v 45.998 		48.3125 		4.998
v 42.998 		47 		4.998
v 45.998 		45.6875 		4.998
v 42.935 		44.2594 		4.998
v 45.998 		44.2594 		4.998
v 45.998 		42.1892 		0
v 42.935 		46.3312 		10
v -12.999 		48 		1
v -12.999 		47 		1
v -12.999 		47 		0
v -12.999 		48 		0
v -12.999 		46.3312 		10
v -12.999 		42.1892 		0
v 36 		42.6034 		1
v 35 		42.6034 		1
v 35 		42.1892 		0
v 36 		42.1892 		0
v -4.998 		106 		10
v -4.998 		106 		0
v 117.998 		106 		10
v 97 		106 		1
v 98 		106 		1
v 97 		106 		0
v 117.998 		106 		0
v 98 		106 		0
v -20.003 		111 		1
v -15 		111 		1
v -15 		112 		1
v -20.003 		112 		1
v -20.003 		111 		0
v -15 		111 		0
v -15 		112 		0
v -20.003 		112 		0
v -15 		113.998 		10
v -15 		110.003 		10
v -15 		110.003 		0
v -15 		113.998 		0
v 128 		111 		1
v 134.003 		111 		1
v 134.003 		112 		1
v 128 		112 		1
v 128 		111 		0
v 134.003 		111 		0
v 134.003 		112 		0
v 128 		112 		0
v 128 		113.998 		10
v 128 		110.003 		10
v 128 		110.003 		0
v 128 		113.998 		0
v 117.998 		110.003 		10
v 117.998 		110.003 		0
v 120.0008 		116.003 		7.998
v 120.0008 		114.998 		7.998
v 117.999 		116.003 		10
v 117.999 		118 		10
v 117.999 		113.998 		10
v 117.999 		114.998 		10
v 127.998 		113.998 		0
v 127.998 		118 		0
v -4.998 		110.003 		0
v -4.998 		110.003 		10
v -7.0008 		114.998 		7.998
v -7.0008 		116.003 		7.998
v -4.999 		116.003 		10
v -4.999 		118 		10
v -4.999 		114.998 		10
v -4.999 		113.998 		10
v -14.998 		118 		0
v -14.998 		113.998 		0
v 102.0688 		114.998 		10
v 36 		128 		0
v 36 		118 		0
v 35 		118 		0
v 35 		128 		0
v 98 		128 		0
v 98 		118 		0
v 97 		118 		0
v 97 		128 		0
v 35 		140 		0
v 35 		147.003 		0
v 36 		147.003 		0
v 36 		140 		0
v 97 		140 		0
v 97 		147.003 		0
v 98 		147.003 		0
v 98 		140 		0
v 134.003 		147.003 		0
v -20.003 		147.003 		0
v -22 		149 		0
v 136 		149 		0
v -20.003 		135 		0
v -15 		135 		0
v -15 		134 		0
v -20.003 		134 		0
v 128 		135 		0
v 134.003 		135 		0
v 134.003 		134 		0
v 128 		134 		0
v 127.998 		132.003 		0
v 127.998 		128 		0
v 117.998 		135.998 		0
v 128 		135.998 		0
v 128 		132.003 		0
v -14.998 		128 		0
v -14.998 		132.003 		0
v -15 		135.998 		0
v -4.998 		135.998 		0
v -15 		132.003 		0
v -4.998 		140 		0
v 117.998 		140 		0
v 98 		84 		0
v 98 		73 		0
v 97 		73 		0
v 97 		84 		0
v 64.464 		41.883 		0
v 61.7783 		46.0987 		0
v 127.0105 		47 		0
v 127.981 		44.657 		0
v 127.796 		44.58 		0
v 126.7936 		47 		0
v 97 		32.998 		0
v 97 		47 		0
v 98 		47 		0
v 98 		32.998 		0
v 61.7297 		51.998 		0
v 61.6747 		51.963 		0
v 80.3415 		51.998 		0
v 126.3794 		48 		0
v 125.5 		50.123 		0
v 125.685 		50.2 		0
v 126.5963 		48 		0
v 98 		61 		0
v 98 		48 		0
v 97 		48 		0
v 97 		61 		0
v 64.362 		47.745 		0
v 93.003 		47 		0
v 93.003 		48 		0
v 134.003 		48 		0
v 134.003 		47 		0
v 134.003 		32.998 		0
v 136 		31 		0
v 128 		63 		0
v 134.003 		63 		0
v 134.003 		62 		0
v 128 		62 		0
v 117.998 		69.002 		0
v 127.998 		73 		0
v 127.998 		69.002 		0
v 70.2253 		70.903 		0
v 70.155 		70.903 		0
v 117.998 		64.897 		0
v 70.155 		65.9 		0
v 67.091 		65.9 		0
v 85.769 		61 		0
v 128 		64.897 		0
v 128 		61 		0
v 67.091 		61 		0
v 98 		96 		0
v 97 		96 		0
v 128 		94 		0
v 134.003 		94 		0
v 134.003 		93 		0
v 128 		93 		0
v 117.998 		87.998 		0
v 127.998 		87.998 		0
v 127.998 		84 		0
v 117.998 		92.103 		0
v 128 		96 		0
v 128 		92.103 		0
v 50.998 		43.5 		0
v 50.998 		50.5 		0
v 45.998 		45.6875 		0
v 45.998 		48.3125 		0
v 36 		73 		0
v 35 		73 		0
v 36 		61 		0
v 35 		61 		0
v -20.003 		63 		0
v 23 		63 		0
v 23 		62 		0
v -20.003 		62 		0
v 23.002 		73 		0
v 23 		61 		0
v 119.19 		42.129 		10.1
v 119.19 		47.129 		10.1
v 126.9292 		47.129 		10.1
v 124.1787 		47.132 		10.1
v 124.1787 		47.129 		10.1
v 124.0013 		47.129 		10.1
v 124.0013 		47.132 		10.1
v 124.9124 		51.998 		10.1
v 64.19 		51.998 		10.1
v 64.19 		51.998 		10
v 64.19 		48.015 		10
v 64.19 		42.2454 		10.1
v 64.2642 		42.129 		10.1
v 64.3073 		42.129 		10
v 64.19 		42.3131 		10
v 64.8501 		42.129 		10
v 64.19 		47.6354 		10
v 117.999 		128 		10
v 117.999 		129.998 		10
v 117.999 		131.003 		10
v 117.999 		132.003 		10
v 63.4694 		41.267 		6.8244
v 64.19 		42.129 		6.3559
v 60.4422 		39.3381 		8.3946
v 64.3073 		42.129 		6.3127
v 64.19 		42.3131 		6.3127
v 60.4454 		39.3224 		8.3971
v 64.464 		41.883 		6.3126
v 64.8508 		42.129 		6.1121
v 64.8501 		42.129 		6.1124
v 62.0831 		43.4523 		6.8223
v 57.8379 		43.4154 		8.3973
v 57.8448 		43.4155 		8.3947
v 63.4567 		43.4642 		6.3127
v 61.7783 		46.0987 		6.3126
v 64.19 		47.6354 		5.0615
v 64.19 		47.6368 		5.0612
v 60.7928 		45.4722 		6.8235
v 57.764 		43.5423 		8.3947
v 57.7591 		43.5392 		8.3973
v 57.7591 		43.5392 		5
v 59.4887 		40.8349 		8.3113
v 60.4422 		39.3381 		8.3113
v 60.2653 		45.1361 		7.0826
v 57.764 		43.5423 		8.3113
v 85.769 		61 		10
v 128 		61 		10
v 67.091 		61 		6.2148
v 67.091 		61 		9.902
v 67.397 		61 		9.902
v 67.397 		61 		10
v 62.091 		61 		8.402
v 128 		64.897 		10
v 117.998 		69.002 		10
v 117.999 		69.002 		10
v 117.999 		71.002 		10
v 120.0008 		71.002 		7.998
v 117.999 		73 		10
v 120.0008 		69.998 		7.998
v 117.999 		69.998 		10
v 72.2963 		69.5836 		10
v 72.2963 		69.5836 		9.902
v 71.6458 		69.998 		9.902
v 71.6458 		69.998 		7.998
v 70.2253 		70.903 		7.998
v 70.155 		69.998 		7.998
v 70.155 		69.998 		9.902
v 70.155 		70.903 		7.998
v 67.091 		69.998 		10
v 71.8873 		69.998 		10
v 117.998 		64.897 		10
v 69.9495 		65.9 		9.902
v 70.155 		66.2226 		9.902
v 67.091 		65.9 		9.902
v 67.091 		65.9 		6.2148
v 62.091 		65.903 		8.402
v 67.091 		61.4134 		9.902
v 66.992 		61.258 		6.2581
v 67.091 		61.4134 		6.2148
v 66.992 		61.258 		10
v 67.091 		61.1949 		6.2148
v 67.091 		61.1949 		9.902
v 117.999 		84 		10
v 128 		96 		10
v 128 		92.103 		10
v 117.998 		87.998 		10
v 117.999 		87.998 		10
v 120.0008 		85.998 		7.998
v 117.999 		85.998 		10
v 117.999 		87.003 		10
v 120.0008 		87.003 		7.998
v 117.998 		92.103 		10
v 127.9573 		44.6471 		5
v 127.981 		44.657 		5
v 125.685 		50.2 		5
v 125.6612 		50.1901 		5
v 48.7675 		44.4759 		5
v 50.998 		44.4759 		5
v 50.998 		50.5 		5
v 134.003 		73 		2
v 98 		73 		1
v 98 		84 		1
v 97 		84 		1
v 97 		73 		1
v 136 		31 		2
v 64.8508 		42.129 		3.8879
v 127.692 		42.129 		2.097
v 120.487 		42.129 		2.097
v 127.692 		44.7611 		2.097
v 128 		132.003 		10
v 128 		135.998 		10
v 117.998 		135.998 		10
v -4.999 		129.998 		10
v -4.999 		128 		10
v -4.999 		132.003 		10
v -4.999 		131.003 		10
v -4.998 		135.998 		10
v -15 		135.998 		10
v -15 		132.003 		10
v -4.998 		140 		10
v 117.998 		140 		10
v 61.6747 		51.963 		10
v 61.7297 		51.998 		10
v 64.464 		41.883 		10
v 126.7099 		47.132 		4.3341
v 126.7099 		47.132 		2.097
v 61.7783 		46.0987 		10
v 120.487 		47.132 		2.097
v 63.4943 		41.2648 		3.1843
v 136 		149 		2
v 36 		140 		1
v 36 		147.003 		1
v 35 		147.003 		1
v 35 		140 		1
v 98 		140 		1
v 98 		147.003 		1
v 97 		147.003 		1
v 97 		140 		1
v -20.003 		147.003 		2
v 134.003 		147.003 		2
v 64.19 		47.6368 		4.9388
v -20.003 		128 		2
v -20.003 		134 		1
v -15 		134 		1
v -15 		135 		1
v -20.003 		135 		1
v 128 		134 		1
v 134.003 		134 		1
v 134.003 		135 		1
v 128 		135 		1
v 120.0008 		131.003 		7.998
v 120.0008 		129.998 		7.998
v 57.7804 		43.5057 		1.6027
v 57.7591 		43.5392 		1.6027
v -7.0008 		129.998 		7.998
v -7.0008 		131.003 		7.998
v 60.4454 		39.3224 		1.6869
v 57.7804 		43.5057 		1.6869
v 64.19 		42.129 		3.6441
v 64.19 		42.129 		3.6196
v 64.2525 		42.129 		3.6415
v 64.3073 		42.129 		3.6874
v 64.19 		42.2272 		3.6415
v 64.19 		42.3131 		3.6874
v 36 		118 		1
v 35 		118 		1
v 64.464 		41.883 		3.6873
v 61.7783 		46.0987 		3.6874
v 62.7851 		44.5184 		3.6875
v 98 		118 		1
v 97 		118 		1
v 64.8501 		42.129 		3.8876
v 64.19 		47.6354 		4.9385
v 62.1984 		43.288 		3.1818
v 61.7412 		44.0067 		3.182
v 60.8265 		45.4462 		3.1828
v 119.19 		42.129 		7.1
v 119.19 		47.129 		7.1
v 125.4957 		47.129 		7.1
v 125.4957 		42.129 		7.1
v 129.0004 		42.129 		7.1
v 126.9292 		47.129 		7.1
v 122.6839 		42.129 		7.1
v 122.6839 		47.129 		7.1
v 134.003 		32.998 		2
v 128 		62 		1
v 134.003 		62 		1
v 134.003 		63 		1
v 128 		63 		1
v 64.2642 		42.129 		6.3549
v 64.19 		42.129 		6.3808
v 64.19 		42.2454 		6.3549
v 69.9514 		65.903 		4.8405
v 69.9495 		65.9 		4.8396
v 69.9495 		65.9 		0.002
v 69.9495 		65.9 		4.9644
v 69.9514 		65.903 		4.9635
v 70.155 		66.2226 		0.002
v 67.091 		65.9 		3.5892
v 60.954 		39.6464 		1.9367
v 97 		42.129 		1
v 97 		32.998 		1
v 98 		32.998 		1
v 98 		42.129 		1
v 97 		61 		1
v 98 		61 		1
v 97 		51.998 		1
v 98 		51.998 		1
v 134.003 		48 		1
v 134.003 		47 		1
v 126.5963 		48 		1
v 127.0105 		47 		1
v 97 		42.129 		0.1
v 93.003 		47 		0.1
v 97 		47 		0.1
v 64.2525 		42.129 		0.1
v 64.3073 		42.129 		0.1
v 64.19 		42.2272 		0.1
v 64.19 		42.3131 		0.1
v 64.8501 		42.129 		0.1
v 98 		42.129 		0.1
v 119.19 		42.129 		0.1
v 119.19 		42.129 		0.102
v 129.0004 		42.129 		0.102
v 98 		47 		0.1
v 119.19 		47 		0.1
v 119.19 		47 		0.102
v 127.796 		44.58 		0.102
v 126.7936 		47 		0.102
v 127.9573 		44.6471 		0.102
v 62.091 		65.903 		1.402
v 33.002 		73 		10
v 23 		61 		10
v 35 		128 		1
v 36 		128 		1
v 97 		128 		1
v 98 		128 		1
v 70.155 		65.9 		0.002
v 67.091 		61.4134 		0.002
v 67.091 		61.4134 		3.5892
v 66.992 		61.258 		3.5459
v 66.992 		61.258 		0.002
v 67.091 		61.1949 		3.5892
v 67.091 		61.1949 		0.002
v 67.091 		61 		3.5892
v 62.091 		61 		1.402
v -22 		149 		2
v 97 		51.998 		0.1
v 97 		48 		0.1
v 93.003 		48 		0.1
v 64.19 		48.015 		0.1
v 134.003 		96 		2
v 97 		96 		1
v 98 		96 		1
v 128 		93 		1
v 134.003 		93 		1
v 134.003 		94 		1
v 128 		94 		1
v 50.998 		43.5 		2.6471
v -20.003 		73 		2
v 36 		73 		1
v 35 		73 		1
v 36 		61 		1
v 35 		61 		1
v 23 		63 		1
v -20.003 		63 		1
v -20.003 		62 		1
v 23 		62 		1
v 80.3415 		51.998 		0.1
v 98 		51.998 		0.1
v 119.19 		51.998 		0.1
v 119.19 		48 		0.1
v 98 		48 		0.1
v 119.19 		51.998 		0.102
v 119.19 		48 		0.102
v 126.3794 		48 		0.102
v 125.5 		50.123 		0.102
v 125.6612 		50.1901 		0.102
v 124.9124 		51.998 		0.102
v 64.362 		47.745 		0.1
v 64.19 		47.6354 		0.1
# 537 vertices

g group_0_4634441

usemtl color_4634441
s 0

f 49 	51 	54
f 58 	54 	51
f 49 	54 	52
f 50 	51 	49
f 55 	52 	54
f 56 	53 	55
f 53 	52 	55
f 56 	55 	57
f 72 	73 	74
f 74 	75 	72
f 50 	49 	73
f 74 	73 	49
f 76 	77 	75
f 76 	75 	74
f 76 	74 	49
f 78 	77 	76
f 52 	79 	49
f 49 	79 	76
f 53 	80 	84
f 56 	80 	53
f 84 	80 	81
f 82 	85 	81
f 84 	81 	85
f 83 	80 	56
f 79 	84 	87
f 79 	87 	86
f 78 	76 	86
f 76 	79 	86
f 84 	85 	87
f 88 	87 	85
f 78 	86 	89
f 208 	187 	188
f 189 	190 	191
f 189 	191 	192
f 200 	201 	202
f 200 	202 	203
f 198 	197 	208
f 197 	199 	208
f 187 	208 	199
f 245 	244 	243
f 244 	245 	246
f 245 	89 	246
f 51 	246 	58
f 78 	89 	245
f 58 	246 	89
f 58 	89 	88
f 85 	82 	88
f 83 	57 	82
f 82 	57 	88
f 56 	57 	83
f 58 	88 	57
f 263 	264 	258
f 260 	261 	259
f 262 	263 	258
f 264 	263 	260
f 264 	260 	259
f 257 	434 	258
f 434 	440 	258
f 381 	435 	260
f 381 	260 	263
f 265 	266 	267
f 448 	446 	268
f 265 	268 	258
f 269 	257 	258
f 265 	258 	264
f 269 	258 	268
f 272 	269 	270
f 265 	273 	268
f 271 	268 	273
f 278 	284 	279
f 279 	282 	278
f 279 	284 	281
f 283 	284 	278
f 280 	283 	278
f 283 	285 	284
f 286 	284 	285
f 290 	287 	278
f 283 	280 	288
f 289 	288 	280
f 282 	290 	278
f 290 	291 	287
f 296 	288 	295
f 289 	295 	288
f 294 	287 	291
f 292 	293 	291
f 294 	291 	293
f 288 	297 	283
f 296 	297 	288
f 298 	299 	278
f 278 	287 	298
f 280 	299 	298
f 278 	299 	280
f 300 	298 	287
f 294 	300 	287
f 301 	298 	300
f 295 	289 	301
f 298 	301 	289
f 280 	298 	289
f 349 	350 	352
f 351 	352 	350
f 354 	355 	353
f 72 	353 	355
f 439 	433 	364
f 364 	479 	363
f 381 	365 	436
f 437 	480 	349
f 365 	382 	364
f 363 	365 	364
f 266 	379 	267
f 378 	267 	379
f 380 	272 	270
f 382 	365 	381
f 273 	383 	271
f 363 	436 	365
f 384 	364 	382
f 382 	381 	384
f 350 	468 	351
f 362 	285 	385
f 385 	285 	283
f 413 	456 	283
f 294 	410 	297
f 410 	409 	414
f 415 	416 	417
f 415 	417 	418
f 415 	419 	416
f 415 	420 	419
f 419 	417 	416
f 424 	188 	425
f 397 	507 	429
f 432 	424 	431
f 430 	431 	425
f 409 	410 	432
f 410 	424 	432
f 425 	431 	424
f 410 	397 	424
f 429 	424 	397
f 269 	272 	257
f 433 	434 	257
f 437 	438 	436
f 435 	436 	438
f 434 	433 	439
f 434 	439 	440
f 362 	457 	285
f 272 	457 	257
f 363 	437 	436
f 385 	430 	415
f 457 	460 	257
f 428 	476 	362
f 435 	381 	436
f 418 	423 	415
f 385 	415 	423
f 385 	423 	362
f 438 	437 	349
f 439 	364 	440
f 384 	440 	364
f 415 	430 	420
f 261 	435 	259
f 438 	259 	435
f 362 	423 	428
f 262 	258 	440
f 261 	260 	435
f 420 	430 	425
f 349 	352 	438
f 263 	440 	384
f 262 	440 	263
f 381 	263 	384
f 413 	297 	414
f 259 	438 	264
f 352 	264 	438
f 410 	414 	297
f 413 	283 	297
f 397 	293 	507
f 267 	507 	293
f 273 	267 	292
f 385 	456 	430
f 507 	267 	378
f 456 	414 	431
f 264 	463 	265
f 431 	430 	456
f 294 	297 	300
f 295 	301 	296
f 297 	296 	301
f 301 	300 	297
f 293 	397 	294
f 410 	294 	397
f 281 	270 	446
f 448 	268 	271
f 447 	279 	446
f 279 	281 	446
f 269 	446 	270
f 447 	448 	279
f 271 	282 	448
f 279 	448 	282
f 446 	448 	447
f 269 	268 	446
f 284 	380 	281
f 270 	281 	380
f 290 	271 	383
f 291 	290 	383
f 282 	271 	290
f 286 	285 	272
f 285 	457 	272
f 464 	463 	264
f 284 	286 	272
f 284 	272 	380
f 265 	267 	273
f 293 	292 	267
f 291 	273 	292
f 383 	273 	291
f 413 	414 	456
f 432 	431 	414
f 414 	409 	432
f 471 	469 	470
f 475 	473 	474
f 472 	474 	473
f 418 	473 	423
f 187 	475 	188
f 473 	475 	187
f 457 	476 	469
f 187 	476 	423
f 428 	423 	476
f 188 	424 	537
f 429 	537 	424
f 477 	478 	479
f 477 	479 	460
f 477 	481 	482
f 477 	482 	478
f 479 	478 	482
f 479 	482 	483
f 191 	484 	485
f 191 	485 	192
f 364 	433 	460
f 480 	363 	479
f 484 	191 	486
f 191 	190 	486
f 266 	265 	525
f 484 	479 	485
f 480 	479 	484
f 483 	485 	479
f 480 	484 	486
f 189 	468 	190
f 433 	257 	460
f 437 	363 	480
f 460 	479 	364
f 190 	468 	350
f 190 	350 	486
f 349 	486 	350
f 480 	486 	349
f 463 	525 	265
f 351 	468 	467
f 352 	351 	534
f 534 	535 	352
f 535 	530 	264
f 385 	283 	456
f 198 	378 	379
f 378 	198 	507
f 266 	525 	197
f 418 	417 	473
f 472 	473 	417
f 420 	475 	419
f 474 	419 	475
f 417 	419 	472
f 474 	472 	419
f 187 	423 	473
f 475 	425 	188
f 420 	425 	475
f 457 	362 	476
f 84 	79 	52
f 84 	52 	53
f 505 	506 	504
f 525 	504 	506
f 506 	470 	525
f 525 	463 	504
f 198 	379 	197
f 243 	244 	515
f 515 	244 	354
f 355 	354 	244
f 246 	73 	244
f 355 	244 	73
f 355 	73 	72
f 75 	245 	353
f 353 	245 	515
f 243 	515 	245
f 72 	75 	353
f 354 	353 	515
f 246 	50 	73
f 51 	50 	246
f 75 	77 	245
f 78 	245 	77
f 469 	476 	470
f 199 	197 	525
f 379 	266 	197
f 526 	527 	528
f 526 	528 	529
f 526 	464 	530
f 526 	530 	527
f 531 	528 	527
f 531 	527 	530
f 200 	532 	533
f 200 	533 	201
f 533 	534 	201
f 202 	201 	534
f 530 	535 	531
f 532 	531 	533
f 534 	533 	535
f 533 	531 	535
f 351 	467 	202
f 203 	202 	467
f 351 	202 	534
f 264 	352 	535
f 464 	264 	530
f 525 	470 	476
f 537 	507 	536
f 429 	507 	537
f 198 	208 	507
f 187 	199 	476
f 525 	476 	199
f 536 	208 	537
f 188 	537 	208
f 536 	507 	208
# 320 faces

g group_0_15277357

usemtl color_15277357
s 0

f 9 	1 	2
f 1 	3 	2
f 4 	2 	3
f 9 	10 	1
f 9 	11 	10
f 12 	11 	9
f 17 	14 	13
f 15 	13 	14
f 14 	17 	16
f 19 	20 	21
f 19 	21 	22
f 19 	23 	24
f 19 	24 	20
f 21 	25 	26
f 21 	26 	22
f 28 	27 	20
f 28 	20 	24
f 29 	30 	31
f 29 	31 	32
f 31 	33 	34
f 31 	34 	32
f 29 	35 	36
f 29 	36 	30
f 32 	37 	29
f 27 	29 	37
f 28 	29 	27
f 32 	34 	38
f 32 	38 	37
f 28 	35 	29
f 39 	40 	13
f 41 	42 	43
f 42 	44 	40
f 41 	44 	42
f 44 	17 	40
f 13 	40 	17
f 47 	48 	46
f 44 	41 	45
f 46 	45 	41
f 45 	46 	48
f 37 	38 	47
f 48 	47 	38
f 64 	88 	65
f 63 	66 	89
f 68 	69 	81
f 69 	70 	81
f 80 	68 	81
f 81 	70 	82
f 80 	83 	71
f 80 	71 	68
f 87 	64 	86
f 63 	86 	64
f 87 	88 	64
f 63 	89 	86
f 19 	90 	91
f 23 	19 	91
f 26 	93 	22
f 90 	22 	92
f 93 	94 	92
f 95 	93 	26
f 96 	92 	94
f 96 	94 	97
f 90 	19 	22
f 92 	22 	93
f 98 	99 	100
f 98 	100 	101
f 98 	102 	103
f 98 	103 	99
f 100 	104 	105
f 100 	105 	101
f 106 	109 	100
f 99 	107 	100
f 108 	107 	99
f 106 	100 	107
f 99 	103 	108
f 109 	104 	100
f 110 	111 	112
f 110 	112 	113
f 110 	114 	115
f 110 	115 	111
f 112 	116 	117
f 112 	117 	113
f 120 	110 	119
f 110 	113 	119
f 118 	119 	113
f 114 	110 	120
f 121 	118 	113
f 121 	113 	117
f 123 	120 	122
f 119 	122 	120
f 125 	130 	124
f 126 	124 	127
f 128 	130 	125
f 128 	125 	129
f 131 	124 	130
f 127 	124 	131
f 128 	118 	130
f 130 	118 	121
f 123 	122 	92
f 123 	92 	96
f 132 	133 	107
f 132 	107 	108
f 134 	135 	141
f 136 	137 	135
f 141 	139 	134
f 138 	134 	139
f 135 	140 	141
f 137 	140 	135
f 106 	139 	141
f 109 	106 	141
f 132 	90 	133
f 91 	90 	132
f 138 	142 	134
f 124 	135 	134
f 124 	134 	125
f 136 	135 	126
f 124 	126 	135
f 134 	142 	125
f 125 	142 	129
f 143 	144 	145
f 143 	145 	146
f 147 	148 	149
f 147 	149 	150
f 151 	152 	153
f 151 	153 	154
f 155 	156 	157
f 155 	157 	158
f 163 	164 	165
f 163 	165 	166
f 167 	168 	169
f 167 	169 	170
f 172 	173 	171
f 173 	174 	167
f 173 	167 	170
f 175 	171 	170
f 165 	179 	177
f 177 	179 	176
f 146 	176 	179
f 180 	165 	177
f 164 	179 	165
f 178 	179 	164
f 151 	146 	179
f 143 	146 	154
f 181 	151 	179
f 154 	146 	151
f 147 	173 	172
f 147 	150 	155
f 143 	155 	150
f 170 	171 	173
f 155 	158 	147
f 154 	155 	143
f 173 	147 	158
f 182 	173 	158
f 183 	184 	185
f 183 	185 	186
f 193 	194 	195
f 193 	195 	196
f 204 	205 	206
f 204 	206 	207
f 209 	210 	206
f 205 	195 	206
f 200 	203 	192
f 203 	211 	189
f 212 	189 	211
f 189 	192 	203
f 192 	195 	200
f 205 	200 	195
f 195 	194 	206
f 209 	206 	194
f 215 	216 	217
f 215 	217 	218
f 220 	221 	219
f 184 	219 	204
f 222 	185 	227
f 223 	185 	222
f 224 	204 	219
f 220 	219 	184
f 223 	226 	247
f 185 	223 	247
f 185 	184 	207
f 249 	9 	226
f 225 	226 	223
f 228 	215 	224
f 229 	204 	224
f 207 	184 	204
f 227 	185 	207
f 215 	218 	224
f 229 	224 	218
f 97 	231 	232
f 97 	232 	95
f 233 	234 	235
f 233 	235 	236
f 238 	239 	237
f 239 	183 	237
f 186 	232 	183
f 232 	231 	183
f 236 	240 	233
f 242 	240 	236
f 241 	233 	240
f 237 	183 	231
f 240 	237 	231
f 241 	240 	231
f 230 	249 	226
f 186 	18 	232
f 45 	232 	18
f 18 	247 	248
f 18 	248 	16
f 249 	58 	57
f 249 	57 	250
f 251 	252 	253
f 251 	253 	254
f 2 	226 	9
f 247 	226 	2
f 4 	255 	2
f 255 	248 	2
f 247 	2 	248
f 256 	253 	250
f 252 	9 	253
f 250 	253 	9
f 12 	9 	252
f 249 	250 	9
f 26 	25 	24
f 26 	24 	23
f 36 	35 	34
f 36 	34 	33
f 16 	17 	45
f 44 	45 	17
f 18 	16 	45
f 24 	25 	48
f 38 	34 	48
f 34 	35 	48
f 35 	28 	48
f 24 	48 	28
f 45 	48 	232
f 232 	48 	25
f 89 	66 	65
f 89 	65 	88
f 71 	83 	82
f 71 	82 	70
f 105 	104 	103
f 105 	103 	102
f 117 	116 	115
f 117 	115 	114
f 130 	117 	123
f 121 	117 	130
f 114 	123 	117
f 120 	123 	114
f 132 	104 	141
f 108 	103 	132
f 103 	104 	132
f 109 	141 	104
f 26 	23 	145
f 95 	26 	149
f 145 	144 	26
f 23 	132 	145
f 145 	132 	140
f 91 	132 	23
f 141 	140 	132
f 148 	131 	123
f 149 	148 	97
f 130 	123 	131
f 97 	148 	123
f 96 	97 	123
f 97 	95 	149
f 144 	149 	26
f 368 	373 	277
f 307 	305 	306
f 304 	305 	308
f 489 	308 	305
f 489 	305 	307
f 318 	329 	319
f 310 	219 	311
f 312 	313 	314
f 311 	315 	316
f 315 	221 	313
f 311 	221 	315
f 302 	317 	318
f 320 	227 	318
f 319 	320 	318
f 326 	320 	319
f 315 	313 	320
f 323 	329 	322
f 322 	325 	323
f 319 	323 	326
f 325 	326 	323
f 6 	8 	324
f 6 	324 	321
f 322 	8 	325
f 322 	324 	8
f 312 	5 	313
f 315 	320 	316
f 326 	316 	320
f 313 	6 	321
f 321 	320 	313
f 6 	313 	5
f 325 	8 	7
f 317 	336 	328
f 333 	328 	336
f 317 	328 	329
f 317 	329 	318
f 454 	322 	329
f 328 	330 	331
f 323 	319 	329
f 330 	328 	333
f 453 	331 	332
f 449 	453 	332
f 333 	334 	335
f 336 	334 	333
f 335 	331 	333
f 330 	333 	331
f 332 	331 	335
f 306 	338 	307
f 336 	338 	334
f 337 	334 	338
f 307 	338 	336
f 304 	337 	305
f 304 	308 	334
f 337 	304 	334
f 308 	487 	332
f 305 	338 	306
f 305 	337 	338
f 335 	334 	332
f 308 	332 	334
f 13 	15 	359
f 27 	340 	509
f 238 	237 	343
f 339 	344 	345
f 238 	343 	347
f 346 	347 	343
f 347 	344 	238
f 339 	239 	344
f 40 	39 	344
f 345 	344 	39
f 42 	347 	43
f 346 	43 	347
f 344 	347 	40
f 42 	40 	347
f 342 	240 	348
f 341 	348 	240
f 357 	358 	359
f 357 	359 	360
f 185 	360 	186
f 359 	186 	360
f 184 	183 	357
f 183 	358 	357
f 220 	357 	314
f 360 	314 	357
f 357 	220 	184
f 366 	367 	277
f 368 	277 	367
f 375 	371 	374
f 373 	374 	371
f 275 	369 	370
f 372 	277 	371
f 371 	277 	373
f 376 	373 	377
f 275 	370 	274
f 276 	277 	372
f 377 	373 	368
f 316 	310 	311
f 387 	388 	389
f 387 	389 	390
f 391 	392 	393
f 391 	393 	394
f 389 	152 	151
f 389 	151 	390
f 387 	154 	153
f 387 	153 	388
f 393 	156 	155
f 393 	155 	394
f 391 	158 	157
f 391 	157 	392
f 377 	394 	387
f 377 	387 	376
f 390 	376 	387
f 181 	376 	390
f 181 	390 	151
f 182 	391 	377
f 394 	377 	391
f 154 	387 	394
f 394 	155 	154
f 158 	391 	182
f 399 	400 	401
f 399 	401 	402
f 399 	166 	165
f 399 	165 	400
f 401 	164 	163
f 401 	163 	402
f 374 	401 	400
f 180 	375 	400
f 374 	400 	375
f 400 	165 	180
f 164 	401 	178
f 374 	178 	401
f 403 	404 	405
f 403 	405 	406
f 403 	170 	169
f 403 	169 	404
f 405 	168 	167
f 405 	167 	406
f 366 	403 	367
f 403 	406 	367
f 366 	175 	403
f 170 	403 	175
f 174 	367 	406
f 174 	406 	167
f 173 	368 	367
f 174 	173 	367
f 274 	172 	408
f 275 	274 	408
f 171 	277 	407
f 276 	407 	277
f 407 	408 	171
f 171 	408 	172
f 171 	366 	277
f 175 	366 	171
f 173 	182 	368
f 377 	368 	182
f 178 	374 	179
f 373 	179 	374
f 369 	411 	370
f 371 	177 	412
f 371 	412 	372
f 411 	412 	177
f 177 	176 	411
f 370 	411 	176
f 371 	375 	177
f 177 	375 	180
f 179 	373 	376
f 179 	376 	181
f 408 	407 	411
f 369 	275 	411
f 408 	411 	275
f 412 	411 	407
f 407 	276 	412
f 372 	412 	276
f 148 	426 	131
f 422 	137 	421
f 422 	145 	137
f 140 	137 	145
f 131 	426 	127
f 427 	421 	127
f 137 	127 	421
f 427 	149 	421
f 144 	421 	149
f 426 	427 	127
f 314 	360 	488
f 442 	443 	444
f 442 	444 	445
f 218 	217 	442
f 442 	217 	443
f 215 	445 	216
f 444 	216 	445
f 303 	445 	309
f 442 	445 	303
f 228 	309 	445
f 229 	442 	303
f 218 	442 	229
f 215 	228 	445
f 219 	310 	327
f 221 	311 	219
f 313 	221 	220
f 314 	313 	220
f 321 	222 	320
f 222 	227 	320
f 454 	223 	322
f 223 	222 	324
f 321 	324 	222
f 302 	318 	227
f 325 	336 	326
f 219 	327 	224
f 454 	450 	451
f 454 	329 	453
f 453 	329 	452
f 488 	5 	314
f 328 	452 	329
f 453 	449 	454
f 449 	450 	454
f 324 	322 	223
f 450 	455 	451
f 328 	331 	452
f 455 	450 	449
f 302 	316 	317
f 331 	453 	452
f 326 	317 	316
f 317 	326 	336
f 457 	458 	459
f 457 	459 	460
f 461 	464 	462
f 310 	316 	302
f 461 	463 	464
f 467 	468 	465
f 466 	465 	468
f 336 	325 	10
f 309 	327 	303
f 327 	310 	302
f 303 	327 	302
f 336 	489 	307
f 10 	489 	336
f 346 	343 	342
f 194 	193 	469
f 193 	458 	469
f 457 	469 	458
f 39 	13 	345
f 469 	471 	194
f 339 	345 	13
f 346 	342 	43
f 459 	196 	477
f 459 	477 	460
f 196 	195 	477
f 481 	477 	195
f 471 	470 	209
f 471 	209 	194
f 482 	481 	195
f 482 	195 	192
f 212 	466 	468
f 483 	482 	485
f 192 	485 	482
f 468 	189 	212
f 495 	455 	496
f 502 	497 	487
f 449 	487 	455
f 487 	449 	332
f 27 	47 	340
f 341 	340 	348
f 312 	314 	5
f 3 	1 	7
f 1 	325 	7
f 325 	1 	10
f 11 	489 	10
f 348 	46 	342
f 41 	43 	46
f 43 	342 	46
f 46 	348 	47
f 27 	37 	47
f 348 	340 	47
f 126 	127 	137
f 118 	128 	119
f 122 	119 	128
f 133 	142 	139
f 106 	107 	139
f 133 	139 	107
f 138 	139 	142
f 142 	133 	90
f 90 	92 	142
f 136 	126 	137
f 128 	142 	122
f 129 	142 	128
f 92 	122 	142
f 490 	422 	421
f 490 	421 	491
f 492 	427 	426
f 492 	426 	493
f 490 	146 	145
f 490 	145 	422
f 421 	144 	143
f 421 	143 	491
f 492 	150 	149
f 492 	149 	427
f 426 	148 	147
f 426 	147 	493
f 451 	494 	454
f 225 	223 	454
f 494 	225 	454
f 225 	451 	226
f 494 	451 	225
f 455 	226 	451
f 226 	455 	495
f 147 	172 	493
f 327 	309 	228
f 224 	327 	228
f 495 	496 	497
f 495 	497 	498
f 176 	146 	370
f 496 	487 	497
f 455 	487 	496
f 490 	370 	146
f 491 	370 	490
f 502 	487 	308
f 499 	500 	497
f 498 	497 	500
f 143 	150 	491
f 370 	491 	274
f 499 	501 	500
f 230 	500 	501
f 493 	274 	492
f 501 	497 	502
f 499 	497 	501
f 492 	274 	491
f 150 	492 	491
f 274 	493 	172
f 500 	495 	498
f 500 	230 	495
f 226 	495 	230
f 339 	358 	239
f 13 	359 	339
f 358 	339 	359
f 183 	239 	358
f 93 	509 	510
f 93 	510 	94
f 93 	95 	232
f 93 	232 	509
f 510 	231 	97
f 510 	97 	94
f 241 	510 	340
f 509 	340 	510
f 231 	510 	241
f 511 	512 	513
f 511 	513 	514
f 511 	236 	235
f 511 	235 	512
f 513 	234 	233
f 513 	233 	514
f 341 	514 	340
f 242 	511 	341
f 511 	514 	341
f 241 	340 	514
f 236 	511 	242
f 241 	514 	233
f 342 	343 	237
f 238 	344 	239
f 342 	237 	240
f 341 	240 	242
f 186 	359 	15
f 18 	186 	15
f 25 	509 	232
f 25 	21 	509
f 21 	20 	27
f 27 	509 	21
f 517 	15 	14
f 517 	14 	518
f 248 	518 	16
f 14 	16 	518
f 18 	15 	247
f 517 	247 	15
f 185 	517 	360
f 518 	488 	517
f 255 	488 	518
f 518 	248 	255
f 185 	247 	517
f 488 	360 	517
f 54 	519 	520
f 54 	520 	55
f 520 	250 	57
f 520 	57 	55
f 54 	58 	249
f 54 	249 	519
f 519 	489 	520
f 489 	256 	520
f 250 	520 	256
f 521 	522 	523
f 521 	523 	524
f 523 	254 	253
f 523 	253 	524
f 521 	252 	251
f 521 	251 	522
f 11 	521 	489
f 524 	489 	521
f 524 	253 	256
f 524 	256 	489
f 252 	521 	12
f 11 	12 	521
f 5 	488 	6
f 255 	6 	488
f 7 	8 	3
f 3 	8 	4
f 8 	6 	4
f 6 	255 	4
f 504 	207 	206
f 505 	504 	206
f 463 	461 	504
f 207 	504 	461
f 464 	526 	462
f 529 	205 	526
f 204 	526 	205
f 204 	462 	526
f 210 	506 	505
f 210 	505 	206
f 200 	205 	528
f 529 	528 	205
f 465 	211 	467
f 200 	528 	532
f 531 	532 	528
f 467 	211 	203
f 470 	506 	210
f 470 	210 	209
f 303 	302 	462
f 462 	302 	461
f 302 	227 	461
f 303 	462 	229
f 501 	502 	230
f 230 	502 	249
f 489 	519 	308
f 308 	519 	502
f 519 	249 	502
f 207 	461 	227
f 462 	204 	229
# 696 faces

g group_0_15708628

usemtl color_15708628
s 0

f 398 	516 	30
f 31 	30 	516
f 31 	516 	33
f 36 	98 	30
f 61 	62 	60
f 61 	66 	63
f 61 	63 	64
f 67 	62 	64
f 61 	64 	62
f 67 	64 	65
f 62 	516 	60
f 516 	62 	68
f 71 	523 	68
f 69 	68 	62
f 70 	69 	67
f 62 	67 	69
f 98 	101 	398
f 398 	30 	98
f 102 	98 	36
f 105 	398 	101
f 112 	111 	508
f 111 	115 	508
f 234 	508 	115
f 166 	105 	161
f 156 	153 	162
f 161 	162 	153
f 152 	161 	153
f 160 	161 	152
f 157 	156 	162
f 159 	157 	162
f 166 	161 	163
f 160 	163 	161
f 116 	169 	162
f 162 	169 	168
f 162 	168 	159
f 196 	214 	193
f 213 	214 	196
f 214 	213 	212
f 211 	214 	212
f 211 	217 	214
f 217 	216 	214
f 235 	214 	216
f 115 	162 	234
f 234 	162 	235
f 193 	214 	66
f 59 	66 	214
f 251 	59 	33
f 254 	59 	251
f 71 	59 	254
f 161 	33 	59
f 36 	33 	161
f 59 	65 	66
f 67 	65 	59
f 67 	59 	70
f 70 	59 	71
f 36 	161 	102
f 102 	161 	105
f 214 	235 	162
f 115 	116 	162
f 161 	386 	162
f 395 	389 	388
f 393 	396 	388
f 392 	396 	393
f 395 	388 	396
f 395 	160 	389
f 152 	389 	160
f 156 	393 	388
f 156 	388 	153
f 157 	159 	392
f 396 	392 	159
f 159 	405 	396
f 398 	395 	503
f 395 	398 	402
f 399 	402 	398
f 163 	160 	402
f 395 	402 	160
f 116 	112 	404
f 405 	404 	396
f 116 	404 	169
f 168 	405 	159
f 441 	61 	361
f 356 	441 	361
f 386 	361 	214
f 386 	508 	361
f 443 	356 	444
f 217 	211 	443
f 444 	356 	216
f 214 	361 	59
f 386 	396 	508
f 399 	398 	166
f 166 	398 	105
f 396 	404 	112
f 508 	396 	112
f 395 	396 	386
f 395 	386 	503
f 386 	161 	503
f 513 	508 	234
f 214 	162 	386
f 356 	361 	508
f 356 	508 	512
f 512 	235 	356
f 513 	512 	508
f 216 	356 	235
f 60 	361 	61
f 60 	59 	361
f 66 	61 	193
f 441 	458 	61
f 161 	59 	503
f 60 	503 	59
f 398 	503 	516
f 60 	516 	503
f 251 	33 	516
f 254 	523 	71
f 251 	516 	522
f 523 	522 	516
f 516 	68 	523
f 193 	61 	458
f 459 	458 	441
f 441 	213 	459
f 196 	459 	213
f 356 	443 	465
f 212 	213 	466
f 213 	441 	466
f 356 	465 	441
f 466 	441 	465
f 211 	465 	443
# 126 faces

 #end of obj_0

