# Object Export From Tinkercad Server 2015

mtllib obj.mtl

o obj_0
v 50 		154.714 		39.51
v 50 		154.714 		40.0019
v 50 		153.7159 		49.51
v 50 		149.1251 		93.6
v 47.153 		149.1251 		93.6
v 49.9 		150.1761 		83.6
v 47.153 		150.1761 		83.6
v 49.9 		149.1256 		93.595
v 47.153 		149.1256 		93.595
v 47.153 		153.6637 		50.4184
v 47.153 		150.191 		83.4583
v 47.1 		158.3044 		83.6
v 47.1 		150.4456 		83.6
v 47.153 		150.1925 		83.6
v 47.1 		149.3951 		93.595
v 47.1 		160.0769 		83.631
v 47.153 		149.142 		93.595
v 47.153 		154.7659 		39.9314
v 47 		154.7659 		39.9314
v 47 		154.8099 		39.513
v 47 		164.6514 		40.1041
v 47 		154.714 		40.0019
v 47 		154.714 		39.513
v 47 		153.7161 		49.508
v 47 		163.6631 		49.508
v 17.71 		153.895 		93.6
v 19.68 		155.142 		93.6
v 21.709 		156.291 		93.6
v 23.791 		157.34 		93.6
v 25.923 		158.284 		93.6
v 12.201 		149.595 		93.6
v 13.966 		151.118 		93.6
v 15.804 		152.552 		93.6
v 25.923 		158.284 		98.6
v 23.791 		157.34 		98.6
v 21.709 		156.291 		98.6
v 19.68 		155.142 		98.6
v 17.71 		153.895 		98.6
v 15.804 		152.552 		98.6
v 13.966 		151.118 		98.6
v 12.201 		149.595 		98.6
v 40 		150.1925 		83.6
v 39.9 		150.1925 		83.6
v 39.9 		149.142 		93.595
v 40 		149.142 		93.595
v 39.9 		148.9743 		93.595
v 40 		150.1761 		83.6
v 40 		149.1251 		93.6
v 40 		149.1256 		93.595
v 40 		153.7159 		49.51
v 40 		154.714 		40.0019
v 40 		154.714 		39.51
v 42.848 		149.1251 		93.6
v 42.848 		150.1761 		83.6
v 42.848 		149.1256 		93.595
v 42.848 		153.6637 		50.4184
v 42.848 		150.191 		83.4583
v 42.848 		150.1925 		83.6
v 42.848 		149.142 		93.595
v 42.848 		154.7659 		39.9314
v 43 		154.7659 		39.9314
v 43 		154.8099 		39.513
v 43 		164.6514 		40.1041
v 43 		154.714 		40.0019
v 43 		154.714 		39.513
v 43 		153.7161 		49.508
v 43 		163.6631 		49.508
v 43.1 		150.4456 		83.6
v 43.1 		158.3044 		83.6
v 43.1 		149.3951 		93.595
v 43.1 		160.0769 		83.631
v 46.865 		87.171 		96.707
v 46.028 		86.744 		96.707
v 45.1 		86.598 		96.707
v 44.172 		86.744 		96.707
v 43.335 		87.171 		96.707
v 42.671 		87.835 		96.707
v 42.244 		88.672 		96.707
v 42.097 		89.6 		96.707
v 42.244 		90.528 		96.707
v 42.671 		91.365 		96.707
v 43.335 		92.029 		96.707
v 44.172 		92.456 		96.707
v 45.1 		92.603 		96.707
v 46.028 		92.456 		96.707
v 46.865 		92.029 		96.707
v 47.529 		91.365 		96.707
v 47.956 		90.528 		96.707
v 48.102 		89.6 		96.707
v 47.956 		88.672 		96.707
v 47.529 		87.835 		96.707
v 43.2 		80.4075 		93.6
v 40 		85.086 		93.6
v 50 		85.086 		93.6
v 45.1 		86.598 		93.6
v 46.028 		86.744 		93.6
v 46.865 		87.171 		93.6
v 47.529 		87.835 		93.6
v 47.956 		88.672 		93.6
v 48.102 		89.6 		93.6
v 48.0215 		90.112 		93.6
v 42.1781 		90.112 		93.6
v 42.097 		89.6 		93.6
v 42.244 		88.672 		93.6
v 42.671 		87.835 		93.6
v 43.335 		87.171 		93.6
v 44.172 		86.744 		93.6
v 42.244 		90.528 		93.6
v 47.956 		90.528 		93.6
v 47.529 		91.365 		93.6
v 46.865 		92.029 		93.6
v 46.028 		92.456 		93.6
v 45.1 		92.603 		93.6
v 44.172 		92.456 		93.6
v 43.335 		92.029 		93.6
v 42.671 		91.365 		93.6
v 40.1 		79.3865 		83.6
v 40.1 		85.086 		83.6
v 40 		85.086 		83.6
v 40 		109.6 		83.6
v 50 		109.6 		83.6
v 50 		89.4424 		83.6
v 40.1 		80.437 		93.595
v 40.1 		85.086 		93.595
v 50 		85.086 		93.595
v 43.2 		80.4069 		93.595
v 47.2 		80.4069 		93.595
v 47.2 		79.3564 		83.6
v 43.2 		79.3564 		83.6
v 42.948 		80.1889 		93.6
v 40.1 		80.1889 		93.6
v 47.253 		80.1889 		93.6
v 50 		119.6 		83.6
v 40 		119.6 		83.6
v 42.948 		75.6503 		50.4184
v 47.253 		75.6503 		50.4184
v 42.948 		79.123 		83.4583
v 47.253 		79.123 		83.4583
v 40.1 		70.1341 		93.6
v 40.1 		66.9 		62.8302
v 42.948 		65.6139 		50.5937
v 47.253 		65.6139 		50.5937
v 42.948 		70.1341 		93.6
v 47.253 		70.1341 		93.6
v 47.2 		69.3046 		83.6298
v 47.2 		70.352 		93.595
v 43.2 		70.352 		93.595
v 43.2 		69.3046 		83.6298
v 43.2 		71.0096 		83.6
v 47.2 		71.0096 		83.6
v 34.833 		160.987 		93.6
v 37.13 		161.386 		93.6
v 39.444 		161.671 		93.6
v 40 		161.7121 		93.6
v 40 		159.1799 		93.6
v 30.311 		159.855 		93.6
v 32.558 		160.476 		93.6
v 39.444 		161.671 		98.6
v 71.628 		117.456 		96.707
v 37.13 		161.386 		98.6
v 34.833 		160.987 		98.6
v 70.7 		117.603 		96.707
v 42.948 		69.0866 		83.6336
v 32.558 		160.476 		98.6
v 30.311 		159.855 		98.6
v 72.465 		117.029 		96.707
v 28.098 		159.123 		98.6
v 47.253 		69.0866 		83.6336
v 73.129 		116.365 		96.707
v 73.556 		115.528 		96.707
v 50 		161.5178 		93.6
v 51.07 		161.386 		93.6
v 53.367 		160.987 		93.6
v 55.642 		160.476 		93.6
v 57.889 		159.855 		93.6
v 50 		159.1799 		93.6
v 70.7 		111.598 		96.707
v 69.772 		111.744 		96.707
v 68.935 		112.171 		96.707
v 68.271 		112.835 		96.707
v 67.844 		113.672 		96.707
v 67.698 		114.6 		96.707
v 73.703 		114.6 		96.707
v 55.642 		160.476 		98.6
v 73.556 		113.672 		96.707
v 53.367 		160.987 		98.6
v 51.07 		161.386 		98.6
v 73.129 		112.835 		96.707
v 72.465 		112.171 		96.707
v 71.628 		111.744 		96.707
v 60.102 		159.123 		98.6
v 40 		119.917 		49.51
v 57.889 		159.855 		98.6
v 50 		119.917 		49.51
v 50 		109.512 		49.51
v 40 		109.512 		49.51
v 67.844 		115.528 		96.707
v 68.271 		116.365 		96.707
v 68.935 		117.029 		96.707
v 69.772 		117.456 		96.707
v 40 		75.713 		49.51
v 50 		75.713 		49.51
v 40.1 		60.3146 		0.1757
v 40.1 		70.3512 		0.0005
v 79.5101 		119.6 		93.6
v 79.5101 		116.86 		93.6
v 79.5101 		112.555 		93.6
v 50 		74.714 		39.51
v 40 		74.714 		39.51
v 44.1 		161.9 		98.6
v 41.769 		161.843 		98.6
v 75.228 		119.6 		93.6
v 48.756 		161.671 		98.6
v 46.431 		161.843 		98.6
v 42.948 		64.5116 		40.1067
v 48.756 		161.671 		93.6
v 46.431 		161.843 		93.6
v 47.253 		64.5116 		40.1067
v 44.1 		161.9 		93.6
v 41.769 		161.843 		93.6
v 73.703 		114.6 		93.6
v 73.6891 		114.688 		93.6
v 67.7118 		114.688 		93.6
v 67.698 		114.6 		93.6
v 67.844 		113.672 		93.6
v 68.271 		112.835 		93.6
v 68.935 		112.171 		93.6
v 69.772 		111.744 		93.6
v 70.7 		111.598 		93.6
v 71.628 		111.744 		93.6
v 72.465 		112.171 		93.6
v 73.129 		112.835 		93.6
v 73.556 		113.672 		93.6
v 42.848 		159.1799 		93.6
v 47 		64.7764 		40.1021
v 43 		64.7764 		40.1021
v 47 		65.765 		49.508
v 43 		65.765 		49.508
v 47.153 		159.1799 		93.6
v 47.253 		74.5481 		39.9315
v 73.556 		115.528 		93.6
v 73.129 		116.365 		93.6
v 47 		74.5041 		39.513
v 72.465 		117.029 		93.6
v 47.1 		160.5005 		83.6
v 47 		74.5481 		39.9315
v 47.1 		160.231 		83.6
v 71.628 		117.456 		93.6
v 43.1 		160.231 		83.6
v 43.1 		160.5005 		83.6
v 70.7 		117.603 		93.6
v 69.772 		117.456 		93.6
v 68.935 		117.029 		93.6
v 68.271 		116.365 		93.6
v 43.1 		159.45 		93.595
v 47.1 		159.45 		93.595
v 67.844 		115.528 		93.6
v 43.1 		160.2274 		83.6336
v 47.1 		160.2274 		83.6336
v 47 		74.714 		39.513
v 47 		74.714 		39.9926
v 70.2786 		119.6 		83.6
v 42.848 		163.7001 		50.5937
v 42.848 		164.8024 		40.1067
v 42.948 		74.5481 		39.9315
v 47.153 		164.8024 		40.1067
v 47.153 		163.7001 		50.5937
v 75.228 		119.6 		93.595
v 43 		74.5481 		39.9315
v 43 		74.5041 		39.513
v 50 		168.9994 		0.1757
v 40 		168.9994 		0.1757
v 42.848 		160.2274 		83.6336
v 84.0487 		112.555 		50.4184
v 47.153 		160.2274 		83.6336
v 84.0487 		116.86 		50.4184
v 43 		74.714 		39.513
v 43 		74.714 		39.9926
v 80.576 		112.555 		83.4583
v 79.5101 		119.707 		93.6
v 80.576 		116.86 		83.4583
v 50 		74.714 		39.9926
v 40 		74.714 		39.9926
v 60.102 		159.123 		93.6
v 47 		75.7128 		49.508
v 89.5659 		119.707 		93.6
v 43 		75.7128 		49.508
v 94.0861 		112.555 		50.5937
v 28.098 		159.123 		93.6
v 94.0861 		116.86 		50.5937
v 89.5659 		116.86 		93.6
v 89.5659 		112.555 		93.6
v 80.5866 		112.555 		83.6
v 80.5866 		116.5 		83.6
v 88.6894 		116.5 		83.6
v 88.6894 		112.555 		83.6
v 79.5361 		112.555 		93.595
v 79.5361 		116.5 		93.595
v 40 		119.917 		44.508
v 50 		119.917 		44.508
v 50 		109.512 		44.508
v 40 		109.512 		44.508
v 90.6134 		116.5 		83.6336
v 89.5664 		112.555 		93.595
v 40 		158.9628 		0.0005
v 50 		158.9628 		0.0005
v 90.6134 		116.86 		83.6336
v 84.002 		119.715 		49.51
v 84.002 		109.715 		49.51
v 99.3854 		119.707 		0.1757
v 89.3478 		119.707 		0.0005
v 77.688 		147.988 		93.6
v 79.295 		146.299 		93.6
v 80.818 		144.534 		93.6
v 66.491 		156.291 		93.6
v 82.252 		142.696 		93.6
v 83.595 		140.79 		93.6
v 68.52 		155.142 		93.6
v 70.49 		153.895 		93.6
v 84.842 		138.82 		93.6
v 72.396 		152.552 		93.6
v 85.991 		136.791 		93.6
v 74.234 		151.118 		93.6
v 87.039 		134.709 		93.6
v 75.999 		149.595 		93.6
v 87.984 		132.577 		93.6
v 85.001 		119.715 		39.51
v 50 		145.086 		93.6
v 62.277 		158.284 		93.6
v 64.409 		157.34 		93.6
v 85.001 		109.715 		39.51
v 50.203 		109.715 		39.51
v 50.203 		119.715 		39.51
v 95.1884 		112.555 		40.1067
v 88.823 		130.402 		93.6
v 89.555 		128.189 		93.6
v 90.176 		125.942 		93.6
v 90.687 		123.667 		93.6
v 91.086 		121.37 		93.6
v 95.1884 		116.86 		40.1067
v 75.999 		149.595 		98.6
v 74.234 		151.118 		98.6
v 72.396 		152.552 		98.6
v 70.49 		153.895 		98.6
v 68.52 		155.142 		98.6
v 66.491 		156.291 		98.6
v 64.409 		157.34 		98.6
v 62.277 		158.284 		98.6
v 87.984 		132.577 		98.6
v 87.039 		134.709 		98.6
v 85.991 		136.791 		98.6
v 84.842 		138.82 		98.6
v 83.595 		140.79 		98.6
v 82.252 		142.696 		98.6
v 80.818 		144.534 		98.6
v 79.295 		146.299 		98.6
v 77.688 		147.988 		98.6
v 94.9386 		116.715 		40.1024
v 94.9386 		112.715 		40.1024
v 93.95 		116.715 		49.508
v 91.086 		121.37 		98.6
v 93.95 		112.715 		49.508
v 90.687 		123.667 		98.6
v 90.176 		125.942 		98.6
v 89.555 		128.189 		98.6
v 88.823 		130.402 		98.6
v 85.1509 		116.86 		39.9314
v 85.1509 		116.715 		39.9314
v 85.1949 		116.715 		39.513
v 85.001 		116.715 		39.513
v 85.001 		116.715 		39.9926
v 85.1509 		112.555 		39.9314
v 85.1509 		112.715 		39.9314
v 85.1949 		112.715 		39.513
v 85.001 		112.715 		39.513
v 85.001 		112.715 		39.9926
v 0.5186 		112.4 		93.595
v 0.493 		112.4 		93.595
v -0.5575 		112.4 		83.6
v -0.532 		112.4 		83.6
v 50.203 		119.715 		44.513
v 85.001 		119.715 		39.9926
v -0.532 		116.4 		83.6
v -0.5575 		116.4 		83.6
v 0.5191 		112.455 		93.6
v 60.102 		69.677 		93.6
v 57.889 		68.945 		93.6
v 85.001 		109.715 		39.9926
v 55.642 		68.324 		93.6
v 53.367 		67.813 		93.6
v 51.07 		67.414 		93.6
v 50.1 		70.1341 		93.6
v 0.493 		116.4 		93.595
v 0.5186 		112.455 		93.595
v -4.0011 		112.455 		50.5937
v -5.1034 		112.455 		40.1067
v 51.07 		67.414 		98.6
v 53.367 		67.813 		98.6
v 55.642 		68.324 		98.6
v 57.889 		68.945 		98.6
v 60.102 		69.677 		98.6
v 62.277 		70.516 		98.6
v -5.1034 		116.76 		40.1067
v -4.0011 		116.76 		50.5937
v -9.3004 		119.607 		0.1757
v -9.3004 		109.607 		0.1757
v 84.0022 		116.715 		49.508
v 0.5191 		109.607 		93.6
v 0.5191 		119.607 		93.6
v -0.5284 		116.76 		83.6336
v 0.5191 		116.76 		93.6
v 84.0022 		112.715 		49.508
v -3.4 		119.607 		56.313
v -3.4 		109.607 		56.313
v -0.5284 		116.4 		83.6336
v 50.1 		65.6139 		50.5937
v 50.1 		60.3146 		0.1757
v 1.161 		134.709 		98.6
v 91.3674 		109.715 		93.6
v 91.086 		107.43 		93.6
v 90.687 		105.133 		93.6
v 90.176 		102.858 		93.6
v 89.5659 		109.707 		93.6
v 50.203 		109.715 		44.513
v 89.5659 		109.715 		93.6
v 90.687 		105.133 		98.6
v 91.086 		107.43 		98.6
v 1.161 		94.091 		98.6
v 89.555 		100.611 		98.6
v 90.176 		102.858 		98.6
v 99.3854 		109.707 		0.1757
v 50.1 		79.3865 		83.6
v 50.1 		80.437 		93.595
v 50 		109.6 		93.6
v 75.228 		109.6 		93.6
v 50 		90.4928 		93.595
v 50.1 		90.4928 		93.595
v 50.1 		89.4424 		83.6
v 79.295 		82.501 		93.6
v 77.688 		80.812 		93.6
v -4.9364 		112.715 		40.1038
v -4.9364 		116.715 		40.1038
v -0.3619 		116.4 		83.6307
v -3.9481 		112.715 		49.508
v -3.9481 		116.715 		49.508
v 50.1 		80.1889 		93.6
v 77.688 		80.812 		98.6
v 50 		145.086 		83.6
v 40 		139.0871 		93.595
v 39.9 		139.0871 		93.595
v 50 		119.6 		93.6
v 39.9 		140.1376 		83.6
v 40 		140.1376 		83.6
v 75.228 		109.6 		83.6
v 79.5101 		109.707 		93.6
v 80.3335 		109.7 		83.6
v 75.228 		109.7 		83.6
v 79.2831 		109.7 		93.595
v 22.597 		115.428 		96.707
v 40 		145.086 		93.6
v 16.886 		115.428 		96.707
v 40 		145.086 		93.595
v 17.312 		116.265 		96.707
v 39.798 		119.715 		44.513
v 39.798 		119.715 		39.51
v 17.977 		116.929 		96.707
v 18.814 		117.356 		96.707
v 39.444 		67.129 		93.6
v 37.13 		67.414 		93.6
v 34.833 		67.813 		93.6
v 19.742 		117.503 		96.707
v 40 		109.6 		93.6
v 0.216 		132.577 		93.6
v 22.744 		114.5 		96.707
v 22.597 		113.572 		96.707
v 22.171 		112.735 		96.707
v 21.506 		112.071 		96.707
v 20.669 		111.644 		96.707
v 19.742 		111.498 		96.707
v 18.814 		111.644 		96.707
v 17.977 		112.071 		96.707
v 17.312 		112.735 		96.707
v 16.886 		113.572 		96.707
v 16.739 		114.5 		96.707
v 32.558 		68.324 		93.6
v 30.311 		68.945 		93.6
v 28.098 		69.677 		93.6
v 25.923 		70.516 		93.6
v 23.791 		71.461 		93.6
v 21.709 		72.509 		93.6
v 0.216 		96.223 		93.6
v 34.833 		67.813 		98.6
v 37.13 		67.414 		98.6
v 39.444 		67.129 		98.6
v 20.669 		117.356 		96.707
v 21.506 		116.929 		96.707
v 22.171 		116.265 		96.707
v 15.228 		119.6 		93.6
v -0.623 		98.398 		93.6
v -1.355 		100.611 		93.6
v -1.976 		102.858 		93.6
v -2.487 		105.133 		93.6
v -2.886 		107.43 		93.6
v -3.171 		109.744 		93.6
v -3.343 		112.069 		93.6
v -3.4 		114.4 		93.6
v -3.343 		116.731 		93.6
v 21.709 		72.509 		98.6
v -3.171 		119.056 		93.6
v 23.791 		71.461 		98.6
v -2.886 		121.37 		93.6
v 25.923 		70.516 		98.6
v 28.098 		69.677 		98.6
v -2.487 		123.667 		93.6
v 30.311 		68.945 		98.6
v -1.976 		125.942 		93.6
v 32.558 		68.324 		98.6
v -1.355 		128.189 		93.6
v -0.623 		130.402 		93.6
v 22.744 		114.5 		93.6
v 22.7142 		114.688 		93.6
v 16.7688 		114.688 		93.6
v 16.739 		114.5 		93.6
v 0.216 		132.577 		98.6
v 16.886 		113.572 		93.6
v 17.312 		112.735 		93.6
v 17.977 		112.071 		93.6
v 18.814 		111.644 		93.6
v 19.742 		111.498 		93.6
v 20.669 		111.644 		93.6
v 21.506 		112.071 		93.6
v 22.171 		112.735 		93.6
v 22.597 		113.572 		93.6
v 22.597 		115.428 		93.6
v 22.171 		116.265 		93.6
v 21.506 		116.929 		93.6
v 20.669 		117.356 		93.6
v 0.216 		96.223 		98.6
v 19.742 		117.503 		93.6
v 18.814 		117.356 		93.6
v 17.977 		116.929 		93.6
v 17.312 		116.265 		93.6
v 16.886 		115.428 		93.6
v 15.228 		119.5 		83.6
v -3.171 		109.744 		98.6
v -2.886 		107.43 		98.6
v -2.487 		105.133 		98.6
v -1.976 		102.858 		98.6
v -1.355 		100.611 		98.6
v -0.623 		98.398 		98.6
v -0.623 		130.402 		98.6
v -1.355 		128.189 		98.6
v -1.976 		125.942 		98.6
v -2.487 		123.667 		98.6
v -2.886 		121.37 		98.6
v -3.171 		119.056 		98.6
v -3.343 		116.731 		98.6
v -3.4 		114.4 		98.6
v -3.343 		112.069 		98.6
v 20.6339 		109.6 		93.595
v 20.6339 		109.5 		93.595
v 19.5834 		109.5 		83.6
v 19.5834 		109.6 		83.6
v 5.9991 		109.715 		49.51
v 5.001 		109.715 		39.51
v 4.9331 		112.455 		39.9315
v 19.68 		73.658 		93.6
v 17.71 		74.905 		93.6
v 4.9331 		112.715 		39.9315
v 4.8891 		112.715 		39.513
v 15.804 		76.248 		93.6
v 13.966 		77.682 		93.6
v 12.201 		79.205 		93.6
v 5.001 		109.715 		40.0019
v 5.001 		112.715 		40.0019
v 5.001 		112.715 		39.513
v 17.71 		74.905 		98.6
v 19.68 		73.658 		98.6
v 5.9989 		112.715 		49.508
v 12.201 		79.205 		98.6
v 13.966 		77.682 		98.6
v 15.804 		76.248 		98.6
v 4.8891 		116.715 		39.513
v 5.001 		116.715 		39.513
v 15.228 		109.6 		93.6
v 15.228 		109.6 		93.595
v 9.4984 		116.4 		83.6
v 10.5488 		116.4 		93.595
v 1.395 		116.4 		83.6
v 39.798 		109.715 		39.51
v 39.798 		109.715 		44.513
v 40 		119.6 		93.6
v 5.9989 		116.715 		49.508
v 15.228 		119.6 		83.6
v 15.228 		119.5 		93.595
v 0.7362 		109.607 		0.0005
v 0.7362 		119.607 		0.0005
v 48.756 		67.129 		93.6
v 46.431 		66.957 		93.6
v 44.1 		66.9 		93.6
v 41.769 		66.957 		93.6
v 1.161 		134.709 		93.6
v 2.209 		136.791 		93.6
v 3.358 		138.82 		93.6
v 4.605 		140.79 		93.6
v 5.948 		142.696 		93.6
v 7.382 		144.534 		93.6
v 8.905 		146.299 		93.6
v 10.512 		147.988 		93.6
v 41.769 		66.957 		98.6
v 44.1 		66.9 		98.6
v 46.431 		66.957 		98.6
v 48.756 		67.129 		98.6
v 10.512 		147.988 		98.6
v 8.905 		146.299 		98.6
v 7.382 		144.534 		98.6
v 5.948 		142.696 		98.6
v 4.605 		140.79 		98.6
v 3.358 		138.82 		98.6
v 2.209 		136.791 		98.6
v 45.056 		137.5649 		93.6
v 45 		137.556 		93.6
v 44.072 		137.703 		93.6
v 43.235 		138.129 		93.6
v 5.001 		119.715 		39.51
v 42.571 		138.794 		93.6
v 5.001 		119.715 		40.0019
v 5.9991 		119.715 		49.51
v 10.5739 		119.6 		93.6
v 10.5739 		119.607 		93.6
v 42.144 		139.631 		93.6
v 41.997 		140.558 		93.6
v 42.144 		141.486 		93.6
v 10.5739 		116.76 		93.6
v 42.571 		142.323 		93.6
v 43.235 		142.988 		93.6
v 44.072 		143.414 		93.6
v 9.5285 		119.5 		83.6
v 10.579 		119.5 		93.595
v 45 		143.561 		93.6
v 45.056 		143.5521 		93.6
v 47.856 		139.631 		93.6
v 48.003 		140.558 		93.6
v 47.429 		138.794 		93.6
v 6.0353 		116.76 		50.4184
v 46.765 		138.129 		93.6
v 45.928 		137.703 		93.6
v 9.508 		116.76 		83.4583
v 45.928 		143.414 		93.6
v 46.765 		142.988 		93.6
v 47.429 		142.323 		93.6
v 47.856 		141.486 		93.6
v 45 		137.556 		96.707
v 44.072 		137.703 		96.707
v 43.235 		138.129 		96.707
v 42.571 		138.794 		96.707
v 42.144 		139.631 		96.707
v 41.997 		140.558 		96.707
v 42.144 		141.486 		96.707
v 42.571 		142.323 		96.707
v 43.235 		142.988 		96.707
v 4.9331 		116.76 		39.9315
v 4.9331 		116.715 		39.9315
v 44.072 		143.414 		96.707
v 45 		143.561 		96.707
v 5.001 		116.715 		40.0019
v 47.856 		139.631 		96.707
v 48.003 		140.558 		96.707
v 47.429 		138.794 		96.707
v 46.765 		138.129 		96.707
v 45.928 		137.703 		96.707
v 9.5285 		109.5 		83.6
v 10.579 		109.5 		93.595
v 45.928 		143.414 		96.707
v 46.765 		142.988 		96.707
v 47.429 		142.323 		96.707
v 47.856 		141.486 		96.707
v 10.5739 		109.607 		93.6
v 2.209 		92.009 		98.6
v 3.358 		89.98 		98.6
v 4.605 		88.01 		98.6
v 5.948 		86.104 		98.6
v 7.382 		84.266 		98.6
v 8.905 		82.501 		98.6
v 10.512 		80.812 		98.6
v 10.512 		80.812 		93.6
v 8.905 		82.501 		93.6
v 7.382 		84.266 		93.6
v 5.948 		86.104 		93.6
v 4.605 		88.01 		93.6
v 3.358 		89.98 		93.6
v 2.209 		92.009 		93.6
v 1.161 		94.091 		93.6
v 49.9 		145.086 		83.6
v 49.9 		145.086 		93.595
v 10.5739 		112.455 		93.6
v 6.0353 		112.455 		50.4184
v 9.508 		112.455 		83.4583
v 10.5488 		112.455 		93.595
v 9.4984 		112.455 		83.6
v 1.395 		112.455 		83.6
v 75.228 		109.7 		93.595
v 89.3478 		109.707 		0.0005
v 88.823 		98.398 		98.6
v 79.295 		82.501 		98.6
v 80.818 		84.266 		98.6
v 82.252 		86.104 		98.6
v 83.595 		88.01 		98.6
v 84.842 		89.98 		98.6
v 85.991 		92.009 		98.6
v 87.039 		94.091 		98.6
v 87.984 		96.223 		98.6
v 89.555 		100.611 		93.6
v 88.823 		98.398 		93.6
v 87.984 		96.223 		93.6
v 87.039 		94.091 		93.6
v 85.991 		92.009 		93.6
v 84.842 		89.98 		93.6
v 83.595 		88.01 		93.6
v 82.252 		86.104 		93.6
v 80.818 		84.266 		93.6
v 50.1 		70.3512 		0.0005
v 66.491 		72.509 		98.6
v 68.52 		73.658 		98.6
v 70.49 		74.905 		98.6
v 72.396 		76.248 		98.6
v 74.234 		77.682 		98.6
v 75.999 		79.205 		98.6
v 64.409 		71.461 		98.6
v 75.999 		79.205 		93.6
v 74.234 		77.682 		93.6
v 72.396 		76.248 		93.6
v 70.49 		74.905 		93.6
v 68.52 		73.658 		93.6
v 66.491 		72.509 		93.6
v 64.409 		71.461 		93.6
v 62.277 		70.516 		93.6
v 91.304 		119.6 		93.6
v 89.5659 		119.6 		93.6
v 91.6 		114.4 		98.6
v 91.543 		116.731 		98.6
v 91.371 		119.056 		98.6
v 91.371 		109.744 		98.6
v 91.543 		112.069 		98.6
v 91.371 		109.744 		93.6
v 91.543 		112.069 		93.6
v 91.6 		114.4 		93.6
v 91.543 		116.731 		93.6
v 91.371 		119.056 		93.6
v 90.617 		116.5 		83.6
v 90.6415 		116.5 		83.6
v 90.6415 		112.5 		83.6
v 90.617 		112.5 		83.6
v 89.5911 		116.5 		93.595
v 89.5911 		112.5 		93.595
v 89.5664 		112.5 		93.595
v 90.6134 		112.5 		83.6336
v 80.3335 		119.7 		83.6
v 79.2831 		119.7 		93.595
v 69.2281 		119.6 		93.595
v 69.2281 		119.7 		93.595
v 70.2786 		119.7 		83.6
# 762 vertices

g group_0_14860437

usemtl color_14860437
s 0

f 3 	300 	2
f 7 	11 	6
f 11 	10 	6
f 4 	5 	8
f 306 	4 	6
f 8 	6 	4
f 5 	9 	8
f 10 	18 	6
f 12 	13 	69
f 16 	256 	12
f 12 	15 	13
f 275 	11 	14
f 7 	14 	11
f 17 	239 	14
f 275 	14 	239
f 9 	5 	17
f 239 	17 	5
f 11 	275 	12
f 69 	11 	12
f 16 	12 	275
f 19 	20 	18
f 20 	306 	18
f 10 	267 	18
f 18 	266 	21
f 18 	21 	19
f 1 	23 	2
f 22 	2 	23
f 306 	6 	18
f 22 	24 	2
f 3 	2 	24
f 23 	20 	19
f 23 	19 	22
f 25 	19 	21
f 19 	25 	22
f 24 	22 	25
f 48 	460 	30
f 289 	48 	30
f 608 	609 	498
f 36 	743 	35
f 37 	743 	36
f 30 	29 	35
f 30 	35 	34
f 29 	28 	36
f 29 	36 	35
f 28 	27 	37
f 28 	37 	36
f 27 	26 	38
f 27 	38 	37
f 26 	33 	38
f 33 	39 	38
f 33 	32 	40
f 33 	40 	39
f 32 	31 	41
f 32 	41 	40
f 42 	43 	44
f 42 	44 	45
f 33 	460 	32
f 39 	743 	38
f 609 	614 	31
f 46 	44 	43
f 42 	47 	43
f 289 	156 	48
f 29 	30 	460
f 40 	743 	39
f 45 	44 	49
f 46 	49 	44
f 45 	155 	42
f 155 	45 	48
f 49 	48 	45
f 47 	42 	305
f 49 	46 	55
f 46 	462 	55
f 305 	60 	47
f 57 	54 	47
f 55 	53 	48
f 55 	48 	49
f 56 	57 	47
f 10 	57 	56
f 58 	14 	54
f 54 	57 	58
f 234 	53 	59
f 234 	59 	58
f 55 	59 	53
f 305 	62 	60
f 61 	60 	62
f 61 	63 	60
f 51 	64 	65
f 51 	65 	52
f 56 	47 	60
f 64 	51 	66
f 51 	50 	66
f 64 	61 	65
f 62 	65 	61
f 63 	61 	67
f 66 	67 	64
f 61 	64 	67
f 62 	305 	20
f 65 	23 	1
f 65 	1 	52
f 23 	65 	62
f 23 	62 	20
f 6 	694 	7
f 11 	57 	10
f 5 	53 	234
f 5 	328 	53
f 68 	69 	13
f 453 	54 	7
f 14 	7 	54
f 70 	68 	15
f 13 	15 	68
f 71 	69 	255
f 68 	70 	69
f 255 	69 	70
f 14 	58 	17
f 59 	17 	58
f 462 	695 	55
f 55 	17 	59
f 71 	273 	69
f 11 	69 	57
f 66 	50 	24
f 3 	24 	50
f 66 	24 	67
f 25 	67 	24
f 74 	107 	75
f 75 	107 	76
f 103 	79 	78
f 116 	81 	80
f 82 	81 	116
f 84 	83 	113
f 85 	84 	113
f 87 	109 	88
f 88 	89 	80
f 90 	79 	89
f 80 	89 	79
f 79 	90 	91
f 79 	91 	72
f 79 	72 	73
f 79 	73 	74
f 79 	74 	75
f 79 	75 	76
f 79 	76 	77
f 79 	77 	78
f 83 	84 	82
f 84 	85 	82
f 85 	86 	82
f 81 	82 	86
f 86 	87 	81
f 80 	81 	87
f 80 	87 	88
f 94 	92 	93
f 97 	102 	96
f 98 	102 	97
f 99 	102 	98
f 100 	102 	99
f 101 	102 	100
f 95 	96 	102
f 95 	102 	103
f 95 	103 	104
f 95 	104 	105
f 95 	105 	106
f 95 	106 	107
f 108 	102 	101
f 108 	101 	109
f 108 	109 	110
f 111 	116 	110
f 112 	115 	111
f 113 	115 	112
f 114 	115 	113
f 116 	111 	115
f 108 	110 	116
f 122 	432 	118
f 119 	120 	118
f 122 	118 	120
f 121 	122 	120
f 123 	124 	118
f 123 	118 	117
f 123 	125 	124
f 118 	124 	119
f 93 	119 	124
f 125 	94 	124
f 93 	124 	94
f 126 	127 	128
f 126 	128 	129
f 92 	130 	93
f 93 	130 	131
f 94 	132 	92
f 132 	144 	92
f 133 	120 	134
f 130 	137 	131
f 204 	131 	135
f 136 	135 	137
f 138 	136 	137
f 139 	131 	140
f 141 	135 	136
f 141 	136 	142
f 145 	146 	147
f 145 	147 	148
f 130 	144 	143
f 147 	126 	129
f 147 	129 	149
f 147 	149 	148
f 145 	150 	146
f 150 	128 	146
f 127 	146 	128
f 129 	128 	149
f 150 	149 	128
f 153 	155 	152
f 154 	155 	153
f 155 	48 	152
f 130 	92 	144
f 151 	152 	48
f 127 	126 	147
f 127 	147 	146
f 164 	165 	743
f 161 	164 	743
f 160 	161 	743
f 163 	137 	143
f 130 	143 	137
f 244 	166 	159
f 167 	34 	743
f 34 	35 	743
f 165 	167 	743
f 153 	158 	154
f 211 	154 	158
f 144 	132 	138
f 144 	138 	168
f 166 	244 	169
f 153 	152 	160
f 153 	160 	158
f 152 	151 	161
f 152 	161 	160
f 168 	145 	148
f 168 	148 	163
f 163 	148 	149
f 138 	137 	149
f 163 	149 	137
f 164 	161 	157
f 151 	157 	161
f 157 	156 	165
f 157 	165 	164
f 145 	168 	150
f 168 	138 	150
f 289 	165 	156
f 167 	165 	289
f 138 	149 	150
f 30 	34 	289
f 173 	176 	172
f 174 	4 	173
f 175 	4 	174
f 171 	172 	176
f 179 	183 	178
f 180 	183 	179
f 181 	183 	180
f 182 	183 	181
f 197 	159 	182
f 177 	178 	183
f 177 	183 	185
f 177 	185 	188
f 177 	188 	189
f 177 	189 	190
f 187 	213 	743
f 184 	186 	743
f 186 	187 	743
f 192 	194 	50
f 3 	50 	194
f 196 	201 	195
f 284 	175 	193
f 284 	193 	191
f 175 	174 	184
f 175 	184 	193
f 195 	201 	202
f 204 	417 	203
f 200 	162 	199
f 162 	159 	199
f 198 	199 	159
f 197 	198 	159
f 166 	182 	159
f 169 	182 	166
f 170 	182 	169
f 183 	182 	170
f 174 	173 	186
f 174 	186 	184
f 173 	172 	187
f 173 	187 	186
f 207 	212 	206
f 172 	171 	187
f 1 	208 	52
f 209 	52 	208
f 210 	211 	743
f 214 	210 	743
f 205 	206 	212
f 141 	140 	215
f 216 	213 	171
f 187 	171 	213
f 216 	217 	214
f 216 	214 	213
f 217 	219 	210
f 217 	210 	214
f 203 	417 	215
f 218 	215 	417
f 219 	220 	211
f 219 	211 	210
f 131 	204 	140
f 220 	154 	211
f 219 	217 	239
f 216 	239 	217
f 171 	176 	216
f 223 	224 	222
f 224 	225 	222
f 225 	226 	222
f 226 	227 	222
f 221 	222 	227
f 221 	227 	228
f 221 	228 	229
f 221 	229 	230
f 221 	230 	231
f 221 	231 	232
f 221 	232 	233
f 236 	215 	235
f 218 	235 	215
f 154 	220 	155
f 234 	155 	220
f 235 	237 	238
f 235 	238 	236
f 239 	216 	176
f 239 	234 	219
f 136 	722 	240
f 245 	247 	249
f 245 	249 	250
f 246 	240 	243
f 243 	240 	722
f 255 	256 	245
f 255 	245 	250
f 222 	241 	242
f 222 	242 	244
f 222 	244 	248
f 222 	248 	251
f 222 	251 	252
f 222 	252 	253
f 222 	253 	254
f 222 	254 	257
f 222 	257 	223
f 218 	142 	240
f 255 	250 	258
f 249 	258 	250
f 218 	240 	235
f 246 	235 	240
f 247 	245 	259
f 256 	259 	245
f 261 	246 	260
f 243 	260 	246
f 758 	457 	262
f 457 	121 	262
f 235 	246 	237
f 272 	263 	264
f 266 	267 	271
f 266 	271 	264
f 272 	264 	271
f 269 	270 	265
f 265 	270 	204
f 234 	273 	155
f 203 	140 	204
f 176 	275 	239
f 176 	271 	267
f 263 	249 	267
f 249 	263 	273
f 249 	247 	267
f 247 	275 	267
f 265 	141 	215
f 258 	249 	273
f 272 	155 	263
f 273 	263 	155
f 265 	215 	236
f 265 	236 	269
f 176 	267 	275
f 259 	275 	247
f 277 	270 	269
f 277 	269 	278
f 278 	269 	238
f 236 	238 	269
f 243 	204 	270
f 211 	158 	743
f 158 	160 	743
f 213 	214 	743
f 193 	184 	743
f 243 	270 	277
f 243 	277 	260
f 38 	743 	37
f 329 	284 	348
f 282 	261 	260
f 282 	260 	208
f 280 	281 	205
f 206 	205 	281
f 209 	277 	283
f 208 	277 	209
f 278 	283 	277
f 260 	277 	208
f 284 	4 	175
f 280 	276 	281
f 279 	281 	276
f 276 	274 	279
f 191 	348 	284
f 136 	240 	142
f 285 	237 	261
f 246 	261 	237
f 280 	338 	286
f 137 	135 	131
f 265 	204 	135
f 135 	141 	265
f 238 	287 	278
f 157 	151 	48
f 237 	285 	238
f 287 	238 	285
f 157 	48 	156
f 261 	282 	285
f 202 	285 	282
f 202 	201 	287
f 276 	290 	288
f 276 	288 	274
f 287 	285 	202
f 167 	289 	34
f 206 	291 	207
f 292 	207 	291
f 201 	283 	287
f 278 	287 	283
f 305 	42 	272
f 155 	272 	42
f 293 	294 	295
f 293 	295 	296
f 264 	263 	60
f 56 	60 	263
f 266 	18 	267
f 297 	298 	294
f 297 	294 	293
f 192 	299 	300
f 192 	300 	194
f 63 	21 	264
f 60 	63 	264
f 266 	264 	21
f 195 	301 	302
f 195 	302 	196
f 303 	295 	754
f 295 	294 	754
f 298 	754 	294
f 272 	271 	305
f 298 	297 	304
f 298 	304 	754
f 267 	10 	263
f 56 	263 	10
f 296 	279 	293
f 302 	301 	299
f 301 	300 	299
f 207 	292 	297
f 279 	207 	293
f 297 	293 	207
f 239 	5 	234
f 306 	20 	305
f 304 	297 	292
f 220 	219 	234
f 307 	291 	281
f 258 	71 	255
f 281 	291 	206
f 259 	256 	16
f 15 	12 	256
f 279 	296 	295
f 307 	281 	295
f 279 	295 	281
f 256 	255 	70
f 256 	70 	15
f 307 	295 	303
f 57 	273 	58
f 234 	58 	273
f 71 	258 	273
f 57 	69 	273
f 275 	259 	16
f 63 	67 	25
f 63 	25 	21
f 305 	271 	306
f 321 	328 	319
f 319 	328 	318
f 323 	328 	321
f 325 	328 	323
f 312 	328 	325
f 316 	212 	314
f 317 	212 	316
f 320 	212 	317
f 314 	212 	313
f 322 	212 	320
f 326 	280 	324
f 310 	431 	311
f 312 	313 	328
f 4 	330 	328
f 332 	333 	331
f 327 	331 	333
f 315 	328 	330
f 329 	330 	4
f 318 	328 	315
f 284 	329 	4
f 176 	173 	4
f 423 	431 	288
f 336 	280 	335
f 337 	280 	336
f 338 	280 	337
f 339 	286 	338
f 326 	335 	280
f 342 	343 	341
f 343 	344 	341
f 344 	345 	341
f 341 	345 	346
f 324 	212 	322
f 286 	290 	310
f 431 	310 	334
f 351 	346 	350
f 352 	346 	351
f 353 	346 	352
f 354 	346 	353
f 355 	346 	354
f 356 	346 	355
f 357 	346 	356
f 341 	346 	357
f 349 	350 	346
f 312 	325 	341
f 290 	367 	340
f 325 	323 	342
f 325 	342 	341
f 340 	367 	358
f 340 	358 	359
f 340 	359 	334
f 323 	321 	343
f 323 	343 	342
f 360 	362 	359
f 360 	359 	358
f 321 	319 	344
f 321 	344 	343
f 364 	346 	363
f 365 	346 	364
f 366 	346 	365
f 349 	346 	366
f 361 	363 	346
f 367 	311 	369
f 368 	367 	369
f 319 	318 	345
f 319 	345 	344
f 335 	326 	349
f 318 	315 	346
f 318 	346 	345
f 326 	324 	350
f 326 	350 	349
f 286 	310 	311
f 324 	322 	351
f 324 	351 	350
f 315 	347 	346
f 322 	320 	352
f 322 	352 	351
f 315 	330 	347
f 276 	367 	290
f 330 	329 	348
f 330 	348 	347
f 320 	317 	353
f 320 	353 	352
f 368 	358 	367
f 317 	316 	354
f 317 	354 	353
f 371 	368 	370
f 369 	370 	368
f 316 	314 	355
f 316 	355 	354
f 271 	176 	306
f 368 	371 	360
f 314 	313 	356
f 314 	356 	355
f 176 	4 	306
f 312 	357 	356
f 312 	356 	313
f 312 	341 	357
f 373 	374 	372
f 374 	703 	372
f 311 	703 	374
f 339 	361 	738
f 372 	288 	334
f 338 	363 	361
f 338 	361 	339
f 372 	334 	359
f 372 	359 	373
f 337 	364 	363
f 337 	363 	338
f 375 	374 	373
f 375 	373 	376
f 336 	365 	364
f 336 	364 	337
f 359 	362 	373
f 376 	373 	362
f 335 	366 	365
f 335 	365 	336
f 349 	366 	335
f 374 	369 	311
f 379 	380 	378
f 377 	378 	380
f 369 	374 	375
f 369 	375 	370
f 308 	382 	381
f 333 	382 	327
f 383 	380 	379
f 383 	379 	384
f 333 	381 	382
f 464 	628 	381
f 382 	371 	370
f 382 	370 	327
f 331 	375 	388
f 376 	388 	375
f 389 	390 	446
f 392 	446 	390
f 391 	392 	390
f 387 	389 	446
f 377 	394 	378
f 393 	378 	394
f 370 	375 	331
f 370 	331 	327
f 414 	395 	396
f 280 	311 	276
f 367 	276 	311
f 399 	40 	398
f 400 	40 	399
f 401 	40 	400
f 402 	40 	401
f 398 	40 	397
f 404 	413 	403
f 280 	286 	311
f 403 	405 	396
f 405 	406 	396
f 414 	396 	406
f 390 	398 	397
f 390 	397 	391
f 407 	360 	371
f 377 	380 	408
f 385 	377 	408
f 358 	368 	360
f 389 	399 	398
f 389 	398 	390
f 385 	394 	377
f 387 	400 	399
f 387 	399 	389
f 386 	401 	400
f 386 	400 	387
f 409 	410 	411
f 274 	288 	372
f 386 	402 	401
f 405 	403 	413
f 404 	395 	413
f 413 	395 	414
f 413 	414 	383
f 412 	376 	362
f 407 	412 	360
f 362 	360 	412
f 409 	413 	410
f 413 	383 	410
f 415 	410 	383
f 382 	407 	371
f 408 	380 	414
f 416 	218 	417
f 376 	412 	388
f 380 	383 	414
f 407 	382 	308
f 309 	407 	308
f 309 	388 	412
f 412 	407 	309
f 424 	381 	333
f 424 	333 	332
f 421 	455 	420
f 422 	713 	455
f 419 	420 	423
f 425 	419 	423
f 713 	422 	430
f 713 	430 	429
f 422 	421 	426
f 422 	426 	430
f 421 	420 	427
f 421 	427 	426
f 420 	419 	427
f 340 	334 	310
f 409 	630 	413
f 433 	123 	432
f 117 	432 	123
f 436 	437 	438
f 436 	438 	122
f 440 	434 	439
f 446 	94 	735
f 435 	718 	434
f 442 	403 	441
f 396 	441 	403
f 705 	447 	439
f 415 	393 	443
f 432 	438 	433
f 437 	433 	438
f 117 	118 	432
f 432 	122 	438
f 440 	730 	434
f 588 	393 	394
f 437 	436 	125
f 123 	433 	125
f 437 	125 	433
f 415 	443 	410
f 731 	732 	434
f 441 	444 	445
f 441 	445 	442
f 730 	731 	434
f 94 	446 	132
f 381 	424 	591
f 381 	591 	464
f 728 	40 	727
f 451 	133 	328
f 449 	450 	452
f 449 	452 	453
f 448 	328 	133
f 728 	440 	447
f 460 	27 	28
f 121 	434 	436
f 122 	121 	436
f 121 	454 	435
f 121 	435 	434
f 27 	460 	26
f 26 	460 	33
f 94 	125 	436
f 94 	436 	434
f 3 	194 	300
f 212 	207 	435
f 455 	435 	207
f 456 	457 	758
f 615 	546 	614
f 454 	121 	457
f 120 	133 	121
f 133 	262 	121
f 43 	452 	46
f 450 	46 	452
f 208 	301 	282
f 453 	452 	47
f 43 	47 	452
f 300 	301 	1
f 1 	2 	300
f 592 	498 	460
f 28 	29 	460
f 195 	202 	301
f 46 	450 	462
f 449 	462 	450
f 542 	463 	461
f 282 	301 	202
f 466 	463 	542
f 465 	627 	464
f 308 	381 	628
f 208 	1 	301
f 470 	485 	131
f 131 	139 	470
f 131 	489 	93
f 469 	470 	139
f 468 	469 	139
f 476 	477 	475
f 474 	475 	477
f 474 	477 	478
f 474 	478 	479
f 474 	479 	480
f 474 	480 	481
f 474 	481 	482
f 474 	482 	483
f 474 	483 	484
f 474 	484 	461
f 408 	678 	502
f 473 	602 	630
f 501 	502 	678
f 499 	500 	678
f 487 	131 	486
f 488 	131 	487
f 489 	131 	488
f 490 	93 	489
f 485 	486 	131
f 500 	501 	678
f 463 	466 	461
f 461 	466 	467
f 461 	467 	471
f 461 	471 	495
f 461 	495 	496
f 461 	496 	497
f 461 	497 	459
f 461 	459 	474
f 494 	610 	40
f 512 	513 	40
f 610 	611 	40
f 493 	494 	40
f 513 	515 	40
f 502 	503 	408
f 503 	504 	408
f 385 	408 	504
f 504 	505 	385
f 505 	506 	385
f 411 	385 	506
f 507 	411 	506
f 509 	411 	507
f 511 	409 	509
f 514 	409 	511
f 516 	630 	514
f 518 	630 	516
f 519 	630 	518
f 469 	493 	492
f 469 	492 	470
f 520 	521 	522
f 520 	522 	523
f 520 	523 	525
f 520 	525 	526
f 520 	526 	527
f 520 	527 	528
f 520 	528 	529
f 520 	529 	530
f 520 	530 	531
f 532 	533 	531
f 520 	531 	533
f 468 	494 	493
f 468 	493 	469
f 468 	610 	494
f 535 	536 	534
f 521 	534 	536
f 521 	536 	537
f 521 	537 	539
f 521 	539 	540
f 521 	540 	541
f 521 	541 	542
f 521 	542 	543
f 521 	543 	522
f 489 	510 	508
f 489 	508 	490
f 488 	512 	510
f 488 	510 	489
f 487 	513 	512
f 487 	512 	488
f 486 	515 	513
f 486 	513 	487
f 485 	517 	515
f 485 	515 	486
f 547 	548 	41
f 550 	40 	549
f 552 	553 	546
f 545 	546 	553
f 545 	553 	554
f 545 	554 	555
f 545 	555 	556
f 545 	556 	557
f 545 	557 	558
f 545 	558 	559
f 492 	517 	485
f 492 	485 	470
f 524 	602 	473
f 560 	561 	562
f 560 	562 	563
f 572 	573 	93
f 473 	551 	524
f 499 	491 	538
f 568 	93 	567
f 571 	93 	568
f 567 	93 	490
f 491 	693 	538
f 569 	566 	570
f 473 	519 	551
f 395 	566 	396
f 569 	441 	566
f 396 	566 	441
f 572 	93 	571
f 519 	518 	552
f 519 	552 	551
f 574 	575 	576
f 574 	576 	565
f 518 	516 	553
f 518 	553 	552
f 516 	514 	554
f 516 	554 	553
f 575 	574 	579
f 574 	564 	579
f 508 	510 	40
f 510 	512 	40
f 514 	511 	555
f 514 	555 	554
f 575 	569 	576
f 570 	576 	569
f 511 	509 	556
f 511 	556 	555
f 441 	569 	444
f 579 	444 	575
f 509 	507 	557
f 509 	557 	556
f 569 	575 	444
f 507 	506 	558
f 507 	558 	557
f 567 	578 	577
f 567 	577 	568
f 558 	506 	505
f 558 	505 	559
f 566 	596 	570
f 490 	508 	578
f 490 	578 	567
f 576 	584 	565
f 505 	504 	545
f 505 	545 	559
f 584 	576 	570
f 584 	570 	583
f 504 	503 	546
f 504 	546 	545
f 572 	581 	580
f 572 	580 	573
f 503 	502 	547
f 503 	547 	546
f 571 	582 	581
f 571 	581 	572
f 502 	501 	548
f 502 	548 	547
f 577 	582 	571
f 577 	571 	568
f 501 	500 	549
f 501 	549 	548
f 500 	499 	550
f 500 	550 	549
f 499 	538 	550
f 378 	393 	384
f 378 	384 	379
f 472 	93 	585
f 40 	41 	548
f 560 	586 	561
f 411 	509 	409
f 472 	560 	120
f 563 	120 	560
f 551 	546 	524
f 585 	586 	560
f 585 	560 	472
f 515 	517 	40
f 581 	582 	40
f 393 	588 	587
f 393 	587 	589
f 443 	393 	589
f 418 	602 	524
f 383 	384 	415
f 393 	415 	384
f 120 	563 	134
f 491 	499 	678
f 692 	693 	585
f 538 	40 	550
f 698 	648 	589
f 591 	424 	564
f 564 	574 	591
f 589 	701 	698
f 562 	672 	563
f 563 	672 	544
f 134 	563 	544
f 134 	544 	594
f 628 	593 	579
f 628 	579 	564
f 134 	594 	498
f 134 	498 	592
f 579 	593 	444
f 445 	444 	593
f 544 	595 	594
f 498 	594 	595
f 453 	134 	449
f 586 	585 	595
f 498 	595 	585
f 460 	462 	449
f 460 	449 	592
f 592 	449 	134
f 552 	546 	551
f 119 	93 	472
f 119 	472 	120
f 191 	193 	743
f 564 	309 	628
f 308 	628 	309
f 192 	50 	299
f 565 	625 	590
f 679 	680 	40
f 50 	51 	299
f 52 	299 	51
f 464 	591 	590
f 464 	590 	465
f 196 	302 	201
f 520 	474 	521
f 209 	302 	52
f 583 	570 	597
f 596 	597 	570
f 201 	302 	283
f 209 	283 	302
f 299 	52 	302
f 597 	596 	406
f 597 	406 	405
f 531 	477 	532
f 144 	392 	598
f 391 	598 	392
f 598 	599 	144
f 599 	600 	144
f 143 	144 	600
f 600 	601 	143
f 139 	143 	601
f 139 	601 	468
f 530 	477 	531
f 606 	607 	498
f 606 	498 	605
f 605 	498 	604
f 31 	498 	609
f 32 	498 	31
f 607 	608 	498
f 613 	40 	612
f 397 	40 	613
f 599 	612 	611
f 599 	611 	600
f 604 	498 	603
f 602 	603 	630
f 473 	630 	519
f 598 	613 	612
f 598 	612 	599
f 613 	598 	397
f 391 	397 	598
f 601 	610 	468
f 527 	481 	528
f 600 	611 	610
f 600 	610 	601
f 203 	215 	140
f 526 	481 	527
f 416 	142 	218
f 41 	614 	546
f 616 	546 	615
f 617 	546 	616
f 619 	546 	618
f 620 	546 	619
f 524 	546 	418
f 163 	143 	139
f 525 	483 	526
f 618 	546 	617
f 416 	392 	168
f 144 	168 	392
f 141 	142 	140
f 416 	140 	142
f 523 	483 	525
f 41 	31 	614
f 163 	140 	168
f 139 	140 	163
f 416 	168 	140
f 609 	608 	615
f 609 	615 	614
f 608 	607 	616
f 608 	616 	615
f 426 	427 	40
f 348 	744 	347
f 471 	539 	537
f 607 	606 	617
f 607 	617 	616
f 536 	496 	537
f 606 	605 	618
f 606 	618 	617
f 605 	604 	619
f 605 	619 	618
f 535 	496 	536
f 604 	603 	620
f 604 	620 	619
f 534 	459 	535
f 521 	459 	534
f 418 	620 	602
f 603 	602 	620
f 624 	655 	623
f 461 	484 	522
f 465 	625 	627
f 628 	464 	627
f 626 	655 	624
f 461 	543 	542
f 630 	603 	498
f 498 	32 	460
f 629 	630 	498
f 631 	657 	626
f 541 	466 	542
f 418 	546 	620
f 632 	657 	631
f 466 	541 	467
f 540 	467 	541
f 629 	498 	634
f 539 	471 	467
f 539 	467 	540
f 635 	660 	633
f 634 	498 	696
f 636 	660 	635
f 459 	521 	474
f 585 	696 	498
f 637 	664 	636
f 533 	475 	520
f 474 	520 	475
f 640 	664 	637
f 532 	476 	533
f 475 	533 	476
f 638 	639 	544
f 595 	544 	639
f 476 	532 	477
f 644 	669 	642
f 530 	478 	477
f 646 	669 	644
f 629 	648 	630
f 478 	530 	529
f 478 	529 	479
f 528 	480 	529
f 479 	529 	480
f 648 	629 	634
f 480 	528 	481
f 649 	674 	641
f 698 	645 	648
f 645 	630 	648
f 650 	674 	649
f 526 	482 	481
f 483 	482 	526
f 409 	514 	630
f 484 	483 	523
f 523 	522 	484
f 543 	461 	522
f 671 	621 	653
f 537 	495 	471
f 623 	654 	622
f 653 	622 	654
f 630 	597 	413
f 496 	495 	537
f 654 	623 	655
f 626 	656 	655
f 535 	497 	496
f 657 	656 	626
f 497 	535 	459
f 634 	696 	411
f 658 	657 	632
f 410 	648 	411
f 634 	411 	648
f 443 	589 	410
f 648 	410 	589
f 658 	632 	659
f 633 	659 	632
f 660 	659 	633
f 465 	590 	625
f 630 	645 	597
f 636 	661 	660
f 662 	583 	597
f 663 	583 	662
f 405 	413 	597
f 664 	661 	636
f 662 	645 	404
f 662 	404 	403
f 442 	663 	662
f 442 	662 	403
f 665 	664 	640
f 625 	584 	627
f 565 	584 	625
f 666 	627 	584
f 662 	597 	645
f 640 	641 	665
f 674 	665 	641
f 666 	593 	627
f 628 	627 	593
f 584 	583 	663
f 442 	445 	663
f 584 	663 	666
f 643 	642 	667
f 643 	667 	668
f 666 	663 	445
f 667 	642 	669
f 445 	593 	666
f 687 	688 	585
f 646 	670 	669
f 670 	646 	647
f 670 	647 	671
f 671 	647 	621
f 622 	653 	621
f 580 	686 	573
f 639 	672 	673
f 573 	686 	585
f 585 	93 	573
f 687 	585 	686
f 650 	675 	674
f 546 	547 	41
f 680 	681 	40
f 675 	650 	651
f 675 	651 	676
f 652 	677 	651
f 676 	651 	677
f 561 	673 	562
f 672 	562 	673
f 643 	668 	677
f 643 	677 	652
f 639 	673 	586
f 561 	586 	673
f 679 	40 	428
f 696 	585 	678
f 655 	656 	654
f 653 	654 	656
f 653 	656 	657
f 653 	657 	658
f 653 	658 	659
f 653 	659 	660
f 653 	660 	661
f 653 	661 	664
f 653 	664 	665
f 653 	665 	674
f 697 	596 	566
f 669 	674 	667
f 670 	674 	669
f 671 	674 	670
f 653 	674 	671
f 668 	667 	674
f 668 	674 	675
f 668 	675 	676
f 668 	676 	677
f 596 	697 	678
f 428 	40 	538
f 4 	328 	5
f 460 	53 	328
f 682 	683 	40
f 681 	682 	40
f 683 	684 	40
f 684 	685 	40
f 580 	40 	685
f 581 	40 	580
f 428 	692 	679
f 53 	460 	48
f 692 	680 	679
f 680 	690 	681
f 690 	682 	681
f 682 	688 	683
f 688 	684 	683
f 684 	686 	685
f 622 	621 	641
f 622 	641 	640
f 622 	640 	637
f 622 	637 	636
f 622 	636 	635
f 622 	635 	633
f 622 	633 	632
f 622 	632 	631
f 622 	631 	626
f 624 	623 	626
f 622 	626 	623
f 686 	580 	685
f 691 	692 	585
f 688 	689 	585
f 689 	690 	585
f 690 	691 	585
f 678 	585 	693
f 693 	491 	678
f 646 	644 	647
f 621 	647 	644
f 621 	644 	642
f 621 	642 	643
f 621 	643 	652
f 621 	652 	651
f 621 	651 	650
f 621 	650 	649
f 621 	649 	641
f 538 	693 	428
f 47 	54 	453
f 694 	453 	7
f 428 	693 	692
f 680 	692 	691
f 133 	134 	453
f 133 	453 	694
f 133 	694 	448
f 691 	690 	680
f 695 	694 	8
f 6 	8 	694
f 682 	690 	689
f 17 	55 	9
f 9 	55 	695
f 8 	9 	695
f 689 	688 	682
f 688 	687 	684
f 694 	695 	448
f 328 	448 	695
f 687 	686 	684
f 695 	462 	460
f 328 	695 	460
f 40 	582 	577
f 406 	596 	414
f 596 	678 	414
f 447 	40 	728
f 517 	492 	40
f 705 	40 	447
f 408 	414 	678
f 565 	590 	574
f 590 	591 	574
f 578 	508 	40
f 611 	612 	40
f 725 	40 	724
f 492 	493 	40
f 638 	544 	672
f 638 	672 	639
f 595 	639 	586
f 109 	101 	88
f 696 	678 	698
f 99 	90 	100
f 698 	678 	697
f 698 	697 	645
f 548 	549 	40
f 697 	566 	395
f 98 	90 	99
f 697 	395 	645
f 404 	645 	395
f 97 	72 	98
f 385 	411 	696
f 588 	699 	700
f 588 	700 	587
f 700 	701 	589
f 700 	589 	587
f 72 	97 	73
f 96 	73 	97
f 95 	74 	73
f 95 	73 	96
f 588 	394 	699
f 698 	700 	696
f 700 	699 	696
f 701 	700 	698
f 74 	95 	107
f 385 	696 	699
f 385 	699 	394
f 106 	76 	107
f 76 	106 	77
f 105 	77 	106
f 104 	78 	77
f 104 	77 	105
f 78 	104 	103
f 108 	80 	102
f 80 	108 	116
f 115 	82 	116
f 82 	115 	83
f 114 	83 	115
f 113 	83 	114
f 112 	85 	113
f 85 	112 	86
f 111 	86 	112
f 110 	87 	86
f 110 	86 	111
f 87 	110 	109
f 100 	89 	101
f 102 	80 	79
f 102 	79 	103
f 88 	101 	89
f 89 	100 	90
f 98 	91 	90
f 91 	98 	72
f 458 	702 	457
f 458 	457 	456
f 458 	268 	702
f 457 	702 	454
f 435 	454 	702
f 268 	212 	702
f 435 	702 	212
f 372 	703 	274
f 279 	274 	455
f 207 	279 	455
f 703 	455 	274
f 429 	40 	704
f 430 	40 	429
f 707 	40 	706
f 708 	40 	707
f 709 	40 	708
f 710 	40 	709
f 711 	40 	710
f 704 	40 	712
f 712 	40 	711
f 440 	439 	447
f 707 	706 	720
f 720 	708 	707
f 423 	420 	455
f 713 	714 	455
f 714 	715 	455
f 421 	422 	455
f 435 	455 	715
f 435 	715 	716
f 435 	716 	717
f 435 	717 	718
f 719 	434 	718
f 720 	434 	719
f 721 	434 	720
f 439 	434 	721
f 714 	713 	429
f 714 	429 	704
f 721 	706 	439
f 706 	705 	439
f 706 	721 	720
f 719 	708 	720
f 708 	719 	709
f 718 	709 	719
f 717 	710 	709
f 717 	709 	718
f 710 	717 	711
f 716 	711 	717
f 711 	716 	712
f 715 	712 	716
f 714 	712 	715
f 704 	712 	714
f 423 	703 	431
f 455 	703 	423
f 311 	431 	703
f 204 	243 	722
f 138 	446 	136
f 722 	136 	446
f 446 	138 	132
f 726 	40 	725
f 727 	40 	726
f 724 	40 	723
f 723 	40 	729
f 729 	40 	402
f 724 	733 	725
f 733 	726 	725
f 726 	731 	727
f 731 	728 	727
f 732 	733 	434
f 94 	434 	733
f 734 	94 	733
f 735 	94 	734
f 737 	446 	736
f 386 	446 	737
f 386 	387 	446
f 735 	736 	446
f 735 	723 	729
f 724 	723 	734
f 735 	734 	723
f 734 	733 	724
f 726 	733 	732
f 732 	731 	726
f 728 	731 	730
f 440 	728 	730
f 737 	402 	386
f 729 	402 	736
f 736 	402 	737
f 729 	736 	735
f 417 	722 	416
f 722 	446 	416
f 392 	416 	446
f 722 	417 	204
f 331 	388 	332
f 309 	424 	388
f 332 	388 	424
f 309 	564 	424
f 739 	286 	738
f 738 	286 	339
f 361 	346 	742
f 738 	361 	742
f 742 	346 	741
f 346 	347 	744
f 740 	346 	744
f 745 	743 	419
f 427 	419 	743
f 745 	746 	744
f 745 	744 	743
f 746 	747 	740
f 746 	740 	744
f 748 	741 	740
f 748 	740 	747
f 749 	742 	741
f 749 	741 	748
f 738 	742 	749
f 747 	291 	748
f 746 	292 	747
f 745 	425 	746
f 749 	748 	291
f 419 	425 	745
f 291 	747 	292
f 291 	739 	749
f 738 	749 	739
f 292 	746 	425
f 750 	751 	752
f 750 	752 	753
f 751 	754 	755
f 751 	755 	752
f 754 	751 	303
f 750 	303 	751
f 755 	756 	757
f 753 	752 	757
f 755 	757 	752
f 756 	755 	304
f 754 	304 	755
f 334 	288 	431
f 425 	757 	756
f 756 	304 	292
f 756 	292 	425
f 739 	291 	307
f 307 	290 	286
f 286 	739 	307
f 423 	288 	753
f 753 	757 	423
f 288 	290 	750
f 307 	750 	290
f 340 	310 	290
f 303 	750 	307
f 750 	753 	288
f 425 	423 	757
f 740 	741 	346
f 759 	458 	758
f 456 	758 	458
f 348 	191 	743
f 743 	744 	348
f 760 	761 	762
f 760 	762 	262
f 212 	324 	280
f 758 	762 	759
f 761 	759 	762
f 758 	262 	762
f 205 	212 	280
f 328 	313 	212
f 328 	212 	451
f 761 	760 	268
f 458 	759 	268
f 761 	268 	759
f 262 	133 	760
f 451 	760 	133
f 268 	760 	212
f 451 	212 	760
f 40 	430 	426
f 577 	578 	40
f 743 	40 	427
f 705 	706 	40
f 227 	179 	228
f 226 	179 	227
f 225 	181 	226
f 224 	181 	225
f 183 	222 	221
f 233 	185 	221
f 232 	185 	233
f 162 	252 	251
f 248 	159 	162
f 248 	162 	251
f 159 	248 	244
f 242 	169 	244
f 169 	242 	170
f 241 	170 	242
f 222 	183 	170
f 222 	170 	241
f 229 	228 	178
f 229 	178 	177
f 178 	228 	179
f 226 	180 	179
f 181 	180 	226
f 182 	181 	224
f 257 	197 	223
f 223 	182 	224
f 183 	221 	185
f 232 	188 	185
f 188 	232 	231
f 188 	231 	189
f 230 	190 	231
f 189 	231 	190
f 229 	177 	190
f 229 	190 	230
f 182 	223 	197
f 197 	257 	198
f 254 	198 	257
f 198 	254 	199
f 253 	199 	254
f 252 	200 	199
f 252 	199 	253
f 162 	200 	252
# 1552 faces

 #end of obj_0

