# Object Export From Tinkercad Server 2015

mtllib obj.mtl

o obj_0
v -3 		-35.567 		94.699
v -3 		-39.5036 		95.3951
v -3 		-37.5321 		95.0474
v 6.9989 		-37.767 		105.244
v 7 		-39.2785 		57.6266
v 7 		-43.8879 		58.4396
v 6.9992 		-33.8253 		104.5493
v 7.1 		-43.8879 		58.4396
v 7 		-50.325 		10.995
v -3 		-36.547 		94.8737
v -3 		-35.5667 		94.7008
v 7 		-38.4308 		60.5878
v 7 		-34.0108 		59.8086
v 7 		-33.8417 		59.8787
v -136 		-48.1235 		0.4507
v -135.9987 		-52.0586 		1.1443
v -136 		-52.0586 		1.1443
v -126 		-44.182 		-0.244
v -126 		-48.0215 		0.4327
v -136 		-48.0215 		0.4327
v -136 		-44.182 		-0.244
v -135.999 		-56 		1.839
v -135.9987 		-52.0632 		1.1451
v -128.0015 		-52.644 		9.368
v -128.0009 		-51.659 		9.195
v 3.4127 		-33.6057 		59.7372
v 5.6 		-32.7375 		64.6612
v 7 		-33.6057 		59.7372
v 7 		-33.7962 		59.7708
v 7 		-42.5453 		55.0991
v 7 		-43.9001 		58.3701
v 7 		-42.5448 		55.0979
v 7.1 		-38.4308 		60.5878
v 3.4127 		-33.5081 		59.72
v -126 		-52.2958 		11.342
v -126 		-54.2632 		11.6888
v -128.0003 		-54.6105 		9.7193
v -127.0013 		-52.4697 		10.3561
v -126 		-51.3109 		11.1683
v -126.0005 		-50.3252 		10.9941
v -126 		-50.3251 		10.9945
v -126.5011 		-51.398 		10.6749
v -0.998 		-43.2587 		56.8215
v -2.9 		-43.2587 		56.8215
v -125.998 		-29.8894 		103.8555
v -128.003 		-52.6437 		9.3697
v -3 		-21.913 		5.2887
v 0 		-21.913 		5.2887
v -3 		-29.7874 		103.8375
v 7 		-29.7874 		103.8375
v 0 		-21.913 		5.2887
v -3 		-25.949 		103.161
v -128.003 		-51.6588 		9.196
v 7 		-25.949 		103.161
v 7 		-29.8894 		103.8555
v -3.003 		-29.8894 		103.8555
v -136 		-55.9995 		1.8419
v -136 		-52.0622 		1.1476
v 7 		-33.8253 		104.5493
v -3.003 		-25.949 		103.161
v -125.998 		-25.949 		103.161
v -3.002 		-37.5319 		95.0484
v -3.002 		-39.503 		95.396
v 7 		-44.182 		-0.244
v 7 		-48.0215 		0.4327
v -3 		-48.0215 		0.4327
v -3 		-44.182 		-0.244
v -3 		-21.913 		5.2887
v 6.9987 		-52.0632 		1.1451
v 6.999 		-56 		1.839
v 3.2619 		-14.4544 		0.003
v 0 		-15 		1.3266
v -3 		-15.5038 		2.543
v -3 		-15.5061 		2.5421
v -126 		-50.325 		10.995
v -136 		-50.325 		10.995
v 6.9987 		-52.0586 		1.1443
v -3.003 		-48.1235 		0.4507
v 7 		-48.1235 		0.4507
v 7 		-52.0586 		1.1443
v -3 		-14.4517 		0.003
v 0 		-14.4517 		0.003
v -3 		-15.5739 		2.7059
v -3 		-15.5717 		2.7069
v 0 		-16.0757 		3.9236
v -126 		-56 		1.839
v 5.003 		-14.4544 		0.003
v -3.002 		-35.5618 		94.701
v -3.002 		-36.5469 		94.8747
v -125.998 		-48.1235 		0.4507
v -125.999 		-37.5319 		95.0484
v -125.999 		-39.503 		95.396
v -125.999 		-36.5469 		94.8747
v -125.999 		-35.5618 		94.701
v -125.998 		-44.182 		-0.244
v -125.998 		-31.6267 		94.007
v 7 		-35.567 		94.699
v 7.1 		-38.963 		57.571
v -3.003 		-44.182 		-0.244
v 7 		-38.9286 		57.7716
v 7 		-38.9275 		57.7721
v 7.1 		-33.508 		59.72
v -2.9 		-33.508 		59.72
v 0.7873 		-33.5081 		59.72
v 7 		-38.963 		57.571
v 7 		-12.794 		9.066
v 7 		-33.5878 		59.2676
v 7 		-35.5618 		94.701
v 6.998 		-12.794 		9.066
v -3.003 		-31.6267 		94.007
v 7 		-31.6267 		94.007
v 5.6 		-32.64 		64.644
v -3.0029 		-52.296 		11.341
v -3.0029 		-54.264 		11.688
v -3.003 		-27.686 		93.312
v -3.0029 		-51.3111 		11.1673
v -3.0029 		-50.322 		10.9929
v -125.998 		-27.686 		93.312
v 7 		-37.7673 		105.2421
v -3 		-12.794 		9.066
v 7 		-50.322 		10.9929
v -3 		-17.413 		7.152
v -3.003 		-46.3864 		10.2988
v 0 		-12.794 		9.066
v -2.9 		-33.5878 		59.2676
v 7 		-46.3864 		10.2988
v 0 		-11.4565 		5.8371
v -125.9981 		-52.296 		11.341
v -125.9981 		-54.264 		11.688
v -125.9981 		-51.3111 		11.1673
v 0 		-17.413 		7.152
v -125.9981 		-50.322 		10.9929
v 7 		-33.8297 		104.5478
v 5.003 		-12.2971 		7.8663
v -125.998 		-46.3864 		10.2988
v -74.998 		-42.446 		9.604
v -125.998 		-42.446 		9.604
v -0.998 		-37.1844 		97.0188
v -0.998 		-36.1993 		96.8451
v -3.003 		-42.446 		9.604
v 4.9996 		-55.653 		3.8079
v -0.9987 		-37.184 		97.021
v -0.999 		-36.199 		96.847
v 5.003 		-16.918 		5.952
v 6.998 		-9.0399 		0.003
v -1.4 		-32.64 		64.644
v -0.998 		-43.9001 		58.3701
v 7.1 		-43.9001 		58.3701
v -0.998 		-43.0009 		58.2832
v -2.9 		-43.0009 		58.2832
v -0.998 		-43.8879 		58.4396
v -3 		-31.525 		93.987
v 7 		-31.525 		93.987
v -135.9989 		-37.767 		105.244
v -128.0018 		-36.199 		96.847
v -128.0021 		-37.184 		97.021
v -1.4 		-32.7375 		64.6612
v -3 		-52.2958 		11.342
v -3 		-54.2632 		11.6888
v -3 		-33.7962 		59.7708
v -3 		-33.841 		59.879
v -126 		-39.5036 		95.3951
v -126 		-37.5321 		95.0474
v -3 		-34.0108 		59.8086
v -128.003 		-37.1842 		97.0198
v -2.9 		-33.6057 		59.7372
v -126 		-36.547 		94.8737
v -126 		-35.5667 		94.7008
v -3 		-19.7235 		0.003
v 0.7873 		-33.6057 		59.7372
v -128.003 		-36.1992 		96.8461
v -136 		-37.7673 		105.2421
v -136 		-33.8297 		104.5478
v -136 		-35.567 		94.699
v -126 		-35.567 		94.699
v 7 		-36.7779 		41.1755
v 7 		-55.9995 		1.8419
v 7 		-52.0622 		1.1476
v 7.1 		-36.7779 		41.1755
v -3 		-33.6585 		59.4383
v -136 		-46.3864 		10.2988
v -136 		-50.322 		10.9929
v -3 		-38.461 		57.9653
v -0.9997 		-54.6105 		9.7193
v -3 		-46.284 		10.283
v -136 		-46.284 		10.283
v -126 		-46.284 		10.283
v -136 		-31.6267 		94.007
v -136 		-29.8894 		103.8555
v -1.9987 		-52.4697 		10.3561
v -3 		-38.9286 		57.7716
v -126 		-31.525 		93.987
v -136 		-31.525 		93.987
v -2.4989 		-51.398 		10.6749
v -3 		-36.8486 		41.3462
v -126 		-29.7874 		103.8375
v -136 		-29.7874 		103.8375
v -2.9 		-33.6585 		59.4383
v -0.998 		-52.6435 		9.3707
v -0.998 		-51.6587 		9.197
v -135.9992 		-33.8253 		104.5493
v -136 		-33.8253 		104.5493
v -136 		-35.5618 		94.701
v 7 		-46.284 		10.283
v 7 		-36.8486 		41.3462
v -3 		-51.3109 		11.1683
v -3 		-50.3251 		10.9945
v -3 		-50.325 		10.995
v 7 		-33.841 		59.879
v -3 		-43.3005 		56.5843
v -3 		-42.9605 		56.1015
v -0.9999 		-51.659 		9.195
v -0.9992 		-52.644 		9.368
v -126 		-25.949 		103.161
v 7 		-21.913 		5.2887
v 6.998 		-21.913 		5.2887
v -136 		-25.949 		103.161
v 6.998 		-19.7235 		0.003
v -133.9998 		-55.653 		3.8079
v 0 		-11.3952 		2.8195
v 0 		-10.3806 		3.2398
v 0 		-9.0399 		0.003
v 0.9006 		-10.2294 		2.8745
v 5.003 		-9.5403 		1.2111
v 5.003 		-12.4573 		0.003
v -2.9995 		-50.3252 		10.9941
# 226 vertices

g group_0_14860437

usemtl color_14860437
s 0

f 6 	8 	5
f 11 	1 	10
f 15 	16 	17
f 14 	13 	29
f 18 	19 	20
f 18 	20 	21
f 29 	13 	102
f 28 	29 	102
f 9 	30 	31
f 34 	26 	28
f 24 	25 	219
f 23 	219 	25
f 33 	102 	13
f 12 	33 	13
f 30 	9 	32
f 35 	36 	38
f 37 	38 	36
f 41 	39 	40
f 42 	40 	39
f 46 	165 	38
f 61 	45 	56
f 44 	210 	43
f 38 	37 	46
f 52 	49 	50
f 52 	50 	54
f 58 	40 	53
f 42 	53 	40
f 56 	4 	7
f 55 	56 	7
f 55 	7 	59
f 48 	51 	216
f 61 	56 	60
f 169 	218 	51
f 45 	154 	56
f 64 	65 	66
f 64 	66 	67
f 53 	46 	58
f 57 	58 	46
f 57 	46 	37
f 73 	74 	72
f 71 	72 	74
f 69 	70 	78
f 86 	78 	70
f 41 	40 	75
f 76 	75 	40
f 58 	76 	40
f 80 	77 	79
f 78 	79 	77
f 71 	169 	82
f 84 	85 	83
f 144 	83 	85
f 91 	62 	63
f 91 	63 	92
f 93 	94 	89
f 90 	78 	86
f 87 	71 	144
f 83 	144 	71
f 83 	71 	74
f 99 	78 	90
f 179 	102 	98
f 77 	69 	78
f 99 	90 	95
f 8 	148 	98
f 98 	148 	179
f 100 	101 	12
f 105 	101 	100
f 105 	100 	5
f 102 	103 	104
f 102 	104 	34
f 102 	34 	28
f 33 	12 	101
f 105 	98 	101
f 33 	101 	98
f 106 	109 	107
f 8 	98 	5
f 105 	5 	98
f 110 	111 	88
f 108 	88 	111
f 107 	176 	106
f 34 	112 	26
f 27 	26 	112
f 88 	94 	110
f 89 	94 	88
f 115 	110 	118
f 118 	110 	96
f 96 	110 	94
f 68 	122 	83
f 123 	117 	126
f 124 	120 	125
f 4 	154 	63
f 60 	115 	61
f 61 	115 	118
f 85 	131 	127
f 124 	127 	131
f 125 	107 	124
f 109 	124 	107
f 127 	124 	134
f 124 	109 	134
f 145 	224 	109
f 108 	111 	59
f 55 	59 	111
f 127 	134 	85
f 144 	85 	134
f 135 	132 	136
f 132 	130 	136
f 116 	136 	130
f 225 	87 	134
f 155 	94 	93
f 137 	135 	136
f 85 	122 	131
f 129 	114 	128
f 113 	128 	114
f 48 	120 	124
f 116 	117 	136
f 121 	126 	117
f 133 	139 	138
f 133 	138 	119
f 140 	136 	123
f 136 	117 	123
f 48 	124 	51
f 131 	51 	124
f 70 	141 	86
f 114 	86 	141
f 219 	86 	129
f 51 	131 	68
f 122 	68 	131
f 62 	142 	63
f 129 	86 	114
f 4 	63 	142
f 222 	224 	145
f 143 	89 	88
f 133 	119 	97
f 176 	107 	179
f 143 	7 	142
f 88 	7 	143
f 7 	4 	142
f 102 	179 	107
f 102 	107 	103
f 125 	103 	107
f 119 	6 	97
f 156 	155 	142
f 120 	180 	125
f 91 	156 	62
f 125 	198 	103
f 93 	89 	155
f 143 	155 	89
f 33 	98 	102
f 104 	146 	34
f 112 	34 	146
f 7 	88 	108
f 59 	7 	108
f 45 	96 	189
f 3 	2 	138
f 2 	119 	138
f 61 	118 	45
f 96 	45 	118
f 10 	139 	11
f 133 	11 	139
f 179 	148 	32
f 30 	32 	148
f 31 	30 	148
f 49 	153 	50
f 1 	11 	97
f 133 	97 	11
f 43 	149 	150
f 43 	150 	44
f 55 	110 	56
f 149 	43 	147
f 149 	147 	151
f 111 	110 	55
f 110 	115 	56
f 60 	56 	115
f 180 	160 	52
f 52 	152 	49
f 149 	139 	10
f 41 	75 	39
f 191 	10 	183
f 152 	161 	1
f 149 	151 	139
f 160 	161 	52
f 10 	150 	149
f 14 	209 	153
f 92 	63 	154
f 97 	12 	153
f 14 	153 	13
f 12 	13 	153
f 155 	156 	201
f 50 	153 	54
f 153 	1 	97
f 91 	92 	156
f 54 	28 	27
f 52 	54 	157
f 157 	166 	52
f 27 	157 	54
f 152 	1 	153
f 92 	154 	156
f 201 	156 	154
f 3 	158 	2
f 159 	2 	158
f 152 	153 	49
f 143 	142 	155
f 146 	157 	27
f 146 	27 	112
f 119 	31 	6
f 142 	62 	156
f 152 	52 	161
f 164 	10 	161
f 183 	10 	164
f 163 	165 	162
f 164 	161 	160
f 172 	162 	165
f 180 	52 	166
f 170 	166 	157
f 167 	168 	171
f 81 	82 	169
f 87 	218 	71
f 169 	71 	218
f 68 	169 	51
f 171 	173 	165
f 168 	173 	171
f 172 	165 	173
f 170 	104 	166
f 103 	166 	104
f 215 	106 	176
f 168 	175 	174
f 168 	174 	173
f 136 	95 	137
f 163 	38 	165
f 95 	136 	99
f 140 	99 	136
f 53 	42 	171
f 47 	195 	120
f 171 	165 	53
f 46 	53 	165
f 119 	177 	31
f 178 	9 	177
f 9 	31 	177
f 163 	35 	38
f 80 	79 	121
f 126 	121 	79
f 167 	171 	42
f 39 	167 	42
f 135 	181 	132
f 182 	132 	181
f 126 	78 	123
f 78 	126 	79
f 16 	25 	132
f 23 	25 	16
f 120 	195 	180
f 164 	180 	183
f 160 	180 	164
f 183 	180 	195
f 119 	2 	184
f 16 	132 	182
f 16 	182 	17
f 75 	76 	187
f 187 	76 	186
f 185 	208 	195
f 195 	67 	185
f 66 	185 	67
f 177 	119 	184
f 159 	184 	2
f 189 	96 	188
f 159 	190 	184
f 193 	192 	196
f 193 	196 	197
f 211 	191 	195
f 191 	183 	195
f 186 	19 	187
f 166 	198 	180
f 19 	186 	20
f 184 	190 	199
f 198 	125 	180
f 194 	226 	200
f 201 	94 	155
f 200 	178 	199
f 178 	177 	199
f 184 	199 	177
f 201 	203 	94
f 202 	203 	201
f 203 	188 	94
f 175 	192 	174
f 178 	226 	9
f 96 	94 	188
f 47 	48 	195
f 174 	192 	193
f 166 	103 	198
f 158 	190 	159
f 158 	3 	190
f 204 	205 	9
f 199 	190 	138
f 138 	190 	3
f 32 	9 	205
f 205 	204 	64
f 65 	64 	204
f 138 	139 	151
f 151 	147 	138
f 199 	138 	147
f 67 	195 	64
f 64 	195 	205
f 9 	208 	204
f 185 	204 	208
f 8 	6 	31
f 8 	31 	148
f 66 	65 	185
f 204 	185 	65
f 176 	179 	205
f 32 	205 	179
f 205 	195 	176
f 176 	195 	48
f 207 	206 	208
f 208 	206 	195
f 157 	146 	170
f 104 	170 	146
f 195 	206 	211
f 209 	28 	153
f 54 	153 	28
f 28 	209 	29
f 210 	211 	206
f 14 	29 	209
f 26 	27 	28
f 200 	43 	194
f 168 	167 	175
f 200 	199 	43
f 147 	43 	199
f 36 	35 	162
f 69 	141 	70
f 163 	162 	35
f 75 	175 	39
f 141 	213 	114
f 113 	114 	213
f 212 	117 	116
f 213 	141 	212
f 192 	214 	196
f 192 	175 	187
f 212 	141 	69
f 117 	212 	77
f 69 	77 	212
f 121 	117 	77
f 121 	77 	80
f 140 	123 	78
f 140 	78 	99
f 135 	90 	15
f 135 	15 	181
f 219 	129 	24
f 128 	24 	129
f 187 	18 	192
f 214 	192 	18
f 25 	130 	132
f 18 	187 	19
f 75 	187 	175
f 212 	116 	25
f 167 	39 	175
f 90 	135 	137
f 90 	137 	95
f 212 	25 	24
f 172 	173 	174
f 116 	130 	25
f 212 	24 	213
f 58 	57 	76
f 172 	174 	57
f 181 	15 	182
f 17 	182 	15
f 128 	113 	24
f 213 	24 	113
f 197 	217 	193
f 76 	174 	186
f 216 	176 	48
f 215 	176 	216
f 21 	20 	186
f 217 	21 	193
f 174 	193 	186
f 109 	106 	215
f 109 	215 	216
f 145 	109 	218
f 216 	218 	109
f 203 	202 	188
f 189 	188 	202
f 218 	87 	145
f 21 	186 	193
f 76 	57 	174
f 216 	51 	218
f 22 	86 	219
f 219 	23 	22
f 122 	84 	83
f 74 	169 	83
f 73 	81 	74
f 169 	74 	81
f 83 	169 	68
f 72 	220 	82
f 36 	162 	37
f 221 	222 	220
f 82 	220 	222
f 172 	37 	162
f 37 	172 	57
f 224 	222 	223
f 221 	223 	222
f 21 	217 	214
f 18 	21 	214
f 134 	109 	224
f 224 	223 	225
f 71 	225 	223
f 71 	223 	220
f 72 	71 	220
f 45 	189 	201
f 201 	154 	45
f 4 	56 	154
f 71 	222 	225
f 220 	223 	221
f 214 	197 	196
f 217 	197 	214
f 71 	82 	222
f 202 	201 	189
f 224 	225 	134
f 144 	134 	87
f 225 	145 	87
f 222 	145 	225
f 82 	81 	72
f 73 	72 	81
f 16 	90 	23
f 23 	90 	86
f 22 	23 	86
f 84 	122 	85
f 120 	48 	47
f 15 	90 	16
f 191 	211 	210
f 1 	161 	10
f 210 	10 	191
f 194 	206 	226
f 207 	226 	206
f 194 	43 	206
f 178 	200 	226
f 208 	9 	226
f 226 	207 	208
f 210 	206 	43
f 44 	150 	210
f 10 	210 	150
f 12 	97 	6
f 6 	5 	12
f 5 	100 	12
# 440 faces

 #end of obj_0

